<svg width="18" height="14" viewBox="0 0 18 14" fill="none" xmlns="http://www.w3.org/2000/svg">
<path d="M1.39644 12.5L17 1M10.8862 5.18264C11.9271 6.1864 11.9271 7.81583 10.8862 8.82126C9.84533 9.82497 8.15556 9.82497 7.11292 8.82126C6.07203 7.81754 6.07203 6.18803 7.11292 5.18264C8.15556 4.17721 9.84444 4.17721 10.8862 5.18264ZM1 7C1 6.43514 1.13511 5.87629 1.39644 5.36114C2.74311 2.70657 5.71911 1 9 1C12.2809 1 15.2569 2.70657 16.6036 5.36114C16.8649 5.87629 17 6.43514 17 7C17 7.56486 16.8649 8.12371 16.6036 8.63886C15.2569 11.2934 12.2809 13 9 13C5.71911 13 2.74311 11.2934 1.39644 8.63886C1.13511 8.12371 1 7.56486 1 7Z" stroke="#809396" stroke-width="1.5" stroke-linecap="round"/>
</svg>
