<svg width="183" height="70" viewBox="0 0 183 70" fill="none" xmlns="http://www.w3.org/2000/svg">
<path fill-rule="evenodd" clip-rule="evenodd" d="M100.783 0.00809529C100.695 0.0168998 100.607 0.0392525 100.589 0.05776C100.57 0.0762674 100.468 0.0914328 100.362 0.0914328C100.256 0.0914328 100.127 0.115582 100.075 0.145086C100.023 0.174591 99.9398 0.215271 99.8907 0.235467C99.8416 0.255664 99.7532 0.304107 99.6943 0.343134C99.6354 0.382162 99.5631 0.425573 99.5336 0.439625C99.5041 0.453712 98.3975 1.55356 97.0743 2.88372C95.7511 4.21392 94.6544 5.30227 94.6371 5.30227C94.6198 5.30227 94.6057 5.32653 94.6057 5.35618C94.6057 5.38582 94.5816 5.41008 94.5521 5.41008C94.5226 5.41008 94.4985 5.43434 94.4985 5.46399C94.4985 5.49363 94.4744 5.51789 94.445 5.51789C94.4155 5.51789 94.3914 5.53007 94.3914 5.54499C94.3914 5.58718 94.0047 5.98507 93.9637 5.98507C93.9436 5.98507 93.9272 5.99934 93.9272 6.01677C93.9272 6.05809 93.6427 6.34444 93.6016 6.34444C93.5843 6.34444 93.5701 6.3687 93.5701 6.39834C93.5701 6.42799 93.546 6.45225 93.5165 6.45225C93.4871 6.45225 93.463 6.47651 93.463 6.50615C93.463 6.5358 93.4389 6.56006 93.4094 6.56006C93.3799 6.56006 93.3558 6.57433 93.3558 6.59176C93.3558 6.63308 93.0713 6.91943 93.0302 6.91943C93.0129 6.91943 92.9987 6.94368 92.9987 6.97333C92.9987 7.00298 92.9746 7.02724 92.9452 7.02724C92.9157 7.02724 92.8916 7.0428 92.8916 7.06177C92.8916 7.10572 92.6113 7.38661 92.5674 7.38661C92.5493 7.38661 92.5345 7.41086 92.5345 7.44051C92.5345 7.47016 92.5104 7.49442 92.4809 7.49442C92.4515 7.49442 92.4274 7.51867 92.4274 7.54832C92.4274 7.57797 92.4033 7.60223 92.3738 7.60223C92.3444 7.60223 92.3203 7.61649 92.3203 7.63392C92.3203 7.67525 92.0357 7.9616 91.9947 7.9616C91.9773 7.9616 91.9632 7.98585 91.9632 8.0155C91.9632 8.04515 91.9391 8.06941 91.9096 8.06941C91.8801 8.06941 91.856 8.09366 91.856 8.12331C91.856 8.15296 91.8319 8.17722 91.8025 8.17722C91.773 8.17722 91.7485 8.19745 91.7479 8.22214C91.7474 8.24686 91.6916 8.30749 91.6239 8.3569C91.5562 8.40631 91.5005 8.46697 91.4999 8.49166C91.4994 8.51639 91.4748 8.53658 91.4454 8.53658C91.4159 8.53658 91.3918 8.56084 91.3918 8.59049C91.3918 8.62014 91.3677 8.64439 91.3382 8.64439C91.3088 8.64439 91.2847 8.66865 91.2847 8.6983C91.2847 8.72795 91.2705 8.7522 91.2532 8.7522C91.2121 8.7522 90.9276 9.03855 90.9276 9.07988C90.9276 9.09731 90.9035 9.11157 90.874 9.11157C90.8446 9.11157 90.8204 9.12609 90.8204 9.14384C90.8204 9.1616 90.7234 9.27839 90.6049 9.40338C90.4863 9.5284 90.3804 9.66633 90.3695 9.70992C90.3587 9.75351 90.3271 9.79793 90.2994 9.8086C90.2717 9.81931 90.2491 9.86948 90.2491 9.92015C90.2491 9.97082 90.225 10.0216 90.1955 10.0329C90.164 10.0451 90.142 10.099 90.142 10.1637C90.142 10.2243 90.1138 10.3051 90.0795 10.3433C90.0209 10.4084 90.017 10.6127 90.017 13.5498C90.017 16.4869 90.0209 16.6911 90.0795 16.7562C90.1138 16.7944 90.142 16.8752 90.142 16.9358C90.142 17.0005 90.164 17.0544 90.1955 17.0666C90.225 17.078 90.2491 17.1282 90.2491 17.1783C90.2491 17.2283 90.2656 17.2692 90.2857 17.2692C90.3058 17.2692 90.3377 17.3101 90.3566 17.36C90.3936 17.458 90.4233 17.4982 90.5892 17.6751C90.6486 17.7385 90.755 17.8631 90.8257 17.952C90.8963 18.041 91.0568 18.2215 91.1822 18.3532C91.3076 18.4849 91.4692 18.6587 91.5412 18.7395C91.6133 18.8203 91.6895 18.8864 91.7106 18.8864C91.7317 18.8864 91.7489 18.9027 91.7489 18.9227C91.7489 18.9427 91.9538 19.1672 92.2042 19.4217C92.4546 19.6762 92.7398 19.9777 92.838 20.0916C92.9362 20.2054 93.117 20.4027 93.2398 20.5298C93.3625 20.657 93.463 20.7662 93.463 20.7724C93.463 20.7786 93.7201 21.0468 94.0343 21.3683C94.3486 21.6897 94.6057 21.9663 94.6057 21.9828C94.6057 21.9994 94.6298 22.0129 94.6592 22.0129C94.6887 22.0129 94.7128 22.0288 94.7128 22.0482C94.7128 22.0676 94.769 22.1417 94.8378 22.213C94.9065 22.2842 94.9628 22.3643 94.9628 22.3909C94.9628 22.452 95.0833 22.492 95.177 22.4621C95.2568 22.4366 95.274 22.3045 95.2064 22.2365C95.1336 22.1632 95.1152 16.277 95.1873 16.1168C95.2178 16.049 95.2532 15.953 95.2659 15.9036C95.3206 15.6914 95.4865 15.4365 95.5698 15.4365C95.5895 15.4365 95.6055 15.4215 95.6055 15.4031C95.6055 15.2415 96.611 15.095 96.7049 15.2429C96.7189 15.265 96.7706 15.2954 96.8197 15.3104C96.9422 15.3481 97.2482 15.669 97.2482 15.7599C97.2482 15.8007 97.2723 15.8433 97.3018 15.8547C97.3489 15.8729 97.3553 16.3693 97.3553 20.0222C97.3553 24.7474 97.3203 24.3331 97.6868 23.9445C97.8033 23.821 98.1499 23.4606 98.4572 23.1437C98.7644 22.8268 99.1267 22.4468 99.2622 22.2992C99.3978 22.1516 99.8979 21.6266 100.374 21.1324C101.755 19.6974 101.745 19.7129 101.309 19.7129C100.654 19.7129 100.313 19.1791 100.712 18.7786C100.748 18.7422 100.891 18.5294 100.891 18.5116C100.891 18.5015 101.276 18.1048 101.748 17.6301C102.219 17.1553 102.605 16.7505 102.605 16.7306C102.605 16.7106 102.62 16.6942 102.64 16.6942C102.689 16.6942 103.069 16.3179 103.069 16.2684C103.069 16.2457 103.085 16.2271 103.105 16.2271C103.153 16.2271 104.212 15.1613 104.212 15.1136C104.212 15.0935 104.228 15.0771 104.248 15.0771C104.293 15.0771 109.197 10.1408 109.309 9.98257C109.353 9.92019 109.389 9.84598 109.389 9.81762C109.389 9.78931 109.414 9.75682 109.443 9.74543C109.472 9.73407 109.497 9.68581 109.497 9.63819C109.497 9.59057 109.521 9.53149 109.55 9.50688C109.58 9.48205 109.604 9.4037 109.604 9.33079C109.604 9.25855 109.631 9.15955 109.665 9.11082C109.754 8.98306 109.753 8.15774 109.664 8.02064C109.631 7.96979 109.604 7.8705 109.604 7.80002C109.604 7.71924 109.584 7.66418 109.55 7.65117C109.519 7.63931 109.497 7.58566 109.497 7.52539C109.497 7.46513 109.474 7.41147 109.443 7.39962C109.414 7.38822 109.389 7.35574 109.389 7.32742C109.389 7.2172 108.03 5.76945 107.926 5.76945C107.906 5.76945 107.89 5.75292 107.89 5.73272C107.89 5.68485 107.509 5.30227 107.462 5.30227C107.442 5.30227 107.425 5.27801 107.425 5.24837C107.425 5.21872 107.401 5.19446 107.372 5.19446C107.342 5.19446 107.318 5.17829 107.318 5.15852C107.318 5.11173 107.043 4.83509 106.997 4.83509C106.977 4.83509 106.961 4.81083 106.961 4.78119C106.961 4.75154 106.937 4.72728 106.908 4.72728C106.878 4.72728 106.854 4.70302 106.854 4.67338C106.854 4.64373 106.83 4.61947 106.801 4.61947C106.771 4.61947 106.747 4.59521 106.747 4.56557C106.747 4.53592 106.734 4.51166 106.717 4.51166C106.701 4.51166 106.318 4.14374 105.867 3.6941C105.415 3.24442 104.879 2.72291 104.676 2.53514C104.473 2.34737 104.173 2.0603 104.009 1.89726C103.846 1.73421 103.696 1.60078 103.676 1.60078C103.656 1.60078 103.64 1.57652 103.64 1.54687C103.64 1.51723 103.616 1.49297 103.587 1.49297C103.557 1.49297 103.533 1.47644 103.533 1.45624C103.533 1.40837 103.153 1.02579 103.105 1.02579C103.085 1.02579 103.069 1.01034 103.069 0.991434C103.069 0.947843 102.687 0.558611 102.644 0.558611C102.627 0.558611 102.603 0.534354 102.592 0.504706C102.58 0.475058 102.532 0.450801 102.485 0.450801C102.437 0.450801 102.389 0.426544 102.377 0.396896C102.366 0.367248 102.334 0.34299 102.307 0.34299C102.279 0.34299 102.237 0.319775 102.214 0.291385C102.19 0.263031 102.12 0.228604 102.058 0.214948C101.995 0.201256 101.912 0.16787 101.874 0.140738C101.835 0.113642 101.733 0.0914328 101.648 0.0914328C101.563 0.0914328 101.463 0.0750815 101.425 0.0551007C101.344 0.0110781 101.004 -0.0138262 100.783 0.00809529ZM101.077 6.25596C101.051 6.28485 100.993 6.3085 100.947 6.3085C100.901 6.3085 100.844 6.33276 100.819 6.36241C100.795 6.39205 100.746 6.41631 100.711 6.41631C100.677 6.41631 100.639 6.44057 100.628 6.47022C100.616 6.49987 100.584 6.52412 100.557 6.52412C100.504 6.52412 100.212 6.79092 100.212 6.83864C100.212 6.85356 100.156 6.94537 100.087 7.04265C100.015 7.14543 99.9621 7.26255 99.9621 7.32217C99.9621 7.38025 99.9389 7.43379 99.9086 7.44547C99.8335 7.47447 99.8295 8.36269 99.9041 8.42504C99.9311 8.4476 99.9634 8.53044 99.9759 8.60914C99.9884 8.68781 100.011 8.7522 100.026 8.7522C100.041 8.7522 100.093 8.82756 100.141 8.91967C100.241 9.10737 100.403 9.28655 100.535 9.35436C100.583 9.37919 100.687 9.43914 100.766 9.48758C100.844 9.53602 100.943 9.57634 100.984 9.57721C101.026 9.57803 101.08 9.60301 101.105 9.63266C101.14 9.67542 101.244 9.68656 101.605 9.68656C101.978 9.68656 102.065 9.67668 102.082 9.63266C102.093 9.60229 102.147 9.57875 102.204 9.57875C102.259 9.57875 102.323 9.56071 102.345 9.53865C102.384 9.49879 102.473 9.44363 102.637 9.35612C102.75 9.29593 102.977 9.07445 103.007 8.99478C103.02 8.96021 103.047 8.93189 103.068 8.93189C103.088 8.93189 103.105 8.89904 103.105 8.8589C103.105 8.81872 103.129 8.77657 103.158 8.76521C103.188 8.75371 103.212 8.70031 103.212 8.64493C103.212 8.5902 103.236 8.52526 103.265 8.50065C103.342 8.43636 103.341 7.47343 103.264 7.37076C103.235 7.33238 103.212 7.25558 103.212 7.20006C103.212 7.14454 103.195 7.09911 103.175 7.09911C103.155 7.09911 103.123 7.06274 103.104 7.01825C103.051 6.89467 102.987 6.80263 102.908 6.73633C102.869 6.7032 102.775 6.61767 102.7 6.54622C102.625 6.47478 102.535 6.41631 102.499 6.41631C102.463 6.41631 102.424 6.39205 102.413 6.36241C102.402 6.33276 102.355 6.3085 102.309 6.3085C102.263 6.3085 102.194 6.28475 102.156 6.25575C102.056 6.17956 101.143 6.17974 101.077 6.25596Z" fill="white"/>
<path fill-rule="evenodd" clip-rule="evenodd" d="M66.769 2.7997C66.7303 2.82662 66.6156 2.85645 66.5141 2.86601C66.4103 2.87578 66.3037 2.90938 66.2705 2.94284C66.238 2.97554 66.1799 3.00231 66.1414 3.00231C66.1029 3.00231 66.0622 3.02657 66.0509 3.05622C66.0396 3.08587 65.9914 3.11013 65.9438 3.11013C65.8961 3.11013 65.8479 3.13438 65.8366 3.16403C65.8253 3.19368 65.8017 3.21794 65.7842 3.21794C65.7404 3.21794 65.4666 3.49681 65.4666 3.54137C65.4666 3.56113 65.4521 3.5773 65.4343 3.5773C65.397 3.5773 65.2166 3.87515 65.2166 3.93664C65.2166 3.95924 65.1925 4.00201 65.1631 4.03165C65.1336 4.0613 65.109 4.13695 65.1084 4.19977C65.1078 4.26262 65.0836 4.34542 65.0548 4.38376C64.9817 4.48101 64.9817 5.04543 65.0548 5.14268C65.0836 5.18102 65.1078 5.26403 65.1084 5.3271C65.109 5.39017 65.1258 5.45191 65.1457 5.46431C65.1657 5.47671 65.2051 5.54236 65.2332 5.61018C65.2614 5.67803 65.3013 5.73351 65.3219 5.73351C65.3426 5.73351 65.3595 5.75777 65.3595 5.78742C65.3595 5.81707 65.3836 5.84132 65.413 5.84132C65.4425 5.84132 65.4666 5.85681 65.4666 5.87575C65.4666 5.92355 65.7327 6.20069 65.7786 6.20069C65.7992 6.20069 65.8253 6.22495 65.8366 6.2546C65.8479 6.28424 65.8961 6.3085 65.9438 6.3085C65.9914 6.3085 66.0396 6.33276 66.0509 6.36241C66.0627 6.39331 66.116 6.41631 66.1759 6.41631C66.2358 6.41631 66.2891 6.43931 66.3008 6.47022C66.3153 6.50817 66.3742 6.52412 66.4998 6.52412C66.598 6.52412 66.7523 6.54942 66.8429 6.58036C67.009 6.63711 71.0161 6.63369 71.9188 6.57602C72.1214 6.56308 72.2738 6.56955 72.3172 6.59294C72.3558 6.61375 72.5014 6.64146 72.6407 6.65447C72.7838 6.66787 72.9115 6.69939 72.9342 6.72691C72.9563 6.75372 73.0109 6.77568 73.0554 6.77568C73.1 6.77568 73.1458 6.79994 73.1571 6.82959C73.1684 6.85923 73.2086 6.88349 73.2464 6.88349C73.2842 6.88349 73.3243 6.90775 73.3356 6.9374C73.3469 6.96704 73.3888 6.9913 73.4287 6.9913C73.4686 6.9913 73.5013 7.01358 73.5013 7.04082C73.5013 7.06803 73.5254 7.11043 73.5548 7.13505C73.5843 7.15967 73.6084 7.23492 73.6084 7.3023C73.6084 7.37805 73.6289 7.43268 73.662 7.44547C73.6966 7.45887 73.7155 7.51458 73.7155 7.60352C73.7155 7.67902 73.7369 7.76236 73.763 7.78863C73.7891 7.81494 73.8203 7.89709 73.8323 7.97126C73.8442 8.0454 73.8791 8.13132 73.9098 8.16219C73.9407 8.19339 73.9655 8.27902 73.9655 8.35507C73.9655 8.4328 73.9886 8.51114 74.0191 8.53658C74.0485 8.5612 74.0726 8.63645 74.0726 8.70383C74.0726 8.77959 74.0931 8.83421 74.1262 8.84701C74.1607 8.86034 74.1798 8.9159 74.1798 9.00322C74.1798 9.0798 74.203 9.15815 74.2333 9.18345C74.2628 9.20806 74.2869 9.28166 74.2869 9.34699C74.2869 9.41233 74.3091 9.48812 74.3362 9.51539C74.3633 9.54267 74.3967 9.63183 74.4104 9.71355C74.4241 9.79523 74.4581 9.8812 74.4861 9.90452C74.514 9.92784 74.5368 10.0079 74.5368 10.0824C74.5368 10.1697 74.5559 10.2253 74.5904 10.2386C74.6259 10.2523 74.644 10.3087 74.644 10.4053C74.644 10.5019 74.6621 10.5583 74.6975 10.572C74.732 10.5853 74.7511 10.6409 74.7511 10.7282C74.7511 10.8027 74.7731 10.8821 74.8 10.9045C74.827 10.927 74.8579 11.0122 74.8687 11.0938C74.8796 11.1754 74.9051 11.2525 74.9253 11.2651C74.9455 11.2776 74.9731 11.3576 74.9866 11.4426C75.0001 11.5277 75.033 11.6058 75.0597 11.6161C75.0887 11.6273 75.1082 11.6893 75.1082 11.7704C75.1082 11.8469 75.1315 11.9253 75.1618 11.9506C75.1927 11.9764 75.2153 12.0548 75.2153 12.1358C75.2153 12.2275 75.2339 12.2835 75.2689 12.2969C75.3034 12.3103 75.3225 12.3658 75.3225 12.4532C75.3225 12.5297 75.3457 12.6081 75.376 12.6334C75.4055 12.658 75.4296 12.7209 75.4296 12.7731C75.4296 12.8253 75.4617 12.9284 75.501 13.0021C75.5403 13.0759 75.5724 13.1772 75.5724 13.2273C75.5724 13.2774 75.5965 13.3278 75.626 13.3391C75.6605 13.3524 75.6796 13.408 75.6796 13.4953C75.6796 13.5719 75.7028 13.6502 75.7331 13.6755C75.764 13.7014 75.7867 13.7797 75.7867 13.8608C75.7867 13.9525 75.8053 14.0084 75.8403 14.0219C75.8749 14.0353 75.8938 14.091 75.8938 14.18C75.8938 14.2555 75.916 14.3396 75.9431 14.3669C75.9702 14.3941 76.0036 14.4833 76.0173 14.565C76.031 14.6467 76.0651 14.7327 76.093 14.756C76.1209 14.7793 76.1438 14.8535 76.1438 14.9209C76.1438 14.9967 76.1642 15.0513 76.1973 15.0641C76.2338 15.0782 76.2509 15.1356 76.2509 15.2438C76.2509 15.352 76.268 15.4094 76.3045 15.4234C76.339 15.4368 76.358 15.4923 76.358 15.5797C76.358 15.6542 76.3801 15.7335 76.407 15.756C76.4339 15.7785 76.4648 15.8637 76.4757 15.9453C76.4866 16.0269 76.512 16.1039 76.5322 16.1165C76.5524 16.1291 76.5797 16.2073 76.5929 16.2903C76.6061 16.3734 76.639 16.4598 76.666 16.4824C76.693 16.5049 76.7151 16.5843 76.7151 16.6588C76.7151 16.7462 76.7342 16.8017 76.7687 16.8151C76.8037 16.8285 76.8223 16.8845 76.8223 16.9762C76.8223 17.0572 76.8449 17.1356 76.8758 17.1614C76.9053 17.186 76.9294 17.2596 76.9294 17.325C76.9294 17.3903 76.9508 17.4653 76.9769 17.4916C77.003 17.5179 77.0346 17.6026 77.0471 17.6799C77.0595 17.7572 77.0876 17.8315 77.1094 17.8451C77.1312 17.8587 77.158 17.9366 77.1689 18.0182C77.1797 18.0998 77.2106 18.185 77.2376 18.2075C77.2645 18.2299 77.2865 18.3115 77.2865 18.3888C77.2865 18.4805 77.3051 18.5365 77.3401 18.5499C77.3746 18.5633 77.3936 18.6188 77.3936 18.7062C77.3936 18.7827 77.4169 18.8611 77.4472 18.8864C77.4766 18.911 77.5008 18.9846 77.5008 19.0499C77.5008 19.1153 77.5224 19.1905 77.5489 19.2171C77.5753 19.2437 77.6087 19.329 77.6232 19.4065C77.6377 19.4841 77.6723 19.5803 77.7001 19.6203C77.7279 19.6602 77.7507 19.7443 77.7507 19.8069C77.7507 19.875 77.7723 19.9292 77.8043 19.9416C77.8397 19.9553 77.8578 20.0116 77.8578 20.1082C77.8578 20.2049 77.876 20.2612 77.9114 20.2749C77.9459 20.2882 77.965 20.3438 77.965 20.4311C77.965 20.5056 77.987 20.585 78.0139 20.6075C78.0408 20.63 78.0717 20.7151 78.0826 20.7968C78.0935 20.8784 78.1189 20.9554 78.1391 20.968C78.1593 20.9806 78.1869 21.0605 78.2005 21.1456C78.214 21.2307 78.2469 21.3087 78.2736 21.3191C78.303 21.3304 78.3221 21.3931 78.3221 21.4788C78.3221 21.571 78.3406 21.627 78.3756 21.6405C78.4121 21.6546 78.4292 21.712 78.4292 21.8202C78.4292 21.9284 78.4463 21.9858 78.4828 21.9999C78.5174 22.0133 78.5363 22.069 78.5363 22.1579C78.5363 22.2334 78.5604 22.3195 78.5899 22.3491C78.6194 22.3788 78.6435 22.4408 78.6435 22.487C78.6435 22.5332 78.6756 22.6313 78.7149 22.7051C78.7542 22.7788 78.7863 22.8802 78.7863 22.9303C78.7863 22.9804 78.8104 23.0307 78.8399 23.042C78.8763 23.0561 78.8934 23.1136 78.8934 23.2217C78.8934 23.3299 78.9105 23.3874 78.947 23.4014C78.9815 23.4147 79.0006 23.4703 79.0006 23.5576C79.0006 23.6342 79.0238 23.7126 79.0541 23.7379C79.0836 23.7625 79.1077 23.8361 79.1077 23.9014C79.1077 23.9667 79.1293 24.042 79.1558 24.0686C79.1822 24.0952 79.2157 24.1805 79.2301 24.258C79.2446 24.3356 79.2792 24.4317 79.3071 24.4717C79.3349 24.5117 79.3577 24.5957 79.3577 24.6584C79.3577 24.7265 79.3792 24.7806 79.4112 24.793C79.4467 24.8067 79.4648 24.8631 79.4648 24.9597C79.4648 25.0563 79.4829 25.1127 79.5183 25.1264C79.553 25.1398 79.5719 25.1955 79.5719 25.2844C79.5719 25.3599 79.596 25.446 79.6255 25.4757C79.6549 25.5053 79.679 25.5718 79.679 25.6234C79.679 25.675 79.7112 25.7806 79.7505 25.8581C79.7897 25.9356 79.8219 26.0381 79.8219 26.0859C79.8219 26.1337 79.846 26.1929 79.8754 26.2175C79.9049 26.2421 79.929 26.3149 79.929 26.3792C79.929 26.4435 79.9531 26.5163 79.9826 26.5409C80.0128 26.5662 80.0361 26.6445 80.0361 26.7206C80.0361 26.7967 80.0595 26.8751 80.0897 26.9003C80.1192 26.9249 80.1433 26.9977 80.1433 27.062C80.1433 27.1263 80.1674 27.1991 80.1968 27.2237C80.2263 27.2483 80.2504 27.3112 80.2504 27.3634C80.2504 27.4157 80.2825 27.5187 80.3218 27.5925C80.3611 27.6663 80.3932 27.7651 80.3932 27.8122C80.3932 27.8592 80.4173 27.9178 80.4468 27.9425C80.477 27.9677 80.5004 28.046 80.5004 28.1221C80.5004 28.1983 80.5237 28.2766 80.5539 28.3018C80.5834 28.3264 80.6075 28.4 80.6075 28.4654C80.6075 28.5307 80.6316 28.6084 80.6611 28.6381C80.6905 28.6677 80.7146 28.7381 80.7146 28.7944C80.7146 28.8507 80.7367 28.9287 80.7637 28.9676C80.7907 29.0066 80.8241 29.1063 80.8379 29.1892C80.8517 29.2721 80.8859 29.3589 80.9138 29.3823C80.9417 29.4056 80.9646 29.4773 80.9646 29.5417C80.9646 29.606 80.9887 29.6788 81.0182 29.7034C81.049 29.7292 81.0717 29.8075 81.0717 29.8886C81.0717 29.9803 81.0903 30.0362 81.1253 30.0497C81.1575 30.0622 81.1788 30.1164 81.1788 30.1855C81.1788 30.2488 81.2007 30.3306 81.2274 30.3674C81.2704 30.4265 81.2642 30.446 81.1739 30.5348C81.1177 30.5901 81.0717 30.652 81.0717 30.6724C81.0717 30.6929 81.0476 30.7096 81.0182 30.7096C80.9887 30.7096 80.9646 30.7339 80.9646 30.7635C80.9646 30.7932 80.9485 30.8174 80.9289 30.8174C80.9092 30.8174 80.8289 30.8821 80.7503 30.9612C80.6718 31.0402 80.6075 31.1211 80.6075 31.1408C80.6075 31.1606 80.5834 31.1768 80.5539 31.1768C80.5245 31.1768 80.5004 31.201 80.5004 31.2307C80.5004 31.2603 80.4763 31.2846 80.4468 31.2846C80.4173 31.2846 80.3932 31.3088 80.3932 31.3385C80.3932 31.3681 80.3784 31.3924 80.3603 31.3924C80.3298 31.3924 80.0361 31.667 80.0361 31.6955C80.0361 31.7025 79.9642 31.7849 79.8763 31.8785C79.7885 31.9722 79.7065 32.0806 79.6943 32.1194C79.682 32.1583 79.64 32.2222 79.601 32.2616C79.5619 32.3009 79.507 32.3882 79.479 32.4557C79.451 32.5231 79.4123 32.5783 79.3929 32.5783C79.3735 32.5783 79.3577 32.6192 79.3577 32.6693C79.3577 32.7193 79.3335 32.7696 79.3041 32.7809C79.2746 32.7923 79.2504 32.8282 79.2503 32.8607C79.2502 32.8932 79.2181 32.9682 79.1791 33.0275C79.1401 33.0868 79.108 33.1778 79.1079 33.2298C79.1078 33.2817 79.0836 33.3443 79.0541 33.3689C79.0239 33.3941 79.0006 33.4725 79.0006 33.5486C79.0006 33.6228 78.9774 33.7029 78.9492 33.7265C78.8282 33.8275 78.8283 35.7494 78.9492 35.8504C78.9789 35.8752 79.0006 35.9568 79.0006 36.0437C79.0006 36.1265 79.0242 36.2256 79.053 36.264C79.0818 36.3023 79.1059 36.3689 79.1065 36.412C79.1072 36.4551 79.1298 36.5126 79.1569 36.5398C79.184 36.567 79.2171 36.6399 79.2306 36.7016C79.2441 36.7634 79.2782 36.8332 79.3064 36.8567C79.3346 36.8803 79.3577 36.9282 79.3577 36.9631C79.3577 36.9981 79.3818 37.0361 79.4112 37.0475C79.4407 37.0588 79.4648 37.1015 79.4648 37.1423C79.4648 37.1831 79.4889 37.2257 79.5183 37.2371C79.5478 37.2485 79.5719 37.2818 79.5719 37.3112C79.5719 37.3825 79.8278 37.7138 79.8844 37.7157C79.9089 37.7166 79.929 37.7416 79.929 37.7713C79.929 37.8478 80.7293 38.649 80.8097 38.6531C80.8262 38.654 80.879 38.7025 80.9272 38.761C80.9777 38.8223 81.0495 38.8673 81.0968 38.8673C81.1419 38.8673 81.1788 38.8832 81.1788 38.9027C81.1788 38.9222 81.2311 38.9625 81.2949 38.9923C81.3587 39.0221 81.4752 39.0863 81.5538 39.135C81.6324 39.1837 81.7333 39.2242 81.7781 39.2251C81.8229 39.2259 81.8688 39.2509 81.8801 39.2805C81.892 39.3117 81.9454 39.3344 82.0065 39.3344C82.0648 39.3344 82.1365 39.3587 82.166 39.3883C82.1994 39.422 82.2871 39.4422 82.3993 39.4422C82.5486 39.4422 82.5755 39.4519 82.5575 39.4991C82.5456 39.5304 82.5358 39.5627 82.5358 39.571C82.5358 39.5792 82.5125 39.586 82.4839 39.586C82.4223 39.586 82.0066 39.9889 81.9093 40.143C81.8718 40.2023 81.8207 40.2638 81.7957 40.2796C81.7707 40.2954 81.7495 40.3277 81.7487 40.3514C81.7478 40.3752 81.6996 40.4342 81.6416 40.4827C81.5835 40.5312 81.5359 40.5991 81.5359 40.6336C81.5359 40.6681 81.4936 40.7416 81.4419 40.797C81.3902 40.8524 81.3262 40.9491 81.2996 41.012C81.2731 41.0749 81.235 41.1365 81.2151 41.1489C81.1952 41.1613 81.1788 41.2092 81.1788 41.2553C81.1788 41.3015 81.1547 41.3485 81.1253 41.3599C81.0902 41.3734 81.0717 41.4294 81.0717 41.5216C81.0717 41.6138 81.0532 41.6698 81.0182 41.6833C80.9848 41.6962 80.9646 41.751 80.9646 41.8283C80.9646 41.8967 80.9389 41.9785 80.9076 42.0101C80.8732 42.0447 80.8429 42.1563 80.8314 42.2912C80.8209 42.4142 80.7943 42.5375 80.7724 42.5652C80.7056 42.6495 80.6969 43.8664 80.762 44.0127C80.7912 44.0783 80.8236 44.2267 80.8341 44.3423C80.8445 44.458 80.8782 44.5806 80.9088 44.6147C80.9395 44.6488 80.9646 44.7366 80.9646 44.8098C80.9646 44.8949 80.9839 44.9503 81.0182 44.9635C81.0489 44.9754 81.0717 45.029 81.0717 45.0893C81.0717 45.1495 81.0946 45.2032 81.1253 45.2151C81.1547 45.2265 81.1788 45.2725 81.1788 45.3174C81.1788 45.3622 81.2029 45.4191 81.2324 45.4437C81.2619 45.4683 81.286 45.5168 81.286 45.5515C81.286 45.5862 81.3118 45.6361 81.3433 45.6624C81.3747 45.6887 81.4149 45.7433 81.4325 45.7836C81.4758 45.8833 81.5378 45.9748 81.6377 46.0865C81.6839 46.1382 81.7446 46.2249 81.7726 46.2792C81.8005 46.3336 81.8391 46.3781 81.8583 46.3781C81.8774 46.3781 81.893 46.3942 81.893 46.414C81.893 46.449 82.0444 46.6063 82.2904 46.8273C82.4221 46.9456 82.5203 47.0117 82.6162 47.0465C82.6505 47.059 82.6786 47.0916 82.6786 47.119C82.6786 47.1463 82.6923 47.1687 82.7089 47.1687C82.7255 47.1687 82.7762 47.201 82.8215 47.2405C82.8668 47.2801 82.9318 47.3124 82.966 47.3124C83.0001 47.3124 83.0374 47.3367 83.0487 47.3663C83.06 47.396 83.1023 47.4202 83.1429 47.4202C83.1834 47.4202 83.2258 47.4445 83.2371 47.4741C83.2484 47.5038 83.2861 47.528 83.3209 47.528C83.3556 47.528 83.4027 47.5506 83.4254 47.5782C83.4482 47.6058 83.5213 47.6386 83.5879 47.6512C83.6545 47.6638 83.7146 47.6907 83.7213 47.7112C83.7281 47.7316 83.8013 47.7574 83.8841 47.7686C83.9668 47.7798 84.0528 47.8111 84.0752 47.8382C84.0991 47.8672 84.1853 47.8874 84.2856 47.8874C84.393 47.8874 84.4717 47.9072 84.4998 47.9413C84.5372 47.9866 84.6863 47.9952 85.4301 47.9952C86.1699 47.9952 86.3247 47.9863 86.3695 47.9413C86.4028 47.9078 86.4905 47.8874 86.6016 47.8874C86.7127 47.8874 86.8004 47.867 86.8337 47.8335C86.8632 47.8038 86.9246 47.7795 86.9702 47.7793C87.0158 47.7792 87.1013 47.747 87.1602 47.7077C87.2191 47.6684 87.304 47.6362 87.3488 47.6361C87.3936 47.6359 87.4395 47.6116 87.4508 47.5819C87.4621 47.5523 87.5103 47.528 87.5579 47.528C87.6056 47.528 87.6538 47.5038 87.6651 47.4741C87.6764 47.4445 87.7141 47.4202 87.7489 47.4202C87.7836 47.4202 87.8321 47.396 87.8565 47.3663C87.881 47.3367 87.9196 47.3124 87.9423 47.3124C87.965 47.3124 88.011 47.2801 88.0447 47.2405C88.0783 47.201 88.1289 47.1687 88.157 47.1687C88.1852 47.1687 88.3654 47.015 88.5575 46.8273C88.7496 46.6395 88.9196 46.4859 88.9352 46.4859C88.9508 46.4859 88.9635 46.4701 88.9635 46.4509C88.9635 46.4316 89.0359 46.3431 89.1242 46.2542C89.2126 46.1652 89.2849 46.0782 89.2849 46.0607C89.2849 46.0433 89.3412 45.9549 89.4099 45.8643C89.4787 45.7737 89.5349 45.6738 89.5349 45.6424C89.5349 45.6109 89.559 45.5759 89.5885 45.5645C89.619 45.5527 89.642 45.4991 89.642 45.4398C89.642 45.3714 89.6603 45.3359 89.6956 45.3359C89.7314 45.3359 89.7492 45.2998 89.7492 45.227C89.7492 45.1641 89.7714 45.1094 89.8018 45.0977C89.8307 45.0865 89.8638 45.0183 89.8753 44.9461C89.8869 44.8739 89.9194 44.7719 89.9477 44.7194C89.976 44.667 89.9996 44.5699 90.0003 44.5038C90.0009 44.4377 90.025 44.3521 90.0538 44.3138C90.1325 44.209 90.1315 42.3471 90.0527 42.2813C90.0208 42.2546 89.9991 42.1761 89.9991 42.0872C89.9991 42.0051 89.9773 41.906 89.9506 41.867C89.924 41.828 89.8914 41.7371 89.8783 41.6649C89.8651 41.5928 89.8307 41.514 89.8018 41.4899C89.7728 41.4657 89.7492 41.4069 89.7492 41.3593C89.7492 41.3117 89.7251 41.2635 89.6956 41.2521C89.6661 41.2407 89.642 41.2094 89.642 41.1824C89.642 41.1118 89.4979 40.8438 89.4599 40.8438C89.4422 40.8438 89.4278 40.8246 89.4278 40.8011C89.4278 40.7338 89.2719 40.5209 89.2224 40.5206C89.1979 40.5205 89.1778 40.4921 89.1778 40.4575C89.1777 40.3953 89.0704 40.2593 88.7734 39.9454C88.6893 39.8564 88.6083 39.7634 88.5935 39.7387C88.572 39.7029 89.9238 39.6944 95.3088 39.6966C99.0171 39.6982 102.031 39.7076 102.006 39.7176C101.982 39.7276 101.962 39.7586 101.962 39.7866C101.962 39.8147 101.938 39.8376 101.908 39.8376C101.879 39.8376 101.855 39.8618 101.855 39.8915C101.855 39.9211 101.831 39.9454 101.801 39.9454C101.772 39.9454 101.748 39.9575 101.747 39.9723C101.747 39.9871 101.695 40.0551 101.631 40.1234C101.509 40.2541 101.442 40.3531 101.405 40.4575C101.392 40.4921 101.364 40.5203 101.341 40.5203C101.301 40.5203 101.282 40.5472 101.177 40.7567C101.148 40.8145 101.104 40.8747 101.079 40.8905C101.054 40.9063 101.033 40.9571 101.033 41.0034C101.033 41.0498 101.009 41.097 100.98 41.1084C100.95 41.1197 100.926 41.1682 100.926 41.2162C100.926 41.2641 100.902 41.3126 100.873 41.324C100.843 41.3353 100.819 41.379 100.819 41.421C100.819 41.4629 100.787 41.5384 100.748 41.5886C100.708 41.6389 100.676 41.7223 100.675 41.774C100.675 41.8257 100.65 41.8994 100.622 41.9377C100.593 41.9761 100.569 42.0697 100.569 42.1456C100.569 42.2216 100.544 42.322 100.514 42.3688C100.441 42.4814 100.45 44.224 100.525 44.2488C100.552 44.258 100.569 44.3297 100.569 44.4336C100.569 44.5273 100.593 44.6347 100.622 44.6732C100.65 44.7115 100.675 44.7755 100.675 44.8153C100.676 44.8552 100.708 44.9481 100.748 45.0218C100.787 45.0956 100.819 45.1783 100.819 45.2056C100.819 45.2329 100.843 45.2753 100.873 45.2999C100.902 45.3246 100.926 45.3836 100.926 45.4313C100.926 45.4789 100.95 45.5271 100.98 45.5385C101.009 45.5499 101.033 45.5878 101.033 45.6228C101.033 45.6578 101.058 45.7066 101.087 45.7312C101.116 45.7558 101.141 45.7974 101.141 45.8237C101.141 45.8499 101.161 45.8843 101.185 45.9001C101.233 45.9309 101.391 46.1458 101.391 46.1802C101.391 46.2185 102.128 46.953 102.166 46.953C102.187 46.953 102.213 46.9773 102.225 47.0069C102.236 47.0366 102.266 47.0612 102.291 47.0617C102.316 47.0621 102.399 47.1187 102.475 47.1875C102.55 47.2562 102.641 47.3124 102.676 47.3124C102.711 47.3124 102.749 47.3367 102.76 47.3663C102.772 47.396 102.804 47.4202 102.831 47.4202C102.859 47.4202 102.902 47.4445 102.926 47.4741C102.95 47.5038 102.999 47.528 103.033 47.528C103.068 47.528 103.116 47.5523 103.14 47.5819C103.165 47.6116 103.211 47.6358 103.243 47.6358C103.276 47.6358 103.362 47.6682 103.435 47.7077C103.509 47.7472 103.607 47.7796 103.654 47.7796C103.7 47.7796 103.759 47.8038 103.783 47.8335C103.811 47.8674 103.89 47.8874 103.995 47.8874C104.087 47.8874 104.193 47.9112 104.232 47.9402C104.335 48.0192 106.038 48.0203 106.117 47.9413C106.148 47.9098 106.235 47.8874 106.327 47.8874C106.413 47.8874 106.515 47.8636 106.553 47.8346C106.591 47.8056 106.662 47.7812 106.711 47.7805C106.76 47.7797 106.849 47.747 106.908 47.7077C106.967 47.6684 107.049 47.6362 107.091 47.6361C107.133 47.6359 107.177 47.6116 107.188 47.5819C107.2 47.5523 107.25 47.528 107.3 47.528C107.351 47.528 107.401 47.5038 107.413 47.4741C107.424 47.4445 107.462 47.4202 107.496 47.4202C107.531 47.4202 107.58 47.396 107.604 47.3663C107.628 47.3367 107.671 47.3124 107.699 47.3124C107.726 47.3124 107.758 47.2893 107.769 47.261C107.779 47.2327 107.835 47.1932 107.893 47.173C107.95 47.1529 107.997 47.1195 107.997 47.0987C107.997 47.0778 108.021 47.0609 108.05 47.0609C108.08 47.0609 108.104 47.0366 108.104 47.0069C108.104 46.9773 108.122 46.953 108.143 46.953C108.192 46.953 108.925 46.2192 108.925 46.17C108.925 46.1503 108.949 46.1249 108.979 46.1135C109.008 46.1021 109.032 46.0595 109.032 46.0187C109.032 45.9779 109.056 45.9352 109.086 45.9239C109.115 45.9125 109.139 45.8806 109.139 45.8531C109.139 45.8256 109.156 45.8031 109.177 45.8031C109.198 45.8031 109.238 45.7476 109.266 45.6797C109.294 45.6119 109.333 45.5463 109.353 45.5339C109.373 45.5215 109.389 45.4736 109.389 45.4274C109.389 45.3813 109.414 45.3343 109.443 45.3229C109.474 45.311 109.497 45.2574 109.497 45.1971C109.497 45.1368 109.519 45.0832 109.55 45.0713C109.584 45.0581 109.604 45.0028 109.604 44.9187C109.604 44.8423 109.627 44.77 109.658 44.7469C109.688 44.7244 109.722 44.6215 109.735 44.5111C109.748 44.4034 109.78 44.2741 109.806 44.2236C109.874 44.092 109.874 42.4826 109.806 42.351C109.779 42.3004 109.747 42.1892 109.733 42.1039C109.72 42.0185 109.685 41.9148 109.656 41.8734C109.627 41.832 109.604 41.7527 109.604 41.6971C109.604 41.6406 109.58 41.5871 109.55 41.5755C109.52 41.564 109.497 41.5106 109.497 41.4552C109.497 41.4005 109.472 41.3356 109.443 41.311C109.414 41.2863 109.389 41.2353 109.389 41.1976C109.389 41.1599 109.365 41.1197 109.336 41.1084C109.306 41.097 109.282 41.0569 109.282 41.0193C109.282 40.9817 109.25 40.9232 109.211 40.8893C109.172 40.8555 109.139 40.8027 109.139 40.7719C109.139 40.7412 109.091 40.6629 109.032 40.598C108.973 40.5331 108.925 40.4648 108.925 40.4462C108.925 40.4277 108.901 40.4125 108.872 40.4125C108.842 40.4125 108.818 40.3891 108.818 40.3604C108.818 40.3318 108.798 40.2954 108.773 40.2796C108.748 40.2638 108.69 40.1942 108.643 40.125C108.596 40.0559 108.48 39.9319 108.386 39.8497C108.215 39.7 108.215 39.7 108.958 39.6879C109.431 39.6802 109.718 39.6614 109.75 39.6358C109.778 39.6139 109.887 39.5861 109.992 39.5741C110.098 39.5621 110.212 39.5275 110.245 39.4973C110.278 39.467 110.339 39.4422 110.379 39.4422C110.419 39.4422 110.472 39.418 110.496 39.3883C110.521 39.3587 110.563 39.3344 110.59 39.3344C110.617 39.3344 110.639 39.3102 110.639 39.2805C110.639 39.2509 110.658 39.2266 110.681 39.2266C110.727 39.2266 110.996 38.9528 110.996 38.9055C110.996 38.8887 111.021 38.8656 111.05 38.8542C111.079 38.8429 111.104 38.7944 111.104 38.7464C111.104 38.6985 111.128 38.65 111.157 38.6386C111.19 38.626 111.211 38.5715 111.211 38.4979C111.211 38.4319 111.234 38.3465 111.263 38.3081C111.339 38.207 111.34 37.4931 111.264 37.4298C111.233 37.404 111.211 37.3256 111.211 37.2446C111.211 37.1529 111.192 37.0969 111.157 37.0834C111.128 37.072 111.104 37.0235 111.104 36.9756C111.104 36.9277 111.079 36.8792 111.05 36.8678C111.021 36.8564 110.996 36.8303 110.996 36.8098C110.996 36.7487 110.562 36.3517 110.495 36.3517C110.462 36.3517 110.414 36.3274 110.389 36.2978C110.365 36.2681 110.301 36.2439 110.246 36.2439C110.192 36.2439 110.128 36.2196 110.104 36.19C110.064 36.1422 108.537 36.1361 96.7477 36.1361C84.9482 36.1361 83.4339 36.1299 83.4156 36.0822C83.4043 36.0525 83.3623 36.0282 83.3222 36.0282C83.2044 36.0282 82.7501 35.6857 82.7501 35.597C82.7501 35.5772 82.73 35.5606 82.7054 35.5601C82.6582 35.5592 82.5358 35.3229 82.5358 35.2327C82.5358 35.2035 82.5122 35.1481 82.4834 35.1097C82.414 35.0174 82.414 34.6672 82.4834 34.5749C82.5122 34.5365 82.5358 34.4678 82.5358 34.4222C82.5358 34.3766 82.5508 34.3392 82.5691 34.3392C82.5874 34.3392 82.6138 34.3028 82.6276 34.2584C82.6415 34.2139 82.7791 34.0533 82.9335 33.9015C83.088 33.7497 83.2143 33.6083 83.2143 33.5871C83.2143 33.5659 83.2384 33.5486 83.2679 33.5486C83.2973 33.5486 83.3214 33.5243 83.3214 33.4947C83.3214 33.4651 83.3378 33.4408 83.3579 33.4408C83.4055 33.4408 83.7856 33.0582 83.7856 33.0103C83.7856 32.9901 83.8013 32.9736 83.8204 32.9736C83.8395 32.9736 83.9275 32.9008 84.0159 32.8119C84.1766 32.6502 84.1766 32.6502 97.5162 32.6502C108.81 32.6502 110.874 32.6425 110.974 32.6003C111.04 32.5729 111.159 32.5393 111.239 32.5257C111.319 32.512 111.404 32.4778 111.427 32.4497C111.45 32.4216 111.508 32.3986 111.555 32.3986C111.603 32.3986 111.651 32.3744 111.662 32.3447C111.673 32.3151 111.721 32.2908 111.769 32.2908C111.817 32.2908 111.865 32.2666 111.876 32.2369C111.888 32.2073 111.92 32.183 111.948 32.183C111.976 32.183 112.008 32.1587 112.019 32.1291C112.03 32.0995 112.063 32.0752 112.091 32.0752C112.119 32.0752 112.198 32.0186 112.266 31.9494C112.335 31.8802 112.407 31.8236 112.426 31.8236C112.445 31.8236 112.46 31.8107 112.46 31.795C112.46 31.7792 112.516 31.7104 112.584 31.6422C112.652 31.574 112.709 31.4916 112.709 31.4591C112.71 31.4266 112.735 31.3908 112.764 31.3794C112.793 31.368 112.818 31.334 112.818 31.3037C112.818 31.2734 112.84 31.2486 112.868 31.2486C112.896 31.2486 112.93 31.2001 112.943 31.1408C112.956 31.0815 112.981 31.033 112.998 31.033C113.016 31.033 113.042 30.9887 113.055 30.9346C113.069 30.8804 113.101 30.8146 113.127 30.7882C113.153 30.7619 113.175 30.7031 113.175 30.6575C113.175 30.612 113.199 30.5545 113.228 30.5299C113.258 30.5047 113.282 30.4263 113.282 30.3502C113.282 30.2741 113.305 30.1958 113.335 30.1705C113.368 30.1432 113.389 30.0645 113.389 29.9684C113.389 29.8796 113.42 29.7525 113.46 29.6768C113.5 29.6031 113.532 29.4918 113.532 29.4295C113.532 29.3672 113.556 29.27 113.585 29.2133C113.614 29.1567 113.639 29.0486 113.639 28.9731C113.639 28.8976 113.663 28.8115 113.692 28.7818C113.727 28.7474 113.746 28.6588 113.746 28.5367C113.746 28.3999 113.761 28.3396 113.8 28.3248C113.838 28.3099 113.853 28.2493 113.853 28.1097C113.853 27.9808 113.871 27.9003 113.907 27.8706C113.936 27.8459 113.96 27.7673 113.961 27.6955C113.961 27.6238 113.986 27.5166 114.017 27.4573C114.048 27.398 114.082 27.2686 114.093 27.1698C114.104 27.071 114.135 26.9582 114.162 26.9192C114.189 26.8803 114.21 26.7731 114.21 26.6811C114.21 26.5762 114.23 26.4971 114.264 26.4691C114.298 26.4408 114.317 26.3615 114.317 26.2534C114.317 26.1454 114.337 26.0661 114.371 26.0378C114.406 26.0081 114.425 25.9276 114.425 25.7987C114.425 25.6657 114.44 25.5982 114.474 25.5851C114.504 25.5738 114.534 25.4855 114.548 25.3695C114.562 25.2614 114.596 25.1291 114.623 25.0754C114.651 25.0216 114.675 24.913 114.675 24.8339C114.676 24.7549 114.7 24.6588 114.729 24.6204C114.758 24.582 114.782 24.4746 114.782 24.3817C114.782 24.2647 114.798 24.2064 114.835 24.192C114.874 24.1769 114.889 24.1145 114.889 23.9584C114.889 23.8114 114.904 23.7397 114.938 23.7266C114.968 23.7149 114.993 23.6305 115.003 23.5039C115.013 23.3917 115.039 23.2885 115.061 23.2744C115.084 23.2603 115.113 23.1696 115.126 23.0728C115.14 22.9761 115.172 22.8556 115.198 22.8053C115.224 22.7549 115.245 22.6469 115.246 22.5653C115.246 22.4776 115.268 22.3987 115.299 22.3723C115.335 22.3429 115.353 22.2627 115.353 22.1387C115.353 22.0146 115.371 21.9345 115.407 21.9051C115.442 21.8757 115.46 21.7955 115.46 21.6715C115.46 21.5475 115.478 21.4673 115.514 21.4379C115.543 21.4133 115.568 21.3345 115.568 21.2628C115.569 21.1911 115.601 21.0678 115.639 20.9887C115.677 20.9096 115.708 20.8023 115.709 20.7502C115.71 20.6981 115.734 20.6092 115.763 20.5526C115.793 20.496 115.817 20.385 115.818 20.3059C115.819 20.2268 115.843 20.1307 115.872 20.0924C115.901 20.054 115.924 19.9468 115.924 19.8542C115.924 19.7484 115.944 19.6692 115.978 19.6411C116.013 19.6117 116.031 19.5315 116.031 19.4075C116.031 19.2886 116.05 19.203 116.082 19.1765C116.11 19.1533 116.144 19.0528 116.157 18.9532C116.171 18.8536 116.204 18.7291 116.231 18.6765C116.259 18.6239 116.281 18.5135 116.281 18.4312C116.281 18.3488 116.3 18.2754 116.322 18.268C116.344 18.2605 116.37 18.1662 116.38 18.0583C116.39 17.9504 116.42 17.8303 116.447 17.7913C116.474 17.7523 116.496 17.6451 116.496 17.5531C116.496 17.4483 116.516 17.3691 116.549 17.3411C116.583 17.3128 116.603 17.2335 116.603 17.1255C116.603 17.0208 116.623 16.938 116.654 16.9117C116.682 16.8882 116.717 16.777 116.73 16.6648C116.744 16.5525 116.772 16.45 116.792 16.437C116.812 16.424 116.836 16.3195 116.846 16.2047C116.855 16.09 116.885 15.9742 116.911 15.9473C116.939 15.9197 116.96 15.8234 116.96 15.7258C116.96 15.6161 116.979 15.5368 117.013 15.5083C117.049 15.4789 117.067 15.3987 117.067 15.2742C117.067 15.139 117.082 15.0788 117.121 15.0641C117.158 15.0497 117.174 14.9911 117.174 14.8706C117.174 14.7729 117.198 14.6633 117.229 14.6185C117.26 14.5749 117.294 14.454 117.306 14.3499C117.318 14.2459 117.349 14.1288 117.376 14.0898C117.402 14.0508 117.424 13.9486 117.424 13.8626C117.424 13.7716 117.447 13.6839 117.478 13.6524C117.51 13.6195 117.531 13.5314 117.531 13.4258C117.531 13.3161 117.551 13.2368 117.585 13.2084C117.62 13.179 117.638 13.0988 117.638 12.9742C117.638 12.8476 117.654 12.7786 117.687 12.7661C117.716 12.7549 117.745 12.6623 117.76 12.5376C117.773 12.4223 117.808 12.2965 117.836 12.2582C117.865 12.2198 117.889 12.1228 117.89 12.0425C117.89 11.9623 117.914 11.8653 117.943 11.8269C118.02 11.725 118.019 10.8291 117.942 10.7518C117.912 10.7222 117.889 10.6765 117.889 10.6504C117.89 10.5668 117.729 10.2644 117.683 10.263C117.658 10.2622 117.638 10.245 117.638 10.2248C117.638 10.1757 117.239 9.79437 117.188 9.79437C117.165 9.79437 117.127 9.77011 117.103 9.74047C117.078 9.71082 117.014 9.68656 116.96 9.68656C116.906 9.68656 116.842 9.6623 116.817 9.63266C116.75 9.55112 111.956 9.55112 111.889 9.63266C111.865 9.6623 111.8 9.68656 111.746 9.68656C111.692 9.68656 111.628 9.71082 111.603 9.74047C111.579 9.77011 111.52 9.79437 111.473 9.79437C111.426 9.79437 111.378 9.81802 111.367 9.84691C111.356 9.87581 111.314 9.90998 111.274 9.92285C111.233 9.93571 111.155 9.99292 111.1 10.05C111.044 10.1071 110.986 10.1549 110.971 10.1563C110.955 10.1578 110.879 10.2374 110.8 10.3334C110.721 10.4294 110.637 10.5091 110.613 10.5105C110.588 10.512 110.568 10.5374 110.568 10.567C110.568 10.5967 110.544 10.6209 110.514 10.6209C110.485 10.6209 110.461 10.6356 110.461 10.6535C110.461 10.6714 108.745 12.4146 106.649 14.5272C104.552 16.6398 102.797 18.4221 102.747 18.4879C102.698 18.5537 102.63 18.6335 102.596 18.6651C102.561 18.6968 102.533 18.7433 102.533 18.7686C102.533 18.7938 102.518 18.8145 102.499 18.8145C102.453 18.8145 102.069 19.2 102.069 19.2458C102.069 19.2655 102.045 19.2817 102.015 19.2817C101.986 19.2817 101.962 19.3059 101.962 19.3356C101.962 19.3652 101.938 19.3895 101.908 19.3895C101.879 19.3895 101.854 19.4097 101.854 19.4344C101.853 19.4591 101.797 19.5198 101.729 19.5692C101.657 19.6217 101.592 19.7086 101.572 19.7784C101.531 19.9227 101.469 19.992 100.373 21.1324C99.8974 21.6266 99.3978 22.1516 99.2622 22.2992C99.1267 22.4468 98.7644 22.8268 98.4572 23.1437C98.1499 23.4606 97.8033 23.821 97.6868 23.9445C97.5703 24.068 97.4477 24.1691 97.4143 24.1691C97.3015 24.1691 97.3435 27.0578 97.4564 27.0739C97.5359 27.0852 97.6767 26.9941 97.6767 26.9313C97.6767 26.915 97.7301 26.8462 97.7954 26.7786C97.8607 26.7109 98.0174 26.5386 98.1436 26.3957C98.2698 26.2527 98.4252 26.0811 98.4891 26.0143C98.5529 25.9474 98.6052 25.8769 98.6052 25.8575C98.6052 25.8381 98.6293 25.8222 98.6587 25.8222C98.6882 25.8222 98.7123 25.8082 98.7123 25.7911C98.7123 25.7741 99.126 25.3394 99.6318 24.8252C100.138 24.311 100.624 23.8107 100.712 23.7135C100.933 23.4697 101.187 23.2707 101.276 23.2707C101.316 23.2707 101.374 23.2464 101.403 23.2168C101.441 23.1785 101.534 23.1629 101.723 23.1629C101.916 23.1629 102.001 23.1777 102.033 23.2168C102.058 23.2464 102.123 23.2707 102.179 23.2707C102.234 23.2707 102.293 23.2909 102.308 23.3157C102.324 23.3405 102.405 23.4073 102.489 23.4643C102.578 23.5251 102.64 23.5961 102.64 23.636C102.64 23.6735 102.664 23.7135 102.694 23.7248C102.723 23.7362 102.747 23.7812 102.747 23.8247C102.747 23.8682 102.771 23.9352 102.8 23.9736C102.871 24.0688 102.871 24.521 102.8 24.6162C102.771 24.6546 102.747 24.7139 102.747 24.748C102.747 24.889 102.585 25.0853 101.837 25.8459C101.405 26.2853 100.891 26.8176 100.694 27.0286C100.498 27.2396 99.9795 27.7742 99.5425 28.2166C99.1056 28.6589 98.748 29.037 98.748 29.0566C98.748 29.0763 98.7323 29.0924 98.7131 29.0924C98.6632 29.0924 98.2838 29.4688 98.2838 29.5183C98.2838 29.541 98.2597 29.5596 98.2302 29.5596C98.2007 29.5596 98.1766 29.5839 98.1766 29.6135C98.1766 29.6432 98.1606 29.6674 98.1409 29.6674C98.0955 29.6674 97.7124 30.0543 97.7124 30.1003C97.7124 30.1192 97.6883 30.1346 97.6588 30.1346C97.6294 30.1346 97.6053 30.1589 97.6053 30.1885C97.6053 30.2182 97.582 30.2424 97.5535 30.2424C97.525 30.2424 97.4889 30.2628 97.4732 30.2877C97.4574 30.3126 97.3519 30.3794 97.2385 30.4361C97.1251 30.4929 97.0237 30.5533 97.0132 30.5705C97.0026 30.5877 96.9498 30.6018 96.8958 30.6018C96.8418 30.6018 96.7664 30.6255 96.7283 30.6545C96.6276 30.7312 95.8829 30.7322 95.8198 30.6557C95.7953 30.626 95.7211 30.6018 95.6547 30.6018C95.5817 30.6018 95.5059 30.5734 95.4627 30.5299C95.4234 30.4904 95.3609 30.458 95.3237 30.458C95.2865 30.458 95.2468 30.4338 95.2355 30.4041C95.2242 30.3745 95.1904 30.3502 95.1603 30.3502C95.1302 30.3502 95.1056 30.3344 95.1056 30.315C95.1056 30.2956 95.0654 30.2696 95.0163 30.2572C94.9672 30.2448 94.9271 30.2121 94.9271 30.1846C94.9271 30.1571 94.9129 30.1346 94.8956 30.1346C94.8782 30.1346 94.7979 30.068 94.717 29.9866C94.6361 29.9053 94.57 29.8244 94.57 29.8069C94.57 29.7895 94.5459 29.7752 94.5164 29.7752C94.4869 29.7752 94.4628 29.751 94.4628 29.7213C94.4628 29.6917 94.4485 29.6674 94.431 29.6674C94.4135 29.6674 94.052 29.318 93.6275 28.8909C93.2031 28.4638 92.8559 28.0999 92.8559 28.0823C92.8559 28.0647 92.8318 28.0503 92.8023 28.0503C92.7729 28.0503 92.7488 28.026 92.7488 27.9964C92.7488 27.9667 92.7346 27.9425 92.7173 27.9425C92.6762 27.9425 92.3917 27.6561 92.3917 27.6148C92.3917 27.5974 92.3676 27.5831 92.3381 27.5831C92.3086 27.5831 92.2845 27.5588 92.2845 27.5292C92.2845 27.4995 92.2604 27.4753 92.231 27.4753C92.2015 27.4753 92.1774 27.4597 92.1774 27.4407C92.1774 27.3968 91.8971 27.1159 91.8532 27.1159C91.8351 27.1159 91.8203 27.0917 91.8203 27.062C91.8203 27.0324 91.7962 27.0081 91.7668 27.0081C91.7373 27.0081 91.7132 26.9838 91.7132 26.9542C91.7132 26.9246 91.6891 26.9003 91.6596 26.9003C91.6302 26.9003 91.6061 26.8854 91.6061 26.8672C91.6061 26.8231 91.327 26.5409 91.2833 26.5409C91.2644 26.5409 91.249 26.5167 91.249 26.487C91.249 26.4574 91.2249 26.4331 91.1954 26.4331C91.1659 26.4331 91.1418 26.4161 91.1418 26.3953C91.1418 26.3745 90.8888 26.1024 90.5794 25.7906C90.2701 25.4788 89.9706 25.1563 89.9139 25.0738C89.8573 24.9913 89.797 24.9238 89.78 24.9238C89.7631 24.9238 89.7492 24.8748 89.7492 24.8148C89.7492 24.7512 89.7269 24.6973 89.6956 24.6852C89.6185 24.6554 89.6185 24.0897 89.6956 24.0254C89.7251 24.0007 89.7492 23.9395 89.7492 23.8892C89.7492 23.7931 89.761 23.7765 90.0064 23.5296C90.2521 23.2823 90.2682 23.2707 90.3656 23.2707C90.4166 23.2707 90.4824 23.2464 90.5118 23.2168C90.5868 23.1413 91.0439 23.1413 91.1061 23.2168C91.1306 23.2464 91.1915 23.2707 91.2414 23.2707C91.2914 23.2707 91.3577 23.2944 91.3888 23.3235C91.6805 23.5957 92.7845 24.722 92.7845 24.7473C92.7845 24.7653 92.8086 24.78 92.838 24.78C92.8675 24.78 92.8916 24.8043 92.8916 24.8339C92.8916 24.8636 92.9157 24.8878 92.9452 24.8878C92.9746 24.8878 92.9987 24.904 92.9987 24.9238C92.9987 24.9435 93.063 25.0244 93.1416 25.1035C93.2201 25.1825 93.3005 25.2472 93.3201 25.2472C93.3398 25.2472 93.3558 25.2715 93.3558 25.3011C93.3558 25.3308 93.3799 25.355 93.4094 25.355C93.4389 25.355 93.463 25.3711 93.463 25.3908C93.463 25.4104 93.5413 25.5071 93.6372 25.6056C93.733 25.7041 93.8897 25.8769 93.9854 25.9896C94.1651 26.2013 94.5154 26.5617 94.6979 26.7226C94.7552 26.7732 94.8551 26.8756 94.9198 26.9504C95.1329 27.1964 95.1405 27.1668 95.1479 26.0659C95.1556 24.9018 95.1546 24.8812 95.0869 24.83C95.0579 24.808 95.0342 24.7717 95.0342 24.7491C95.0342 24.7266 95.0199 24.7081 95.0023 24.7081C94.9848 24.7081 94.7717 24.51 94.5286 24.2679C94.2855 24.0258 93.8458 23.6013 93.5516 23.3247C93.2573 23.048 93.0037 22.8013 92.988 22.7766C92.9723 22.7519 92.9362 22.7316 92.9077 22.7316C92.8792 22.7316 92.8559 22.7165 92.8559 22.6979C92.8559 22.6543 92.3609 22.1566 92.3175 22.1566C92.2994 22.1566 92.2845 22.1324 92.2845 22.1027C92.2845 22.0731 92.2604 22.0488 92.231 22.0488C92.2015 22.0488 92.1774 22.0346 92.1774 22.0171C92.1774 21.9758 91.8929 21.6895 91.8518 21.6895C91.8345 21.6895 91.8203 21.6652 91.8203 21.6356C91.8203 21.6059 91.7962 21.5816 91.7668 21.5816C91.7373 21.5816 91.7132 21.5574 91.7132 21.5277C91.7132 21.4981 91.699 21.4738 91.6817 21.4738C91.6643 21.4738 91.584 21.4072 91.5031 21.3258C91.4223 21.2445 91.3561 21.1636 91.3561 21.1462C91.3561 21.1287 91.332 21.1145 91.3025 21.1145C91.2731 21.1145 91.249 21.0902 91.249 21.0606C91.249 21.0309 91.2249 21.0067 91.1954 21.0067C91.1659 21.0067 91.1418 20.9824 91.1418 20.9528C91.1418 20.9231 91.1218 20.8984 91.0972 20.8978C91.0727 20.8973 91.0124 20.8412 90.9633 20.7731C90.9142 20.705 90.8539 20.6488 90.8294 20.6483C90.8048 20.6477 90.7847 20.623 90.7847 20.5934C90.7847 20.5637 90.7606 20.5395 90.7312 20.5395C90.7017 20.5395 90.6776 20.5152 90.6776 20.4856C90.6776 20.4559 90.6535 20.4317 90.624 20.4317C90.5946 20.4317 90.5705 20.4174 90.5705 20.4C90.5705 20.3825 90.5043 20.3016 90.4234 20.2203C90.3426 20.1389 90.2622 20.0723 90.2449 20.0723C90.2276 20.0723 90.2134 20.048 90.2134 20.0184C90.2134 19.9887 90.1893 19.9645 90.1598 19.9645C90.1304 19.9645 90.1063 19.9402 90.1063 19.9106C90.1063 19.8809 90.0822 19.8567 90.0527 19.8567C90.0232 19.8567 89.9987 19.8365 89.9981 19.8118C89.9976 19.7871 89.9418 19.7264 89.8741 19.677C89.8065 19.6276 89.7507 19.567 89.7502 19.5422C89.7496 19.5175 89.7251 19.4973 89.6956 19.4973C89.6661 19.4973 89.642 19.4731 89.642 19.4434C89.642 19.4138 89.6179 19.3895 89.5885 19.3895C89.559 19.3895 89.5349 19.3652 89.5349 19.3356C89.5349 19.3059 89.5148 19.2813 89.4903 19.2807C89.4657 19.2801 89.4055 19.224 89.3564 19.1559C89.3073 19.0878 89.247 19.0317 89.2224 19.0311C89.1979 19.0306 89.1778 19.0059 89.1778 18.9762C89.1778 18.9466 89.1622 18.9223 89.143 18.9223C89.1239 18.9223 89.0846 18.8779 89.0558 18.8235C89.0059 18.7293 88.8867 18.5754 88.7683 18.4521C88.7382 18.4208 88.7136 18.3677 88.7136 18.3342C88.7136 18.3007 88.6895 18.2639 88.66 18.2525C88.6306 18.2411 88.6065 18.2088 88.6065 18.1807C88.6065 18.1525 88.5823 18.1201 88.5529 18.1088C88.5234 18.0974 88.4993 18.0514 88.4993 18.0065C88.4993 17.9616 88.4752 17.9048 88.4458 17.8802C88.4163 17.8555 88.3922 17.79 88.3922 17.7346C88.3922 17.6791 88.3708 17.6121 88.3446 17.5858C88.3183 17.5594 88.2855 17.4658 88.2715 17.3777C88.2575 17.2896 88.2275 17.2059 88.2049 17.1919C88.1817 17.1775 88.1547 17.028 88.1432 16.8494C88.1318 16.6751 88.1029 16.4972 88.0788 16.454C88.0453 16.3939 88.0351 15.6944 88.0351 13.4611C88.0351 10.9038 88.0285 10.5443 87.9815 10.5261C87.9521 10.5147 87.928 10.4644 87.928 10.4142C87.928 10.3025 87.428 9.79437 87.318 9.79437C87.2791 9.79437 87.238 9.77011 87.2267 9.74047C87.2154 9.71082 87.1665 9.68656 87.1181 9.68656C87.0697 9.68656 87.006 9.6623 86.9766 9.63266C86.9296 9.58533 86.4015 9.57875 82.6583 9.57875C78.3935 9.57875 78.3935 9.57875 78.3935 9.46983C78.3935 9.40615 78.3712 9.35228 78.3399 9.3402C78.3072 9.32755 78.2864 9.27307 78.2864 9.20012C78.2864 9.1345 78.2623 9.05652 78.2328 9.02687C78.2033 8.99722 78.1792 8.93448 78.1792 8.88743C78.1792 8.84036 78.1556 8.7705 78.1268 8.73212C78.098 8.69377 78.0739 8.62977 78.0732 8.58995C78.0726 8.55013 78.04 8.4572 78.0007 8.38346C77.9614 8.30968 77.9293 8.21642 77.9293 8.17621C77.9293 8.136 77.9052 8.09377 77.8757 8.08241C77.8412 8.06908 77.8221 8.01352 77.8221 7.9262C77.8221 7.84962 77.7989 7.77127 77.7686 7.74597C77.7391 7.72136 77.715 7.64858 77.715 7.58426C77.715 7.51993 77.6909 7.44716 77.6614 7.42254C77.632 7.39793 77.6079 7.33435 77.6079 7.28128C77.6079 7.22816 77.5843 7.15334 77.5555 7.11496C77.5266 7.07661 77.5025 7.0207 77.5019 6.99076C77.5013 6.96083 77.4686 6.87598 77.4293 6.80224C77.3901 6.72846 77.3579 6.6213 77.3579 6.56405C77.3579 6.50464 77.3349 6.45106 77.3043 6.43924C77.2693 6.42573 77.2508 6.36974 77.2508 6.27752C77.2508 6.18535 77.2322 6.12936 77.1972 6.11581C77.1639 6.10294 77.1437 6.04818 77.1437 5.9708C77.1437 5.90242 77.1196 5.8222 77.0901 5.79256C77.0606 5.76291 77.0365 5.70897 77.0365 5.67267C77.0365 5.63638 77.0044 5.54632 76.9651 5.47258C76.9258 5.3988 76.8937 5.31363 76.8937 5.2833C76.8937 5.25297 76.8696 5.21883 76.8401 5.20747C76.8107 5.19608 76.7866 5.14756 76.7866 5.09966C76.7866 5.05172 76.7625 5.0032 76.733 4.99185C76.7035 4.98046 76.6794 4.94053 76.6794 4.90312C76.6794 4.86571 76.6553 4.83509 76.6259 4.83509C76.5928 4.83509 76.5723 4.80135 76.5723 4.74705C76.5723 4.6986 76.5522 4.64606 76.5277 4.63025C76.4743 4.5959 76.3447 4.41118 76.3121 4.32299C76.2993 4.28839 76.2723 4.2601 76.252 4.2601C76.2318 4.2601 76.2152 4.23585 76.2152 4.2062C76.2152 4.17655 76.1911 4.15229 76.1616 4.15229C76.1322 4.15229 76.1081 4.13612 76.1081 4.11636C76.1081 4.07966 75.8379 3.79292 75.8033 3.79292C75.7929 3.79292 75.7372 3.74441 75.6796 3.68511C75.622 3.62582 75.5607 3.5773 75.5434 3.5773C75.5261 3.5773 75.4781 3.54902 75.4368 3.51441C75.2561 3.3633 75.1972 3.32575 75.1405 3.32575C75.1073 3.32575 75.0709 3.30149 75.0596 3.27184C75.0483 3.24219 75.0001 3.21794 74.9524 3.21794C74.9048 3.21794 74.8566 3.19368 74.8453 3.16403C74.8335 3.13312 74.7802 3.11013 74.7203 3.11013C74.6604 3.11013 74.6071 3.08713 74.5953 3.05622C74.584 3.02628 74.5307 3.00221 74.4755 3.0021C74.4209 3.00196 74.3279 2.97615 74.269 2.94471C74.2101 2.91326 74.0655 2.8793 73.9476 2.86924C73.8298 2.85918 73.6645 2.82838 73.5804 2.80085C73.3556 2.72725 66.8748 2.72618 66.769 2.7997ZM84.984 41.8332C84.9459 41.8622 84.8765 41.8859 84.8297 41.8859C84.7829 41.8859 84.7206 41.9102 84.6911 41.9399C84.6617 41.9695 84.6083 41.9938 84.5725 41.9938C84.5368 41.9938 84.4982 42.018 84.4869 42.0477C84.4756 42.0773 84.4418 42.1016 84.4117 42.1016C84.3816 42.1016 84.357 42.1258 84.357 42.1555C84.357 42.1851 84.3329 42.2094 84.3034 42.2094C84.274 42.2094 84.2499 42.2328 84.2499 42.2615C84.2499 42.2902 84.2298 42.3265 84.2052 42.3423C83.9794 42.4877 83.7679 43.7732 83.9504 43.8908C83.9724 43.9048 84.0026 43.9561 84.0177 44.0045C84.0327 44.053 84.067 44.1148 84.0939 44.1419C84.1207 44.1689 84.1427 44.2222 84.1427 44.2603C84.1427 44.2985 84.1668 44.3297 84.1963 44.3297C84.2258 44.3297 84.2499 44.3458 84.2499 44.3656C84.2499 44.4157 84.3799 44.5413 84.4745 44.5826C84.5934 44.6344 84.6929 44.7017 84.7248 44.7519C84.7405 44.7766 84.8138 44.7968 84.8876 44.7968C84.9614 44.7968 85.053 44.8206 85.0912 44.8496C85.1906 44.9253 85.7946 44.9262 85.8568 44.8507C85.8813 44.8211 85.9538 44.7968 86.018 44.7968C86.0889 44.7968 86.1429 44.7756 86.1554 44.7429C86.1667 44.7133 86.2046 44.6888 86.2396 44.6884C86.3174 44.6877 86.821 44.1837 86.821 44.1064C86.821 44.0759 86.8451 44.0308 86.8745 44.0062C86.904 43.9816 86.9281 43.9161 86.9281 43.8606C86.9281 43.8052 86.9522 43.7355 86.9817 43.7059C87.0562 43.6309 87.0553 43.0477 86.9805 42.9482C86.9517 42.9098 86.9281 42.835 86.9281 42.7819C86.9281 42.7288 86.904 42.6652 86.8745 42.6406C86.8451 42.616 86.821 42.5722 86.821 42.5432C86.821 42.398 86.2368 41.9245 85.9907 41.8703C85.9367 41.8584 85.8925 41.8328 85.8925 41.8134C85.8925 41.753 85.0657 41.771 84.984 41.8332ZM104.731 41.8332C104.693 41.8622 104.619 41.8859 104.566 41.8859C104.513 41.8859 104.46 41.9102 104.449 41.9399C104.437 41.9695 104.405 41.9938 104.377 41.9938C104.349 41.9938 104.317 42.018 104.306 42.0477C104.294 42.0773 104.252 42.1016 104.212 42.1016C104.171 42.1016 104.129 42.1258 104.117 42.1555C104.106 42.1851 104.074 42.2094 104.047 42.2094C104.02 42.2094 103.997 42.2328 103.997 42.2615C103.997 42.2902 103.977 42.3265 103.952 42.3423C103.927 42.3582 103.887 42.4155 103.863 42.4699C103.84 42.5243 103.804 42.5687 103.784 42.5687C103.764 42.5687 103.747 42.6084 103.747 42.6568C103.747 42.7052 103.722 42.759 103.692 42.7762C103.61 42.8223 103.61 43.8236 103.692 43.8839C103.723 43.9061 103.747 43.9581 103.747 43.9994C103.747 44.0407 103.768 44.0874 103.793 44.1032C103.818 44.1191 103.858 44.1765 103.881 44.2308C103.905 44.2852 103.941 44.3297 103.961 44.3297C103.981 44.3297 103.997 44.3458 103.997 44.3656C103.997 44.4141 104.103 44.517 104.212 44.5737C104.372 44.6571 104.467 44.716 104.507 44.7567C104.529 44.7788 104.59 44.7968 104.643 44.7968C104.695 44.7968 104.758 44.8211 104.783 44.8507C104.845 44.9265 105.484 44.9256 105.584 44.8496C105.622 44.8206 105.706 44.7968 105.769 44.7968C105.833 44.7968 105.906 44.7752 105.933 44.7487C105.959 44.7222 105.996 44.6937 106.016 44.6852C106.118 44.6405 106.318 44.4979 106.318 44.4698C106.318 44.4521 106.343 44.4375 106.372 44.4375C106.401 44.4375 106.426 44.414 106.426 44.3854C106.426 44.3567 106.473 44.2631 106.53 44.1774C106.588 44.0916 106.646 43.9736 106.66 43.915C106.675 43.8565 106.708 43.7767 106.734 43.7377C106.801 43.6398 106.8 43.0417 106.734 42.9451C106.707 42.9061 106.673 42.8216 106.659 42.7574C106.645 42.6932 106.621 42.6406 106.605 42.6406C106.589 42.6406 106.567 42.6027 106.555 42.5563C106.533 42.4673 106.1 41.9938 106.04 41.9938C106.021 41.9938 105.986 41.9695 105.961 41.9399C105.937 41.9102 105.872 41.8859 105.817 41.8859C105.762 41.8859 105.692 41.8617 105.663 41.832C105.587 41.7557 104.832 41.7566 104.731 41.8332Z" fill="white"/>
<path d="M8.82272 69.7908C7.20488 69.7908 5.79552 69.4739 4.59465 68.8401C3.39377 68.1897 2.4681 67.2807 1.81763 66.1132C1.16716 64.929 0.841919 63.5363 0.841919 61.9351C0.841919 60.334 1.15882 58.958 1.79261 57.8071C2.4264 56.6396 3.32706 55.7473 4.49457 55.1302C5.67877 54.4964 7.07145 54.1795 8.67261 54.1795C10.2404 54.1795 11.5831 54.4797 12.7005 55.0801C13.8347 55.6806 14.702 56.5395 15.3024 57.657C15.9029 58.7745 16.2031 60.1088 16.2031 61.6599V63.0609H4.81981C4.9866 64.1784 5.41191 65.029 6.09574 65.6128C6.77957 66.1966 7.68022 66.4884 8.7977 66.4884C9.68167 66.4884 10.3822 66.3383 10.8992 66.0381C11.4163 65.7379 11.7832 65.2792 12 64.6621H16.153C15.8195 66.2633 15.0105 67.5225 13.7263 68.4398C12.442 69.3405 10.8075 69.7908 8.82272 69.7908ZM4.91988 60.3089H12.2252C12.0918 59.3583 11.7248 58.6494 11.1244 58.1824C10.524 57.6987 9.71503 57.4569 8.69763 57.4569C7.68022 57.4569 6.84628 57.6987 6.19581 58.1824C5.56202 58.6661 5.13671 59.3749 4.91988 60.3089Z" fill="white"/>
<path d="M26.6028 69.7908C25.035 69.7908 23.659 69.4739 22.4748 68.8401C21.3073 68.1897 20.39 67.2807 19.7228 66.1132C19.0724 64.9456 18.7471 63.5696 18.7471 61.9852C18.7471 60.4007 19.0724 59.0247 19.7228 57.8572C20.3733 56.6896 21.2906 55.789 22.4748 55.1552C23.659 54.5047 25.035 54.1795 26.6028 54.1795C28.5876 54.1795 30.2221 54.6799 31.5064 55.6806C32.7907 56.6813 33.5996 58.0573 33.9332 59.8086H29.7551C29.5383 59.1581 29.163 58.6577 28.6293 58.3075C28.0956 57.9572 27.4201 57.7821 26.6028 57.7821C25.4853 57.7821 24.5847 58.149 23.9009 58.8829C23.2337 59.6168 22.9001 60.6509 22.9001 61.9852C22.9001 63.3195 23.242 64.3535 23.9259 65.0874C24.6097 65.8213 25.502 66.1882 26.6028 66.1882C28.3708 66.1882 29.4466 65.4377 29.8302 63.9366H34.0082C33.708 65.7712 32.9157 67.2056 31.6315 68.2397C30.3472 69.2738 28.671 69.7908 26.6028 69.7908Z" fill="white"/>
<path d="M44.0002 69.7908C42.3657 69.7908 40.9397 69.4739 39.7221 68.8401C38.5212 68.1897 37.5872 67.2807 36.9201 66.1132C36.2529 64.9456 35.9194 63.5613 35.9194 61.9601C35.9194 60.3757 36.2446 58.9997 36.8951 57.8321C37.5622 56.6646 38.5046 55.764 39.7221 55.1302C40.9397 54.4964 42.3741 54.1795 44.0252 54.1795C45.6598 54.1795 47.0775 54.4964 48.2783 55.1302C49.4792 55.764 50.4049 56.6646 51.0554 57.8321C51.7058 58.9997 52.0311 60.384 52.0311 61.9852C52.0311 63.5696 51.7058 64.954 51.0554 66.1382C50.4049 67.3057 49.4709 68.2063 48.2533 68.8401C47.0524 69.4739 45.6347 69.7908 44.0002 69.7908ZM44.0002 66.1882C45.2511 66.1882 46.2102 65.8129 46.8773 65.0624C47.5445 64.2952 47.878 63.2611 47.878 61.9601C47.878 60.6592 47.5445 59.6418 46.8773 58.9079C46.2102 58.1574 45.2511 57.7821 44.0002 57.7821C42.7326 57.7821 41.7569 58.1574 41.0731 58.9079C40.406 59.6418 40.0724 60.6592 40.0724 61.9601C40.0724 63.2611 40.406 64.2952 41.0731 65.0624C41.7569 65.8129 42.7326 66.1882 44.0002 66.1882Z" fill="white"/>
<path d="M56.4882 69.4906V58.5827H54.4367V54.4797H58.6398V56.9315H59.6905C60.2743 56.0642 61.0082 55.397 61.8921 54.93C62.7761 54.4464 63.8769 54.2045 65.1945 54.2045C67.2794 54.2045 68.8889 54.7799 70.023 55.9308C71.1739 57.0649 71.7493 58.591 71.7493 60.5091V69.4906H67.5963V61.2847C67.5963 60.1839 67.2961 59.3499 66.6956 58.7828C66.1119 58.1991 65.2529 57.9072 64.1188 57.9072C62.9846 57.9072 62.1173 58.1991 61.5169 58.7828C60.9331 59.3499 60.6412 60.1839 60.6412 61.2847V69.4906H56.4882Z" fill="white"/>
<path d="M83.0943 69.7908C81.4597 69.7908 80.0337 69.4739 78.8161 68.8401C77.6153 68.1897 76.6813 67.2807 76.0141 66.1132C75.347 64.9456 75.0134 63.5613 75.0134 61.9601C75.0134 60.3757 75.3386 58.9997 75.9891 57.8321C76.6562 56.6646 77.5986 55.764 78.8161 55.1302C80.0337 54.4964 81.4681 54.1795 83.1193 54.1795C84.7538 54.1795 86.1715 54.4964 87.3724 55.1302C88.5732 55.764 89.4989 56.6646 90.1494 57.8321C90.7999 58.9997 91.1251 60.384 91.1251 61.9852C91.1251 63.5696 90.7999 64.954 90.1494 66.1382C89.4989 67.3057 88.5649 68.2063 87.3473 68.8401C86.1465 69.4739 84.7288 69.7908 83.0943 69.7908ZM83.0943 66.1882C84.3452 66.1882 85.3042 65.8129 85.9714 65.0624C86.6385 64.2952 86.9721 63.2611 86.9721 61.9601C86.9721 60.6592 86.6385 59.6418 85.9714 58.9079C85.3042 58.1574 84.3452 57.7821 83.0943 57.7821C81.8267 57.7821 80.851 58.1574 80.1671 58.9079C79.5 59.6418 79.1664 60.6592 79.1664 61.9601C79.1664 63.2611 79.5 64.2952 80.1671 65.0624C80.851 65.8129 81.8267 66.1882 83.0943 66.1882Z" fill="white"/>
<path d="M95.5822 69.4906V58.5827H93.5307V54.4797H97.7338V56.9315H98.8346C99.3683 56.0642 100.06 55.397 100.911 54.93C101.762 54.4464 102.812 54.2045 104.063 54.2045C105.264 54.2045 106.29 54.4213 107.141 54.855C108.008 55.272 108.7 55.8974 109.217 56.7313H109.317C110.468 55.0468 112.178 54.2045 114.446 54.2045C116.381 54.2045 117.915 54.7716 119.049 55.9057C120.183 57.0232 120.751 58.541 120.751 60.4591V69.4906H116.598V61.2596C116.598 59.0247 115.538 57.9072 113.42 57.9072C111.302 57.9072 110.243 59.0247 110.243 61.2596V69.4906H106.09V61.2596C106.09 59.0247 105.014 57.9072 102.863 57.9072C101.828 57.9072 101.045 58.1824 100.511 58.7328C99.9938 59.2832 99.7353 60.1255 99.7353 61.2596V69.4906H95.5822Z" fill="white"/>
<path d="M124.918 69.4906V54.4797H129.071V69.4906H124.918ZM126.994 53.0036C126.36 53.0036 125.818 52.7868 125.368 52.3532C124.934 51.9028 124.717 51.3608 124.717 50.727C124.717 50.0932 124.934 49.5595 125.368 49.1258C125.818 48.6755 126.36 48.4503 126.994 48.4503C127.628 48.4503 128.162 48.6755 128.595 49.1258C129.046 49.5595 129.271 50.0932 129.271 50.727C129.271 51.3608 129.046 51.9028 128.595 52.3532C128.162 52.7868 127.628 53.0036 126.994 53.0036Z" fill="white"/>
<path d="M132.436 69.4906V66.9888L140.242 57.7821H132.886V54.4797H145.495V56.9815L137.69 66.1882H145.646V69.4906H132.436Z" fill="white"/>
<path d="M153.809 69.7658C152.041 69.7658 150.656 69.3405 149.656 68.4899C148.655 67.6226 148.154 66.4884 148.154 65.0874C148.154 63.603 148.671 62.4605 149.706 61.6599C150.74 60.8593 152.224 60.4591 154.159 60.4591H158.462V59.8836C158.462 58.2658 157.495 57.4569 155.56 57.4569C153.875 57.4569 152.858 58.0406 152.508 59.2081H148.38C148.713 57.5569 149.489 56.306 150.706 55.4554C151.924 54.6048 153.542 54.1795 155.56 54.1795C157.795 54.1795 159.496 54.6799 160.664 55.6806C161.848 56.6813 162.44 58.1407 162.44 60.0588V65.3876H164.391V69.4906H160.188V67.0388H159.137C158.62 67.9061 157.928 68.5816 157.061 69.0653C156.194 69.5323 155.109 69.7658 153.809 69.7658ZM154.434 66.6135C155.218 66.6135 155.91 66.4718 156.51 66.1882C157.111 65.9047 157.586 65.5294 157.937 65.0624C158.287 64.5787 158.462 64.0367 158.462 63.4362V63.2111H154.359C152.858 63.2111 152.107 63.7698 152.107 64.8873C152.107 65.4377 152.316 65.863 152.733 66.1632C153.15 66.4634 153.717 66.6135 154.434 66.6135Z" fill="white"/>
<path d="M174.778 69.7908C173.16 69.7908 171.75 69.4739 170.55 68.8401C169.349 68.1897 168.423 67.2807 167.773 66.1132C167.122 64.929 166.797 63.5363 166.797 61.9351C166.797 60.334 167.114 58.958 167.748 57.8071C168.381 56.6396 169.282 55.7473 170.45 55.1302C171.634 54.4964 173.026 54.1795 174.628 54.1795C176.195 54.1795 177.538 54.4797 178.655 55.0801C179.79 55.6806 180.657 56.5395 181.257 57.657C181.858 58.7745 182.158 60.1088 182.158 61.6599V63.0609H170.775C170.942 64.1784 171.367 65.029 172.051 65.6128C172.735 66.1966 173.635 66.4884 174.753 66.4884C175.637 66.4884 176.337 66.3383 176.854 66.0381C177.371 65.7379 177.738 65.2792 177.955 64.6621H182.108C181.774 66.2633 180.965 67.5225 179.681 68.4398C178.397 69.3405 176.762 69.7908 174.778 69.7908ZM170.875 60.3089H178.18C178.047 59.3583 177.68 58.6494 177.079 58.1824C176.479 57.6987 175.67 57.4569 174.653 57.4569C173.635 57.4569 172.801 57.6987 172.151 58.1824C171.517 58.6661 171.092 59.3749 170.875 60.3089ZM169.074 52.6033V52.5033L172.501 48H176.404L179.881 52.5033V52.6033H176.679L174.427 50.5519L172.226 52.6033H169.074Z" fill="white"/>
</svg>
