<svg width="91" height="40" viewBox="0 0 91 40" fill="none" xmlns="http://www.w3.org/2000/svg">
<path fill-rule="evenodd" clip-rule="evenodd" d="M51.1051 0.0048909C51.0517 0.0102103 50.9988 0.0237151 50.9876 0.0348966C50.9763 0.0460782 50.9148 0.0552406 50.8508 0.0552406C50.7868 0.0552406 50.7087 0.069831 50.6772 0.0876564C50.6457 0.105482 50.5957 0.13006 50.5661 0.142262C50.5364 0.154464 50.4831 0.183731 50.4475 0.20731C50.4119 0.230889 50.3683 0.257117 50.3505 0.265607C50.3327 0.274118 49.6645 0.938608 48.8656 1.74225C48.0667 2.54591 47.4046 3.20346 47.3941 3.20346C47.3837 3.20346 47.3751 3.21811 47.3751 3.23602C47.3751 3.25394 47.3606 3.26859 47.3428 3.26859C47.325 3.26859 47.3104 3.28325 47.3104 3.30116C47.3104 3.31907 47.2959 3.33373 47.2781 3.33373C47.2603 3.33373 47.2458 3.34109 47.2458 3.3501C47.2458 3.37559 47.0123 3.61598 46.9875 3.61598C46.9754 3.61598 46.9655 3.6246 46.9655 3.63513C46.9655 3.6601 46.7937 3.8331 46.7689 3.8331C46.7584 3.8331 46.7499 3.84775 46.7499 3.86567C46.7499 3.88358 46.7353 3.89823 46.7175 3.89823C46.6997 3.89823 46.6852 3.91289 46.6852 3.9308C46.6852 3.94871 46.6706 3.96337 46.6528 3.96337C46.6351 3.96337 46.6205 3.97199 46.6205 3.98252C46.6205 4.00749 46.4487 4.18049 46.4239 4.18049C46.4135 4.18049 46.4049 4.19514 46.4049 4.21306C46.4049 4.23097 46.3903 4.24562 46.3726 4.24562C46.3548 4.24562 46.3402 4.25502 46.3402 4.26649C46.3402 4.29304 46.1709 4.46274 46.1445 4.46274C46.1335 4.46274 46.1246 4.4774 46.1246 4.49531C46.1246 4.51322 46.1101 4.52788 46.0923 4.52788C46.0745 4.52788 46.0599 4.54253 46.0599 4.56044C46.0599 4.57836 46.0454 4.59301 46.0276 4.59301C46.0098 4.59301 45.9952 4.60163 45.9952 4.61216C45.9952 4.63713 45.8235 4.81013 45.7987 4.81013C45.7882 4.81013 45.7796 4.82479 45.7796 4.8427C45.7796 4.86061 45.7651 4.87527 45.7473 4.87527C45.7295 4.87527 45.715 4.88992 45.715 4.90783C45.715 4.92575 45.7004 4.9404 45.6826 4.9404C45.6648 4.9404 45.65 4.95263 45.6497 4.96754C45.6494 4.98248 45.6157 5.01911 45.5748 5.04896C45.534 5.07881 45.5003 5.11546 45.5 5.13038C45.4996 5.14532 45.4848 5.15752 45.467 5.15752C45.4492 5.15752 45.4347 5.17218 45.4347 5.19009C45.4347 5.208 45.4201 5.22266 45.4023 5.22266C45.3845 5.22266 45.37 5.23731 45.37 5.25522C45.37 5.27314 45.3614 5.28779 45.351 5.28779C45.3262 5.28779 45.1544 5.46079 45.1544 5.48576C45.1544 5.49629 45.1398 5.50491 45.122 5.50491C45.1043 5.50491 45.0897 5.51368 45.0897 5.52441C45.0897 5.53513 45.0311 5.60569 44.9595 5.68121C44.888 5.75674 44.824 5.84007 44.8175 5.86641C44.8109 5.89275 44.7918 5.91958 44.7751 5.92603C44.7584 5.9325 44.7447 5.96281 44.7447 5.99342C44.7447 6.02404 44.7302 6.0547 44.7124 6.06156C44.6934 6.06892 44.6801 6.10148 44.6801 6.14059C44.6801 6.17719 44.6631 6.22602 44.6423 6.2491C44.607 6.28842 44.6046 6.41181 44.6046 8.18632C44.6046 9.96083 44.607 10.0842 44.6423 10.1235C44.6631 10.1466 44.6801 10.1954 44.6801 10.2321C44.6801 10.2712 44.6934 10.3037 44.7124 10.3111C44.7302 10.3179 44.7447 10.3483 44.7447 10.3785C44.7447 10.4088 44.7547 10.4335 44.7668 10.4335C44.779 10.4335 44.7982 10.4582 44.8096 10.4883C44.832 10.5475 44.8499 10.5718 44.9501 10.6787C44.9859 10.717 45.0502 10.7923 45.0929 10.846C45.1355 10.8998 45.2324 11.0088 45.3081 11.0884C45.3838 11.168 45.4814 11.273 45.5249 11.3218C45.5684 11.3706 45.6144 11.4105 45.6271 11.4105C45.6399 11.4105 45.6503 11.4204 45.6503 11.4325C45.6503 11.4445 45.774 11.5802 45.9252 11.734C46.0764 11.8877 46.2486 12.0698 46.3079 12.1387C46.3672 12.2075 46.4763 12.3266 46.5504 12.4035C46.6246 12.4803 46.6852 12.5462 46.6852 12.55C46.6852 12.5538 46.8404 12.7158 47.0302 12.91C47.2199 13.1042 47.3751 13.2713 47.3751 13.2813C47.3751 13.2913 47.3897 13.2995 47.4075 13.2995C47.4253 13.2995 47.4398 13.3091 47.4398 13.3208C47.4398 13.3325 47.4738 13.3773 47.5153 13.4203C47.5568 13.4634 47.5907 13.5118 47.5907 13.5278C47.5907 13.5648 47.6635 13.5889 47.7201 13.5709C47.7682 13.5555 47.7786 13.4756 47.7378 13.4346C47.6939 13.3903 47.6828 9.83405 47.7263 9.73722C47.7447 9.69625 47.7661 9.6383 47.7738 9.60844C47.8068 9.48024 47.9069 9.32619 47.9573 9.32619C47.9691 9.32619 47.9788 9.31714 47.9788 9.30606C47.9788 9.20838 48.5859 9.11988 48.6426 9.20927C48.6511 9.2226 48.6822 9.24095 48.7119 9.25005C48.7859 9.2728 48.9706 9.46671 48.9706 9.52162C48.9706 9.54624 48.9852 9.57201 49.0029 9.57887C49.0314 9.58988 49.0353 9.88979 49.0353 12.0968C49.0353 14.9516 49.0142 14.7013 49.2354 14.4665C49.3057 14.3918 49.515 14.1741 49.7006 13.9827C49.8861 13.7912 50.1048 13.5616 50.1866 13.4724C50.2685 13.3833 50.5704 13.0661 50.8577 12.7675C51.6918 11.9005 51.6856 11.9099 51.4223 11.9099C51.0271 11.9099 50.8212 11.5874 51.062 11.3454C51.0838 11.3234 51.1698 11.1948 51.1698 11.1841C51.1698 11.178 51.4026 10.9383 51.6872 10.6515C51.9718 10.3647 52.2047 10.1201 52.2047 10.1081C52.2047 10.096 52.2142 10.0861 52.2257 10.0861C52.2559 10.0861 52.485 9.85874 52.485 9.82884C52.485 9.8151 52.4948 9.80385 52.5069 9.80385C52.5355 9.80385 53.1749 9.15996 53.1749 9.13113C53.1749 9.11899 53.1849 9.10907 53.197 9.10907C53.2243 9.10907 56.185 6.12671 56.2527 6.03114C56.2793 5.99345 56.3012 5.94861 56.3012 5.93148C56.3012 5.91437 56.3157 5.89474 56.3335 5.88786C56.3513 5.881 56.3659 5.85184 56.3659 5.82307C56.3659 5.79431 56.3804 5.75861 56.3982 5.74374C56.4162 5.72874 56.4305 5.6814 56.4305 5.63735C56.4305 5.59371 56.4473 5.53389 56.4678 5.50445C56.5215 5.42727 56.5208 4.92863 56.4669 4.8458C56.4469 4.81508 56.4305 4.75509 56.4305 4.71251C56.4305 4.66371 56.4186 4.63044 56.3982 4.62258C56.3797 4.61542 56.3659 4.583 56.3659 4.54659C56.3659 4.51018 56.3521 4.47777 56.3335 4.4706C56.3157 4.46372 56.3012 4.44409 56.3012 4.42698C56.3012 4.36039 55.4803 3.48571 55.4178 3.48571C55.4056 3.48571 55.3956 3.47572 55.3956 3.46352C55.3956 3.4346 55.1661 3.20346 55.1374 3.20346C55.1253 3.20346 55.1154 3.1888 55.1154 3.17089C55.1154 3.15298 55.1008 3.13832 55.083 3.13832C55.0652 3.13832 55.0507 3.12855 55.0507 3.11661C55.0507 3.08834 54.8847 2.9212 54.8566 2.9212C54.8448 2.9212 54.8351 2.90655 54.8351 2.88863C54.8351 2.87072 54.8205 2.85607 54.8027 2.85607C54.7849 2.85607 54.7704 2.84141 54.7704 2.8235C54.7704 2.80559 54.7558 2.79093 54.738 2.79093C54.7203 2.79093 54.7057 2.77628 54.7057 2.75836C54.7057 2.74045 54.6976 2.7258 54.6878 2.7258C54.678 2.7258 54.4469 2.50351 54.1742 2.23185C53.9016 1.96017 53.5781 1.64509 53.4553 1.53164C53.3326 1.4182 53.1514 1.24477 53.0527 1.14626C52.954 1.04775 52.8635 0.967137 52.8516 0.967137C52.8397 0.967137 52.8299 0.952482 52.8299 0.93457C52.8299 0.916657 52.8154 0.902002 52.7976 0.902002C52.7798 0.902002 52.7653 0.892014 52.7653 0.879812C52.7653 0.850892 52.5357 0.619748 52.507 0.619748C52.4949 0.619748 52.485 0.610412 52.485 0.598992C52.485 0.572655 52.2544 0.337494 52.2286 0.337494C52.218 0.337494 52.2037 0.322839 52.1969 0.304927C52.1901 0.287014 52.161 0.272359 52.1322 0.272359C52.1035 0.272359 52.0743 0.257703 52.0675 0.239791C52.0607 0.221879 52.0414 0.207223 52.0247 0.207223C52.008 0.207223 51.9828 0.193198 51.9687 0.176045C51.9545 0.158915 51.9121 0.138115 51.8744 0.129864C51.8367 0.121592 51.7867 0.101422 51.7633 0.0850293C51.7399 0.0686585 51.6786 0.0552406 51.6271 0.0552406C51.5756 0.0552406 51.5152 0.0453618 51.4928 0.03329C51.4434 0.006693 51.238 -0.00835331 51.1051 0.0048909ZM51.2821 3.77964C51.2668 3.7971 51.2316 3.81139 51.2039 3.81139C51.1762 3.81139 51.1414 3.82604 51.1267 3.84395C51.1119 3.86187 51.0826 3.87652 51.0617 3.87652C51.0407 3.87652 51.0179 3.89118 51.011 3.90909C51.0042 3.927 50.985 3.94166 50.9682 3.94166C50.9367 3.94166 50.7601 4.10285 50.7601 4.13168C50.7601 4.14069 50.7262 4.19616 50.6847 4.25494C50.6408 4.31703 50.6092 4.38779 50.6092 4.42381C50.6092 4.4589 50.5952 4.49125 50.5769 4.49831C50.5315 4.51583 50.5291 5.05246 50.5742 5.09013C50.5905 5.10376 50.61 5.15381 50.6175 5.20136C50.6251 5.24888 50.6386 5.28779 50.6476 5.28779C50.6566 5.28779 50.6881 5.33332 50.7175 5.38897C50.7774 5.50237 50.8753 5.61062 50.955 5.65159C50.9842 5.6666 51.0469 5.70281 51.0943 5.73208C51.1417 5.76135 51.2012 5.78571 51.2264 5.78623C51.2517 5.78673 51.2844 5.80182 51.2991 5.81973C51.3204 5.84557 51.3829 5.8523 51.6013 5.8523C51.8262 5.8523 51.8789 5.84633 51.8891 5.81973C51.8961 5.80138 51.9281 5.78716 51.9625 5.78716C51.9961 5.78716 52.0344 5.77626 52.0476 5.76293C52.0715 5.73885 52.125 5.70553 52.2244 5.65266C52.2927 5.61629 52.4296 5.48248 52.4478 5.43435C52.4556 5.41346 52.4721 5.39635 52.4843 5.39635C52.4965 5.39635 52.5065 5.37651 52.5065 5.35225C52.5065 5.32798 52.5211 5.30251 52.5389 5.29565C52.5569 5.2887 52.5712 5.25644 52.5712 5.22298C52.5712 5.18991 52.5858 5.15068 52.6036 5.13581C52.65 5.09697 52.6495 4.5152 52.6029 4.45317C52.5855 4.42998 52.5712 4.38358 52.5712 4.35004C52.5712 4.31649 52.5613 4.28905 52.5491 4.28905C52.537 4.28905 52.5176 4.26707 52.5061 4.2402C52.474 4.16553 52.4354 4.10992 52.3879 4.06987C52.3642 4.04985 52.3077 3.99817 52.2624 3.95501C52.2171 3.91185 52.1624 3.87652 52.1408 3.87652C52.1192 3.87652 52.0959 3.86187 52.0891 3.84395C52.0823 3.82604 52.054 3.81139 52.0262 3.81139C51.9985 3.81139 51.9569 3.79704 51.9339 3.77951C51.8735 3.73348 51.3224 3.73359 51.2821 3.77964Z" fill="#E88712"/>
<path fill-rule="evenodd" clip-rule="evenodd" d="M30.5681 1.69149C30.5447 1.70775 30.4754 1.72577 30.4142 1.73155C30.3515 1.73745 30.2872 1.75775 30.2671 1.77797C30.2475 1.79772 30.2124 1.8139 30.1892 1.8139C30.1659 1.8139 30.1413 1.82855 30.1345 1.84647C30.1277 1.86438 30.0986 1.87903 30.0698 1.87903C30.0411 1.87903 30.0119 1.89369 30.0051 1.9116C29.9983 1.92951 29.984 1.94417 29.9735 1.94417C29.947 1.94417 29.7817 2.11265 29.7817 2.13958C29.7817 2.15152 29.7729 2.16129 29.7622 2.16129C29.7397 2.16129 29.6308 2.34124 29.6308 2.37838C29.6308 2.39204 29.6162 2.41788 29.5985 2.43579C29.5807 2.4537 29.5658 2.49941 29.5654 2.53736C29.5651 2.57533 29.5505 2.62536 29.5331 2.64852C29.489 2.70727 29.489 3.04828 29.5331 3.10703C29.5505 3.1302 29.5651 3.18035 29.5654 3.21846C29.5658 3.25656 29.576 3.29386 29.588 3.30135C29.6 3.30884 29.6238 3.34851 29.6408 3.38948C29.6578 3.43047 29.6819 3.464 29.6944 3.464C29.7068 3.464 29.717 3.47865 29.717 3.49657C29.717 3.51448 29.7316 3.52913 29.7494 3.52913C29.7672 3.52913 29.7817 3.53849 29.7817 3.54993C29.7817 3.57881 29.9424 3.74625 29.9701 3.74625C29.9825 3.74625 29.9983 3.76091 30.0051 3.77882C30.0119 3.79673 30.0411 3.81139 30.0698 3.81139C30.0986 3.81139 30.1277 3.82604 30.1345 3.84395C30.1416 3.86263 30.1738 3.87652 30.21 3.87652C30.2461 3.87652 30.2783 3.89042 30.2854 3.90909C30.2942 3.93202 30.3297 3.94166 30.4056 3.94166C30.4648 3.94166 30.558 3.95694 30.6127 3.97564C30.713 4.00992 33.1324 4.00786 33.6774 3.97301C33.7997 3.96519 33.8917 3.9691 33.9179 3.98324C33.9413 3.99581 34.0292 4.01255 34.1133 4.02041C34.1996 4.0285 34.2767 4.04755 34.2904 4.06418C34.3038 4.08037 34.3368 4.09364 34.3637 4.09364C34.3906 4.09364 34.4182 4.1083 34.425 4.12621C34.4319 4.14412 34.4561 4.15878 34.4789 4.15878C34.5018 4.15878 34.526 4.17343 34.5328 4.19134C34.5397 4.20926 34.5649 4.22391 34.5891 4.22391C34.6131 4.22391 34.6328 4.23737 34.6328 4.25383C34.6328 4.27027 34.6474 4.29589 34.6652 4.31076C34.683 4.32563 34.6975 4.3711 34.6975 4.41181C34.6975 4.45757 34.7099 4.49058 34.7299 4.49831C34.7508 4.5064 34.7622 4.54006 34.7622 4.59379C34.7622 4.63941 34.7751 4.68976 34.7909 4.70563C34.8066 4.72152 34.8255 4.77116 34.8327 4.81597C34.8399 4.86076 34.861 4.91268 34.8795 4.93133C34.8982 4.95017 34.9131 5.00191 34.9131 5.04785C34.9131 5.09482 34.9271 5.14215 34.9455 5.15752C34.9633 5.17239 34.9778 5.21786 34.9778 5.25857C34.9778 5.30433 34.9902 5.33734 35.0102 5.34507C35.031 5.35312 35.0425 5.38669 35.0425 5.43945C35.0425 5.48572 35.0566 5.53305 35.0748 5.54833C35.0926 5.5632 35.1072 5.60767 35.1072 5.64714C35.1072 5.68661 35.1206 5.73241 35.1369 5.74888C35.1533 5.76536 35.1735 5.81923 35.1817 5.8686C35.19 5.91795 35.2106 5.96989 35.2274 5.98398C35.2443 5.99807 35.2581 6.04645 35.2581 6.09145C35.2581 6.14421 35.2696 6.17778 35.2904 6.18584C35.3118 6.19411 35.3228 6.22815 35.3228 6.28653C35.3228 6.34492 35.3337 6.37896 35.3551 6.38723C35.3759 6.39529 35.3875 6.42886 35.3875 6.48161C35.3875 6.52662 35.4008 6.57459 35.417 6.58816C35.4333 6.60175 35.4519 6.6532 35.4585 6.70251C35.4651 6.75182 35.4804 6.79837 35.4926 6.80597C35.5048 6.81357 35.5215 6.86185 35.5297 6.91327C35.5378 6.96468 35.5577 7.01184 35.5738 7.01807C35.5913 7.02482 35.6031 7.0623 35.6031 7.11126C35.6031 7.15753 35.6171 7.20486 35.6354 7.22014C35.6541 7.23573 35.6677 7.28309 35.6677 7.33205C35.6677 7.38745 35.679 7.42126 35.7001 7.4294C35.7209 7.43746 35.7324 7.47102 35.7324 7.52378C35.7324 7.57005 35.7465 7.61738 35.7648 7.63267C35.7826 7.64754 35.7971 7.68551 35.7971 7.71706C35.7971 7.74863 35.8165 7.8109 35.8402 7.85545C35.8639 7.90003 35.8834 7.96126 35.8834 7.99152C35.8834 8.02179 35.8979 8.05218 35.9157 8.05905C35.9365 8.0671 35.948 8.10067 35.948 8.15343C35.948 8.19969 35.9621 8.24703 35.9804 8.26231C35.999 8.2779 36.0127 8.32525 36.0127 8.37421C36.0127 8.42962 36.0239 8.46343 36.0451 8.47157C36.066 8.47967 36.0774 8.51332 36.0774 8.56706C36.0774 8.61268 36.0908 8.6635 36.1072 8.67998C36.1235 8.69646 36.1437 8.75033 36.152 8.7997C36.1602 8.84905 36.1808 8.90099 36.1977 8.91508C36.2145 8.92917 36.2283 8.974 36.2283 9.01471C36.2283 9.06048 36.2407 9.09348 36.2607 9.10121C36.2827 9.10972 36.293 9.14442 36.293 9.20977C36.293 9.27515 36.3033 9.30984 36.3253 9.31833C36.3462 9.32639 36.3577 9.35995 36.3577 9.41271C36.3577 9.45772 36.371 9.50568 36.3872 9.51925C36.4035 9.53284 36.4222 9.5843 36.4287 9.63361C36.4353 9.68292 36.4506 9.72947 36.4628 9.73707C36.475 9.74466 36.4915 9.79191 36.4995 9.84209C36.5075 9.89226 36.5273 9.94446 36.5436 9.95809C36.5599 9.97171 36.5733 10.0197 36.5733 10.0647C36.5733 10.1175 36.5848 10.151 36.6056 10.1591C36.6267 10.1672 36.638 10.201 36.638 10.2565C36.638 10.3054 36.6517 10.3528 36.6703 10.3684C36.6881 10.3832 36.7027 10.4277 36.7027 10.4672C36.7027 10.5066 36.7155 10.552 36.7313 10.5678C36.7471 10.5837 36.7662 10.6349 36.7737 10.6816C36.7812 10.7283 36.7981 10.7732 36.8113 10.7814C36.8245 10.7896 36.8407 10.8367 36.8472 10.886C36.8538 10.9353 36.8725 10.9868 36.8887 11.0003C36.905 11.0139 36.9183 11.0632 36.9183 11.1099C36.9183 11.1653 36.9295 11.1991 36.9506 11.2073C36.9714 11.2153 36.9829 11.2489 36.9829 11.3016C36.9829 11.3479 36.997 11.3952 37.0153 11.4105C37.0331 11.4254 37.0476 11.4699 37.0476 11.5093C37.0476 11.5488 37.0607 11.5943 37.0767 11.6104C37.0926 11.6264 37.1128 11.6779 37.1216 11.7248C37.1303 11.7716 37.1512 11.8297 37.168 11.8539C37.1848 11.8781 37.1985 11.9288 37.1985 11.9667C37.1985 12.0078 37.2115 12.0405 37.2309 12.048C37.2523 12.0563 37.2632 12.0903 37.2632 12.1487C37.2632 12.2071 37.2742 12.2412 37.2956 12.2494C37.3164 12.2575 37.3279 12.291 37.3279 12.3438C37.3279 12.3888 37.3412 12.4368 37.3574 12.4503C37.3737 12.4639 37.3924 12.5154 37.3989 12.5647C37.4055 12.614 37.4209 12.6606 37.4331 12.6682C37.4453 12.6758 37.4619 12.724 37.4701 12.7755C37.4783 12.8269 37.4981 12.874 37.5142 12.8803C37.532 12.8871 37.5435 12.925 37.5435 12.9768C37.5435 13.0325 37.5547 13.0663 37.5759 13.0745C37.5979 13.083 37.6082 13.1177 37.6082 13.183C37.6082 13.2484 37.6185 13.2831 37.6405 13.2916C37.6615 13.2997 37.6729 13.3333 37.6729 13.3871C37.6729 13.4327 37.6874 13.4847 37.7052 13.5026C37.723 13.5205 37.7376 13.558 37.7376 13.5859C37.7376 13.6138 37.757 13.6731 37.7807 13.7176C37.8044 13.7622 37.8238 13.8234 37.8238 13.8537C37.8238 13.884 37.8384 13.9144 37.8561 13.9212C37.8782 13.9297 37.8885 13.9644 37.8885 14.0298C37.8885 14.0952 37.8988 14.1299 37.9208 14.1384C37.9417 14.1464 37.9532 14.18 37.9532 14.2327C37.9532 14.279 37.9672 14.3263 37.9855 14.3416C38.0033 14.3565 38.0178 14.401 38.0178 14.4404C38.0178 14.4799 38.0309 14.5254 38.0469 14.5415C38.0628 14.5575 38.083 14.609 38.0918 14.6559C38.1005 14.7027 38.1214 14.7608 38.1382 14.785C38.155 14.8092 38.1688 14.8599 38.1688 14.8978C38.1688 14.9389 38.1818 14.9716 38.2011 14.9791C38.2225 14.9874 38.2335 15.0214 38.2335 15.0798C38.2335 15.1382 38.2444 15.1723 38.2658 15.1805C38.2867 15.1886 38.2981 15.2223 38.2981 15.276C38.2981 15.3216 38.3127 15.3736 38.3305 15.3915C38.3483 15.4095 38.3628 15.4496 38.3628 15.4808C38.3628 15.512 38.3822 15.5758 38.4059 15.6226C38.4297 15.6694 38.4491 15.7314 38.4491 15.7602C38.4491 15.7891 38.4636 15.8249 38.4814 15.8397C38.4992 15.8546 38.5137 15.8986 38.5137 15.9374C38.5137 15.9763 38.5283 16.0203 38.5461 16.0351C38.5643 16.0504 38.5784 16.0977 38.5784 16.1437C38.5784 16.1897 38.5925 16.237 38.6108 16.2523C38.6285 16.2671 38.6431 16.3111 38.6431 16.35C38.6431 16.3888 38.6577 16.4328 38.6754 16.4477C38.6932 16.4625 38.7078 16.5005 38.7078 16.5321C38.7078 16.5636 38.7272 16.6259 38.7509 16.6705C38.7746 16.715 38.794 16.7747 38.794 16.8032C38.794 16.8316 38.8086 16.867 38.8264 16.8819C38.8446 16.8971 38.8587 16.9445 38.8587 16.9905C38.8587 17.0365 38.8728 17.0838 38.891 17.099C38.9088 17.1139 38.9234 17.1584 38.9234 17.1978C38.9234 17.2373 38.9379 17.2843 38.9557 17.3022C38.9735 17.3201 38.9881 17.3626 38.9881 17.3966C38.9881 17.4306 39.0014 17.4777 39.0177 17.5013C39.034 17.5248 39.0542 17.5851 39.0625 17.6351C39.0709 17.6852 39.0915 17.7377 39.1083 17.7518C39.1252 17.7659 39.139 17.8092 39.139 17.8481C39.139 17.8869 39.1535 17.9309 39.1713 17.9458C39.19 17.9614 39.2037 18.0087 39.2037 18.0577C39.2037 18.1131 39.2149 18.1469 39.236 18.155C39.2554 18.1626 39.2684 18.1953 39.2684 18.2371C39.2684 18.2753 39.2816 18.3248 39.2977 18.347C39.3236 18.3827 39.3199 18.3945 39.2654 18.4481C39.2314 18.4815 39.2037 18.5189 39.2037 18.5313C39.2037 18.5436 39.1891 18.5537 39.1713 18.5537C39.1535 18.5537 39.139 18.5684 39.139 18.5863C39.139 18.6042 39.1293 18.6189 39.1174 18.6189C39.1056 18.6189 39.0571 18.6579 39.0096 18.7057C38.9622 18.7535 38.9234 18.8023 38.9234 18.8143C38.9234 18.8262 38.9088 18.836 38.891 18.836C38.8733 18.836 38.8587 18.8506 38.8587 18.8685C38.8587 18.8865 38.8442 18.9011 38.8264 18.9011C38.8086 18.9011 38.794 18.9158 38.794 18.9337C38.794 18.9516 38.7851 18.9662 38.7742 18.9662C38.7558 18.9662 38.5784 19.1321 38.5784 19.1494C38.5784 19.1536 38.535 19.2034 38.4819 19.2599C38.4289 19.3165 38.3794 19.382 38.372 19.4055C38.3646 19.429 38.3393 19.4676 38.3157 19.4914C38.2921 19.5151 38.259 19.5679 38.2421 19.6087C38.2252 19.6494 38.2017 19.6827 38.1901 19.6827C38.1783 19.6827 38.1688 19.7075 38.1688 19.7377C38.1688 19.7679 38.1542 19.7983 38.1364 19.8051C38.1186 19.812 38.104 19.8337 38.1039 19.8533C38.1039 19.8729 38.0845 19.9183 38.061 19.9541C38.0374 19.99 38.0181 20.0449 38.018 20.0763C38.0179 20.1077 38.0033 20.1455 37.9855 20.1604C37.9673 20.1756 37.9532 20.223 37.9532 20.269C37.9532 20.3138 37.9392 20.3622 37.9221 20.3764C37.8491 20.4375 37.8491 21.5986 37.9222 21.6596C37.9401 21.6746 37.9532 21.7239 37.9532 21.7764C37.9532 21.8264 37.9674 21.8863 37.9848 21.9095C38.0022 21.9326 38.0168 21.9729 38.0172 21.9989C38.0175 22.0249 38.0312 22.0597 38.0476 22.0761C38.0639 22.0926 38.0839 22.1366 38.0921 22.1739C38.1002 22.2112 38.1208 22.2534 38.1378 22.2676C38.1548 22.2818 38.1688 22.3108 38.1688 22.3319C38.1688 22.353 38.1833 22.376 38.2011 22.3829C38.2189 22.3897 38.2335 22.4155 38.2335 22.4401C38.2335 22.4648 38.248 22.4905 38.2658 22.4974C38.2836 22.5043 38.2981 22.5244 38.2981 22.5422C38.2981 22.5853 38.4526 22.7854 38.4868 22.7866C38.5016 22.7871 38.5137 22.8022 38.5137 22.8202C38.5137 22.8664 38.997 23.3505 39.0455 23.3529C39.0554 23.3535 39.0873 23.3828 39.1164 23.4181C39.1469 23.4551 39.1903 23.4823 39.2188 23.4823C39.2461 23.4823 39.2684 23.4919 39.2684 23.5037C39.2684 23.5155 39.2999 23.5399 39.3384 23.5579C39.377 23.5759 39.4473 23.6147 39.4947 23.6441C39.5422 23.6735 39.6031 23.698 39.6302 23.6985C39.6572 23.699 39.685 23.7141 39.6918 23.732C39.6989 23.7508 39.7312 23.7646 39.7681 23.7646C39.8033 23.7646 39.8466 23.7792 39.8644 23.7971C39.8845 23.8174 39.9375 23.8297 40.0053 23.8297C40.0954 23.8297 40.1116 23.8355 40.1007 23.864C40.0935 23.8829 40.0877 23.9025 40.0877 23.9075C40.0877 23.9125 40.0736 23.9165 40.0563 23.9165C40.0191 23.9165 39.7681 24.16 39.7094 24.2531C39.6868 24.2889 39.6559 24.326 39.6408 24.3356C39.6257 24.3451 39.6129 24.3647 39.6124 24.379C39.6119 24.3933 39.5828 24.429 39.5477 24.4583C39.5127 24.4876 39.484 24.5286 39.484 24.5495C39.484 24.5703 39.4584 24.6147 39.4272 24.6482C39.396 24.6816 39.3573 24.7401 39.3413 24.7781C39.3253 24.8161 39.3023 24.8533 39.2902 24.8608C39.2782 24.8683 39.2684 24.8972 39.2684 24.9251C39.2684 24.953 39.2538 24.9814 39.236 24.9883C39.2149 24.9964 39.2037 25.0303 39.2037 25.086C39.2037 25.1417 39.1925 25.1755 39.1713 25.1837C39.1512 25.1915 39.139 25.2245 39.139 25.2713C39.139 25.3126 39.1235 25.362 39.1046 25.3811C39.0838 25.402 39.0655 25.4694 39.0586 25.5509C39.0522 25.6252 39.0362 25.6998 39.0229 25.7165C38.9826 25.7674 38.9774 26.5026 39.0167 26.591C39.0343 26.6306 39.0539 26.7203 39.0602 26.7902C39.0665 26.8601 39.0868 26.9341 39.1053 26.9547C39.1238 26.9753 39.139 27.0284 39.139 27.0726C39.139 27.124 39.1506 27.1575 39.1713 27.1655C39.1899 27.1726 39.2037 27.205 39.2037 27.2414C39.2037 27.2779 39.2175 27.3103 39.236 27.3174C39.2538 27.3243 39.2684 27.3521 39.2684 27.3792C39.2684 27.4063 39.2829 27.4407 39.3007 27.4556C39.3185 27.4704 39.333 27.4998 39.333 27.5207C39.333 27.5417 39.3486 27.5718 39.3676 27.5877C39.3866 27.6036 39.4109 27.6366 39.4215 27.6609C39.4477 27.7212 39.4851 27.7764 39.5454 27.8439C39.5733 27.8751 39.6099 27.9275 39.6268 27.9604C39.6437 27.9932 39.667 28.0201 39.6786 28.0201C39.6901 28.0201 39.6996 28.0298 39.6996 28.0418C39.6996 28.0629 39.7909 28.158 39.9395 28.2915C40.019 28.3629 40.0783 28.4029 40.1362 28.4239C40.1569 28.4315 40.1739 28.4512 40.1739 28.4677C40.1739 28.4842 40.1821 28.4977 40.1922 28.4977C40.2022 28.4977 40.2328 28.5173 40.2601 28.5412C40.2875 28.565 40.3267 28.5846 40.3474 28.5846C40.368 28.5846 40.3905 28.5992 40.3973 28.6171C40.4041 28.6351 40.4297 28.6497 40.4542 28.6497C40.4787 28.6497 40.5043 28.6644 40.5111 28.6823C40.5179 28.7002 40.5407 28.7149 40.5617 28.7149C40.5826 28.7149 40.6111 28.7285 40.6248 28.7451C40.6385 28.7618 40.6827 28.7817 40.7229 28.7893C40.7631 28.7969 40.7994 28.8132 40.8034 28.8255C40.8075 28.8378 40.8517 28.8534 40.9017 28.8602C40.9517 28.8669 41.0036 28.8859 41.0171 28.9022C41.0316 28.9198 41.0836 28.932 41.1441 28.932C41.209 28.932 41.2565 28.944 41.2735 28.9645C41.296 28.9919 41.3861 28.9971 41.8352 28.9971C42.2818 28.9971 42.3753 28.9917 42.4023 28.9645C42.4225 28.9443 42.4754 28.932 42.5425 28.932C42.6096 28.932 42.6625 28.9197 42.6826 28.8994C42.7004 28.8815 42.7375 28.8668 42.765 28.8667C42.7925 28.8666 42.8442 28.8471 42.8797 28.8234C42.9153 28.7997 42.9666 28.7802 42.9936 28.7801C43.0207 28.7801 43.0484 28.7653 43.0552 28.7474C43.062 28.7295 43.0912 28.7149 43.1199 28.7149C43.1487 28.7149 43.1778 28.7002 43.1846 28.6823C43.1914 28.6644 43.2142 28.6497 43.2352 28.6497C43.2562 28.6497 43.2854 28.6351 43.3002 28.6171C43.3149 28.5992 43.3382 28.5846 43.3519 28.5846C43.3656 28.5846 43.3935 28.565 43.4138 28.5412C43.4341 28.5173 43.4646 28.4977 43.4816 28.4977C43.4986 28.4977 43.6074 28.4049 43.7234 28.2915C43.8394 28.178 43.942 28.0852 43.9514 28.0852C43.9609 28.0852 43.9686 28.0757 43.9686 28.0641C43.9686 28.0524 44.0122 27.999 44.0656 27.9452C44.1189 27.8915 44.1626 27.8389 44.1626 27.8284C44.1626 27.8178 44.1966 27.7644 44.2381 27.7097C44.2796 27.6549 44.3135 27.5946 44.3135 27.5756C44.3135 27.5566 44.3281 27.5354 44.3459 27.5286C44.3643 27.5214 44.3782 27.489 44.3782 27.4532C44.3782 27.4119 44.3892 27.3904 44.4105 27.3904C44.4322 27.3904 44.4429 27.3687 44.4429 27.3246C44.4429 27.2867 44.4563 27.2536 44.4746 27.2465C44.4921 27.2398 44.5121 27.1986 44.5191 27.1549C44.526 27.1113 44.5457 27.0497 44.5628 27.018C44.5798 26.9863 44.5941 26.9277 44.5945 26.8877C44.5949 26.8478 44.6094 26.7961 44.6268 26.7729C44.6744 26.7096 44.6737 25.5847 44.6262 25.5449C44.6069 25.5288 44.5938 25.4814 44.5938 25.4277C44.5938 25.3781 44.5806 25.3182 44.5645 25.2947C44.5484 25.2711 44.5288 25.2162 44.5208 25.1726C44.5129 25.129 44.4921 25.0814 44.4747 25.0668C44.4572 25.0522 44.4429 25.0167 44.4429 24.9879C44.4429 24.9592 44.4283 24.93 44.4105 24.9231C44.3928 24.9163 44.3782 24.8973 44.3782 24.8811C44.3782 24.8384 44.2912 24.6765 44.2682 24.6765C44.2576 24.6765 44.2488 24.6648 44.2488 24.6507C44.2488 24.61 44.1547 24.4813 44.1249 24.4812C44.1101 24.4811 44.0979 24.464 44.0979 24.4431C44.0979 24.4055 44.0331 24.3233 43.8538 24.1337C43.803 24.0799 43.7541 24.0238 43.7451 24.0088C43.7321 23.9871 44.5483 23.982 47.7997 23.9834C50.0386 23.9843 51.8584 23.99 51.8435 23.996C51.8287 24.0021 51.8166 24.0208 51.8166 24.0378C51.8166 24.0547 51.802 24.0685 51.7843 24.0685C51.7665 24.0685 51.7519 24.0832 51.7519 24.1011C51.7519 24.119 51.7374 24.1337 51.7196 24.1337C51.7018 24.1337 51.6872 24.141 51.6871 24.1499C51.6871 24.1589 51.6555 24.2 51.6171 24.2412C51.5434 24.3202 51.5029 24.38 51.4802 24.4431C51.4727 24.464 51.4555 24.481 51.4419 24.481C51.4176 24.481 51.4063 24.4972 51.3427 24.6238C51.3252 24.6588 51.2985 24.6951 51.2834 24.7047C51.2684 24.7142 51.256 24.7449 51.256 24.7729C51.256 24.8009 51.2415 24.8294 51.2237 24.8363C51.2059 24.8432 51.1913 24.8725 51.1913 24.9014C51.1913 24.9304 51.1768 24.9597 51.159 24.9666C51.1412 24.9734 51.1267 24.9998 51.1267 25.0252C51.1267 25.0505 51.1073 25.0961 51.0835 25.1265C51.0598 25.1568 51.0401 25.2072 51.0397 25.2385C51.0394 25.2697 51.0248 25.3142 51.0074 25.3374C50.99 25.3606 50.9757 25.4171 50.9757 25.463C50.9757 25.5089 50.9607 25.5696 50.9423 25.5978C50.8981 25.6658 50.904 26.7187 50.9488 26.7337C50.9653 26.7392 50.9757 26.7825 50.9757 26.8453C50.9757 26.9019 50.9899 26.9668 51.0074 26.99C51.0248 27.0132 51.0394 27.0519 51.0397 27.0759C51.0401 27.1 51.0598 27.1561 51.0835 27.2007C51.1073 27.2453 51.1267 27.2952 51.1267 27.3117C51.1267 27.3282 51.1412 27.3538 51.159 27.3687C51.1768 27.3836 51.1913 27.4193 51.1913 27.4481C51.1913 27.4768 51.2059 27.506 51.2237 27.5128C51.2415 27.5197 51.256 27.5427 51.256 27.5638C51.256 27.5849 51.2706 27.6144 51.2884 27.6293C51.3061 27.6441 51.3207 27.6693 51.3207 27.6851C51.3207 27.701 51.3328 27.7218 51.3477 27.7313C51.3765 27.7499 51.4716 27.8798 51.4716 27.9005C51.4716 27.9237 51.9167 28.3675 51.9399 28.3675C51.9526 28.3675 51.9685 28.3821 51.9753 28.4C51.9821 28.4179 52.0002 28.4328 52.0154 28.4331C52.0305 28.4334 52.0804 28.4676 52.1262 28.5091C52.172 28.5506 52.2267 28.5846 52.2479 28.5846C52.269 28.5846 52.2919 28.5992 52.2987 28.6171C52.3055 28.6351 52.3248 28.6497 52.3415 28.6497C52.3582 28.6497 52.384 28.6644 52.3987 28.6823C52.4135 28.7002 52.4426 28.7149 52.4634 28.7149C52.4842 28.7149 52.5133 28.7295 52.5281 28.7474C52.5429 28.7653 52.5709 28.78 52.5903 28.78C52.6098 28.78 52.662 28.7995 52.7062 28.8234C52.7505 28.8473 52.8098 28.8668 52.838 28.8668C52.8662 28.8668 52.9014 28.8815 52.9162 28.8994C52.9331 28.9199 52.9806 28.932 53.0441 28.932C53.0996 28.932 53.1639 28.9463 53.187 28.9638C53.2497 29.0116 54.2779 29.0122 54.3253 28.9645C54.3442 28.9455 54.3969 28.932 54.4521 28.932C54.5041 28.932 54.5654 28.9176 54.5884 28.9001C54.6114 28.8826 54.6545 28.8678 54.6841 28.8674C54.7138 28.8669 54.7672 28.8471 54.8027 28.8234C54.8383 28.7997 54.8882 28.7802 54.9136 28.7801C54.939 28.7801 54.9654 28.7653 54.9722 28.7474C54.9791 28.7295 55.0095 28.7149 55.0399 28.7149C55.0703 28.7149 55.1007 28.7002 55.1076 28.6823C55.1144 28.6644 55.1372 28.6497 55.1582 28.6497C55.1791 28.6497 55.2084 28.6351 55.2232 28.6171C55.2379 28.5992 55.2637 28.5846 55.2804 28.5846C55.2971 28.5846 55.3161 28.5706 55.3226 28.5535C55.3291 28.5364 55.3627 28.5125 55.3974 28.5004C55.432 28.4882 55.4603 28.468 55.4603 28.4554C55.4603 28.4429 55.4749 28.4326 55.4927 28.4326C55.5105 28.4326 55.525 28.4179 55.525 28.4C55.525 28.3821 55.5357 28.3675 55.5488 28.3675C55.5785 28.3675 56.0209 27.9241 56.0209 27.8944C56.0209 27.8825 56.0355 27.8671 56.0532 27.8602C56.071 27.8534 56.0856 27.8276 56.0856 27.803C56.0856 27.7783 56.1001 27.7525 56.1179 27.7457C56.1357 27.7388 56.1503 27.7196 56.1503 27.7029C56.1503 27.6863 56.1605 27.6727 56.1729 27.6727C56.1854 27.6727 56.2095 27.6392 56.2265 27.5982C56.2435 27.5572 56.2673 27.5175 56.2793 27.51C56.2913 27.5026 56.3012 27.4736 56.3012 27.4458C56.3012 27.4179 56.3157 27.3895 56.3335 27.3826C56.3521 27.3754 56.3659 27.343 56.3659 27.3066C56.3659 27.2702 56.3797 27.2378 56.3982 27.2306C56.4188 27.2226 56.4305 27.1892 56.4305 27.1384C56.4305 27.0922 56.4443 27.0486 56.4633 27.0346C56.4817 27.021 56.5021 26.9588 56.5099 26.8921C56.5176 26.8271 56.5367 26.7489 56.5525 26.7185C56.5937 26.6389 56.5936 25.6666 56.5524 25.5871C56.5366 25.5565 56.5169 25.4893 56.5087 25.4378C56.5006 25.3862 56.4796 25.3235 56.4622 25.2985C56.4448 25.2735 56.4305 25.2256 56.4305 25.192C56.4305 25.1578 56.4163 25.1255 56.3982 25.1186C56.3802 25.1116 56.3659 25.0793 56.3659 25.0459C56.3659 25.0128 56.3513 24.9736 56.3335 24.9587C56.3157 24.9438 56.3012 24.913 56.3012 24.8902C56.3012 24.8674 56.2866 24.8432 56.2688 24.8363C56.2511 24.8294 56.2365 24.8052 56.2365 24.7825C56.2365 24.7598 56.2171 24.7244 56.1934 24.704C56.1697 24.6835 56.1503 24.6516 56.1503 24.6331C56.1503 24.6145 56.1212 24.5672 56.0856 24.528C56.05 24.4888 56.0209 24.4475 56.0209 24.4363C56.0209 24.4251 56.0063 24.4159 55.9886 24.4159C55.9708 24.4159 55.9562 24.4017 55.9562 24.3844C55.9562 24.3671 55.944 24.3451 55.9291 24.3356C55.9141 24.326 55.8787 24.284 55.8503 24.2422C55.8219 24.2004 55.7522 24.1255 55.6955 24.0758C55.5923 23.9854 55.5923 23.9854 56.0405 23.9781C56.3263 23.9735 56.4996 23.9621 56.5189 23.9467C56.5355 23.9334 56.6014 23.9166 56.6653 23.9093C56.7292 23.9021 56.7979 23.8812 56.8179 23.8629C56.838 23.8447 56.8742 23.8297 56.8985 23.8297C56.9228 23.8297 56.9548 23.815 56.9696 23.7971C56.9843 23.7792 57.0098 23.7646 57.0261 23.7646C57.0424 23.7646 57.0558 23.7499 57.0558 23.732C57.0558 23.7141 57.067 23.6994 57.0807 23.6994C57.1088 23.6994 57.2714 23.534 57.2714 23.5054C57.2714 23.4953 57.286 23.4813 57.3038 23.4744C57.3215 23.4676 57.3361 23.4383 57.3361 23.4093C57.3361 23.3804 57.3506 23.3511 57.3684 23.3442C57.3882 23.3365 57.4008 23.3036 57.4008 23.2592C57.4008 23.2193 57.415 23.1677 57.4324 23.1445C57.4783 23.0834 57.4789 22.6521 57.4331 22.6138C57.4145 22.5982 57.4008 22.5509 57.4008 22.5019C57.4008 22.4465 57.3895 22.4127 57.3684 22.4046C57.3506 22.3977 57.3361 22.3684 57.3361 22.3394C57.3361 22.3105 57.3215 22.2812 57.3038 22.2743C57.286 22.2674 57.2714 22.2517 57.2714 22.2393C57.2714 22.2023 57.0092 21.9625 56.9689 21.9625C56.9485 21.9625 56.9197 21.9478 56.9049 21.9299C56.8901 21.912 56.8513 21.8973 56.8186 21.8973C56.786 21.8973 56.7472 21.8827 56.7324 21.8648C56.7086 21.8359 55.7862 21.8322 48.6684 21.8322C41.5442 21.8322 40.6299 21.8285 40.6189 21.7996C40.6121 21.7817 40.5867 21.7671 40.5624 21.7671C40.4914 21.7671 40.217 21.5601 40.217 21.5065C40.217 21.4946 40.2049 21.4846 40.1901 21.4842C40.1616 21.4837 40.0877 21.3409 40.0877 21.2865C40.0877 21.2688 40.0734 21.2353 40.056 21.2121C40.0141 21.1564 40.0141 20.9448 40.056 20.889C40.0734 20.8658 40.0877 20.8243 40.0877 20.7967C40.0877 20.7692 40.0967 20.7466 40.1078 20.7466C40.1188 20.7466 40.1347 20.7246 40.1431 20.6978C40.1515 20.6709 40.2346 20.5739 40.3278 20.4822C40.421 20.3905 40.4973 20.305 40.4973 20.2922C40.4973 20.2794 40.5119 20.269 40.5297 20.269C40.5474 20.269 40.562 20.2543 40.562 20.2364C40.562 20.2185 40.5719 20.2038 40.584 20.2038C40.6127 20.2038 40.8423 19.9727 40.8423 19.9438C40.8423 19.9315 40.8517 19.9216 40.8633 19.9216C40.8748 19.9216 40.9279 19.8776 40.9813 19.8239C41.0783 19.7262 41.0783 19.7262 49.1324 19.7262C55.9515 19.7262 57.1975 19.7215 57.2581 19.696C57.2975 19.6795 57.3694 19.6592 57.4179 19.6509C57.4664 19.6427 57.5175 19.622 57.5315 19.605C57.5455 19.5881 57.5804 19.5742 57.6089 19.5742C57.6375 19.5742 57.6664 19.5595 57.6733 19.5416C57.6801 19.5237 57.7092 19.509 57.7379 19.509C57.7667 19.509 57.7958 19.4944 57.8026 19.4765C57.8095 19.4586 57.8289 19.4439 57.8457 19.4439C57.8626 19.4439 57.882 19.4292 57.8889 19.4113C57.8957 19.3934 57.9151 19.3788 57.932 19.3788C57.949 19.3788 57.9968 19.3446 58.0383 19.3028C58.0798 19.261 58.1231 19.2268 58.1345 19.2268C58.146 19.2268 58.1554 19.219 58.1554 19.2095C58.1554 19.1999 58.189 19.1584 58.2302 19.1172C58.2713 19.076 58.3053 19.0262 58.3056 19.0066C58.306 18.9869 58.3209 18.9653 58.3387 18.9584C58.3564 18.9515 58.371 18.9309 58.371 18.9126C58.371 18.8944 58.3848 18.8794 58.4016 18.8794C58.4185 18.8794 58.4387 18.8501 58.4465 18.8143C58.4543 18.7784 58.4694 18.7491 58.4801 18.7491C58.4908 18.7491 58.5062 18.7224 58.5144 18.6896C58.5225 18.6569 58.5421 18.6171 58.5579 18.6012C58.5737 18.5853 58.5866 18.5498 58.5866 18.5223C58.5866 18.4947 58.6012 18.46 58.6189 18.4452C58.6372 18.4299 58.6513 18.3826 58.6513 18.3366C58.6513 18.2906 58.6654 18.2433 58.6836 18.228C58.7034 18.2115 58.716 18.1639 58.716 18.1059C58.716 18.0522 58.7348 17.9754 58.7591 17.9297C58.7828 17.8852 58.8022 17.8179 58.8022 17.7803C58.8022 17.7427 58.8167 17.6839 58.8344 17.6497C58.8521 17.6155 58.8667 17.5502 58.8668 17.5046C58.8668 17.4589 58.8814 17.4069 58.8992 17.389C58.9199 17.3683 58.9316 17.3147 58.9316 17.2409C58.9316 17.1583 58.9408 17.1218 58.9639 17.1129C58.9872 17.1039 58.9963 17.0673 58.9963 16.983C58.9963 16.9051 59.0071 16.8564 59.0286 16.8385C59.0464 16.8236 59.061 16.7761 59.0611 16.7327C59.0612 16.6894 59.0764 16.6246 59.095 16.5888C59.1136 16.553 59.1344 16.4748 59.1412 16.4151C59.148 16.3554 59.1667 16.2873 59.1827 16.2637C59.1987 16.2402 59.2119 16.1754 59.2119 16.1198C59.2119 16.0565 59.2239 16.0087 59.2442 15.9917C59.2646 15.9746 59.2765 15.9267 59.2765 15.8614C59.2765 15.7962 59.2884 15.7483 59.3089 15.7312C59.3303 15.7132 59.3412 15.6646 59.3412 15.5867C59.3412 15.5064 59.3507 15.4656 59.3713 15.4577C59.389 15.4508 59.4073 15.3975 59.416 15.3274C59.4241 15.2621 59.4445 15.1822 59.4613 15.1497C59.4781 15.1172 59.4923 15.0516 59.4927 15.0038C59.4932 14.9561 59.5078 14.898 59.5252 14.8748C59.5426 14.8517 59.5568 14.7868 59.5568 14.7306C59.5568 14.6599 59.5668 14.6247 59.5892 14.616C59.6129 14.6069 59.6215 14.5692 59.6215 14.4749C59.6215 14.386 59.6306 14.3427 59.651 14.3348C59.6694 14.3278 59.6844 14.2767 59.6907 14.2003C59.6963 14.1325 59.712 14.0701 59.7257 14.0616C59.7394 14.0531 59.7571 13.9983 59.765 13.9398C59.773 13.8814 59.7924 13.8086 59.8082 13.7782C59.8239 13.7477 59.8369 13.6825 59.837 13.6332C59.8371 13.5802 59.8503 13.5326 59.8695 13.5166C59.8907 13.4988 59.9018 13.4504 59.9018 13.3754C59.9018 13.3005 59.9129 13.2521 59.9341 13.2343C59.9554 13.2166 59.9665 13.1681 59.9665 13.0932C59.9665 13.0183 59.9776 12.9698 59.9988 12.9521C60.0166 12.9372 60.0315 12.8896 60.0319 12.8463C60.0323 12.8029 60.0514 12.7284 60.0743 12.6807C60.0972 12.6329 60.1163 12.5681 60.1167 12.5366C60.1171 12.5051 60.1319 12.4514 60.1496 12.4172C60.1673 12.383 60.1822 12.3159 60.1826 12.2681C60.1831 12.2204 60.1977 12.1623 60.2151 12.1392C60.2325 12.116 60.2468 12.0512 60.2468 11.9952C60.2468 11.9313 60.2588 11.8835 60.2791 11.8665C60.3003 11.8487 60.3114 11.8003 60.3114 11.7253C60.3114 11.6535 60.3227 11.6018 60.3419 11.5858C60.3587 11.5718 60.3791 11.5111 60.3873 11.4509C60.3956 11.3907 60.4157 11.3155 60.4322 11.2837C60.4486 11.252 60.4622 11.1853 60.4622 11.1355C60.4623 11.0858 60.4733 11.0414 60.4867 11.0369C60.5 11.0324 60.5159 10.9754 60.522 10.9102C60.528 10.8451 60.5462 10.7725 60.5624 10.7489C60.5785 10.7254 60.5917 10.6606 60.5917 10.605C60.5917 10.5417 60.6038 10.4939 60.6241 10.4769C60.6445 10.4598 60.6564 10.4119 60.6564 10.3466C60.6564 10.2834 60.6684 10.2334 60.6874 10.2175C60.7044 10.2033 60.7252 10.1361 60.7334 10.0683C60.7417 10.0005 60.7584 9.93855 60.7706 9.93069C60.7827 9.92283 60.7974 9.85969 60.8031 9.79037C60.8088 9.72104 60.8266 9.65106 60.8427 9.63485C60.8593 9.61817 60.872 9.55996 60.872 9.50099C60.872 9.43473 60.8838 9.38679 60.9044 9.36961C60.9256 9.35185 60.9367 9.30339 60.9367 9.22816C60.9367 9.14646 60.946 9.11014 60.969 9.10121C60.9916 9.09251 61.0014 9.05709 61.0014 8.98432C61.0014 8.92528 61.0159 8.85908 61.0347 8.83201C61.053 8.80567 61.0739 8.73265 61.081 8.66976C61.0882 8.60688 61.1071 8.53614 61.1232 8.51258C61.1392 8.48905 61.1523 8.42728 61.1523 8.37534C61.1523 8.32037 61.1658 8.26733 61.1846 8.24835C61.2044 8.22844 61.217 8.17525 61.217 8.11144C61.217 8.04517 61.2288 7.99723 61.2493 7.98006C61.2706 7.9623 61.2817 7.91384 61.2817 7.8386C61.2817 7.76209 61.2914 7.72041 61.311 7.71283C61.3285 7.70608 61.3463 7.65017 61.3551 7.57481C61.3632 7.50513 61.384 7.42914 61.4012 7.40597C61.4185 7.38279 61.4329 7.32416 61.4333 7.2757C61.4337 7.22722 61.4482 7.1686 61.4656 7.14543C61.5119 7.08388 61.5113 6.54256 61.4649 6.4959C61.4471 6.47799 61.4328 6.45042 61.433 6.43463C61.4336 6.38413 61.3366 6.2014 61.3086 6.20053C61.2938 6.20006 61.2817 6.1897 61.2817 6.1775C61.2817 6.14784 61.0405 5.91743 61.0095 5.91743C60.9961 5.91743 60.973 5.90278 60.9583 5.88487C60.9435 5.86695 60.9047 5.8523 60.872 5.8523C60.8394 5.8523 60.8005 5.83764 60.7858 5.81973C60.7452 5.77047 57.851 5.77047 57.8104 5.81973C57.7957 5.83764 57.7568 5.8523 57.7242 5.8523C57.6915 5.8523 57.6527 5.86695 57.6379 5.88487C57.6232 5.90278 57.5877 5.91743 57.5592 5.91743C57.5306 5.91743 57.5018 5.93172 57.4951 5.94918C57.4885 5.96663 57.4631 5.98728 57.4388 5.99505C57.4145 6.00283 57.3672 6.03739 57.3337 6.07187C57.3002 6.10635 57.2653 6.13525 57.256 6.13611C57.2467 6.13698 57.2003 6.18512 57.1528 6.24311C57.1054 6.3011 57.0545 6.34924 57.0396 6.35011C57.0248 6.35098 57.0127 6.36633 57.0127 6.38424C57.0127 6.40215 56.9981 6.41681 56.9803 6.41681C56.9626 6.41681 56.948 6.42566 56.948 6.4365C56.948 6.44733 55.9123 7.50049 54.6464 8.77684C53.3805 10.0532 52.3206 11.13 52.2909 11.1698C52.2613 11.2095 52.2201 11.2577 52.1993 11.2768C52.1785 11.296 52.1616 11.3241 52.1616 11.3394C52.1616 11.3546 52.1523 11.3671 52.1409 11.3671C52.1134 11.3671 51.8813 11.6 51.8813 11.6276C51.8813 11.6396 51.8667 11.6494 51.8489 11.6494C51.8311 11.6494 51.8166 11.664 51.8166 11.6819C51.8166 11.6998 51.802 11.7145 51.7843 11.7145C51.7665 11.7145 51.7517 11.7267 51.7513 11.7416C51.751 11.7566 51.7172 11.7932 51.6761 11.8231C51.6326 11.8548 51.593 11.9073 51.581 11.9495C51.5562 12.0366 51.5192 12.0785 50.857 12.7675C50.5702 13.0661 50.2685 13.3833 50.1866 13.4724C50.1048 13.5616 49.8861 13.7912 49.7006 13.9827C49.515 14.1741 49.3057 14.3918 49.2354 14.4665C49.1651 14.5411 49.091 14.6022 49.0709 14.6022C49.0028 14.6022 49.0282 16.3474 49.0963 16.3571C49.1443 16.364 49.2293 16.3089 49.2293 16.271C49.2293 16.2611 49.2616 16.2196 49.301 16.1787C49.3404 16.1379 49.435 16.0338 49.5112 15.9474C49.5874 15.861 49.6813 15.7573 49.7198 15.717C49.7584 15.6766 49.7899 15.634 49.7899 15.6222C49.7899 15.6105 49.8045 15.6009 49.8222 15.6009C49.84 15.6009 49.8546 15.5925 49.8546 15.5821C49.8546 15.5718 50.1044 15.3092 50.4098 14.9986C50.7151 14.6879 51.0086 14.3856 51.062 14.3269C51.1957 14.1796 51.3487 14.0594 51.4022 14.0594C51.4268 14.0594 51.4615 14.0447 51.4793 14.0268C51.5023 14.0037 51.5583 13.9942 51.6723 13.9942C51.7887 13.9942 51.8402 14.0032 51.8597 14.0268C51.8745 14.0447 51.914 14.0594 51.9475 14.0594C51.9811 14.0594 52.0162 14.0716 52.0257 14.0866C52.0352 14.1015 52.0842 14.1419 52.1346 14.1764C52.1883 14.2131 52.2262 14.256 52.2262 14.2801C52.2262 14.3028 52.2408 14.3269 52.2586 14.3338C52.2764 14.3406 52.2909 14.3678 52.2909 14.3941C52.2909 14.4204 52.3052 14.4608 52.3226 14.484C52.3658 14.5415 52.3658 14.8148 52.3226 14.8723C52.3052 14.8955 52.2909 14.9313 52.2909 14.9519C52.2909 15.0371 52.1926 15.1557 51.7411 15.6152C51.4802 15.8807 51.1698 16.2023 51.0512 16.3298C50.9326 16.4572 50.6197 16.7802 50.3559 17.0475C50.092 17.3148 49.8761 17.5432 49.8761 17.5551C49.8761 17.567 49.8667 17.5767 49.8551 17.5767C49.8249 17.5767 49.5959 17.8041 49.5959 17.8339C49.5959 17.8477 49.5813 17.8589 49.5635 17.8589C49.5457 17.8589 49.5312 17.8736 49.5312 17.8915C49.5312 17.9094 49.5215 17.9241 49.5096 17.9241C49.4822 17.9241 49.2509 18.1578 49.2509 18.1856C49.2509 18.197 49.2363 18.2063 49.2185 18.2063C49.2008 18.2063 49.1862 18.221 49.1862 18.2389C49.1862 18.2568 49.1721 18.2715 49.1549 18.2715C49.1377 18.2715 49.1159 18.2838 49.1064 18.2988C49.0969 18.3139 49.0332 18.3542 48.9648 18.3885C48.8963 18.4228 48.8351 18.4593 48.8287 18.4697C48.8224 18.4801 48.7905 18.4886 48.7578 18.4886C48.7252 18.4886 48.6797 18.5029 48.6567 18.5205C48.5959 18.5668 48.1463 18.5674 48.1082 18.5211C48.0934 18.5032 48.0486 18.4886 48.0085 18.4886C47.9644 18.4886 47.9187 18.4714 47.8926 18.4452C47.8689 18.4213 47.8311 18.4017 47.8086 18.4017C47.7862 18.4017 47.7622 18.3871 47.7554 18.3692C47.7486 18.3513 47.7282 18.3366 47.71 18.3366C47.6918 18.3366 47.677 18.327 47.677 18.3153C47.677 18.3036 47.6527 18.2879 47.6231 18.2804C47.5934 18.2729 47.5692 18.2532 47.5692 18.2366C47.5692 18.2199 47.5606 18.2063 47.5502 18.2063C47.5397 18.2063 47.4912 18.1661 47.4423 18.1169C47.3935 18.0678 47.3536 18.0189 47.3536 18.0084C47.3536 17.9978 47.339 17.9892 47.3212 17.9892C47.3034 17.9892 47.2889 17.9746 47.2889 17.9566C47.2889 17.9387 47.2802 17.9241 47.2697 17.9241C47.2591 17.9241 47.0408 17.7129 46.7846 17.4549C46.5283 17.1969 46.3187 16.977 46.3187 16.9664C46.3187 16.9557 46.3041 16.947 46.2863 16.947C46.2685 16.947 46.254 16.9324 46.254 16.9145C46.254 16.8966 46.2454 16.8819 46.235 16.8819C46.2102 16.8819 46.0384 16.7089 46.0384 16.6839C46.0384 16.6734 46.0238 16.6648 46.006 16.6648C45.9882 16.6648 45.9737 16.6501 45.9737 16.6322C45.9737 16.6143 45.9591 16.5997 45.9413 16.5997C45.9236 16.5997 45.909 16.5903 45.909 16.5788C45.909 16.5522 45.7397 16.3825 45.7133 16.3825C45.7023 16.3825 45.6934 16.3679 45.6934 16.35C45.6934 16.3321 45.6788 16.3174 45.6611 16.3174C45.6433 16.3174 45.6287 16.3027 45.6287 16.2848C45.6287 16.2669 45.6142 16.2523 45.5964 16.2523C45.5786 16.2523 45.564 16.2433 45.564 16.2323C45.564 16.2056 45.3955 16.0351 45.3692 16.0351C45.3578 16.0351 45.3484 16.0205 45.3484 16.0026C45.3484 15.9847 45.3339 15.97 45.3161 15.97C45.2983 15.97 45.2837 15.9597 45.2837 15.9471C45.2837 15.9346 45.131 15.7702 44.9442 15.5818C44.7574 15.3935 44.5766 15.1986 44.5424 15.1487C44.5082 15.0989 44.4718 15.0581 44.4615 15.0581C44.4513 15.0581 44.4429 15.0285 44.4429 14.9923C44.4429 14.9538 44.4295 14.9213 44.4105 14.914C44.364 14.896 44.364 14.5542 44.4105 14.5153C44.4283 14.5004 44.4429 14.4634 44.4429 14.4331C44.4429 14.375 44.45 14.365 44.5982 14.2158C44.7465 14.0664 44.7563 14.0594 44.8151 14.0594C44.8459 14.0594 44.8856 14.0447 44.9034 14.0268C44.9486 13.9812 45.2246 13.9812 45.2622 14.0268C45.277 14.0447 45.3137 14.0594 45.3439 14.0594C45.374 14.0594 45.4141 14.0737 45.4329 14.0913C45.609 14.2558 46.2755 14.9362 46.2755 14.9515C46.2755 14.9624 46.2901 14.9713 46.3079 14.9713C46.3257 14.9713 46.3402 14.9859 46.3402 15.0038C46.3402 15.0217 46.3548 15.0364 46.3726 15.0364C46.3903 15.0364 46.4049 15.0462 46.4049 15.0581C46.4049 15.0701 46.4437 15.1189 46.4911 15.1667C46.5386 15.2144 46.5871 15.2535 46.5989 15.2535C46.6108 15.2535 46.6205 15.2682 46.6205 15.2861C46.6205 15.304 46.6351 15.3187 46.6528 15.3187C46.6706 15.3187 46.6852 15.3284 46.6852 15.3403C46.6852 15.3521 46.7325 15.4105 46.7904 15.47C46.8482 15.5295 46.9428 15.6339 47.0006 15.702C47.1091 15.8299 47.3206 16.0477 47.4308 16.1449C47.4654 16.1754 47.5257 16.2374 47.5648 16.2826C47.6934 16.4311 47.6981 16.4133 47.7025 15.7481C47.7072 15.0449 47.7065 15.0324 47.6657 15.0014C47.6482 14.9882 47.6338 14.9662 47.6338 14.9526C47.6338 14.939 47.6252 14.9278 47.6146 14.9278C47.6041 14.9278 47.4753 14.8081 47.3286 14.6619C47.1818 14.5156 46.9164 14.2591 46.7387 14.092C46.561 13.9248 46.4079 13.7758 46.3984 13.7609C46.3889 13.7459 46.3671 13.7337 46.3499 13.7337C46.3327 13.7337 46.3187 13.7245 46.3187 13.7133C46.3187 13.687 46.0198 13.3863 45.9936 13.3863C45.9827 13.3863 45.9737 13.3716 45.9737 13.3537C45.9737 13.3358 45.9591 13.3212 45.9413 13.3212C45.9236 13.3212 45.909 13.3125 45.909 13.302C45.909 13.277 45.7372 13.104 45.7124 13.104C45.702 13.104 45.6934 13.0894 45.6934 13.0715C45.6934 13.0536 45.6788 13.0389 45.6611 13.0389C45.6433 13.0389 45.6287 13.0243 45.6287 13.0063C45.6287 12.9884 45.6202 12.9738 45.6097 12.9738C45.5992 12.9738 45.5507 12.9335 45.5019 12.8844C45.4531 12.8352 45.4131 12.7864 45.4131 12.7758C45.4131 12.7653 45.3986 12.7567 45.3808 12.7567C45.363 12.7567 45.3484 12.742 45.3484 12.7241C45.3484 12.7062 45.3339 12.6915 45.3161 12.6915C45.2983 12.6915 45.2837 12.6769 45.2837 12.659C45.2837 12.641 45.2716 12.6261 45.2568 12.6258C45.242 12.6255 45.2056 12.5915 45.1759 12.5504C45.1463 12.5093 45.1099 12.4753 45.0951 12.475C45.0803 12.4747 45.0681 12.4597 45.0681 12.4418C45.0681 12.4239 45.0536 12.4093 45.0358 12.4093C45.018 12.4093 45.0035 12.3946 45.0035 12.3767C45.0035 12.3588 44.9889 12.3441 44.9711 12.3441C44.9533 12.3441 44.9388 12.3355 44.9388 12.325C44.9388 12.3144 44.8988 12.2656 44.85 12.2164C44.8012 12.1672 44.7527 12.127 44.7422 12.127C44.7317 12.127 44.7232 12.1124 44.7232 12.0944C44.7232 12.0765 44.7086 12.0619 44.6908 12.0619C44.673 12.0619 44.6585 12.0472 44.6585 12.0293C44.6585 12.0114 44.6439 11.9967 44.6262 11.9967C44.6084 11.9967 44.5936 11.9845 44.5932 11.9696C44.5929 11.9547 44.5592 11.918 44.5184 11.8882C44.4775 11.8583 44.4438 11.8217 44.4435 11.8068C44.4431 11.7919 44.4283 11.7796 44.4105 11.7796C44.3928 11.7796 44.3782 11.765 44.3782 11.7471C44.3782 11.7291 44.3637 11.7145 44.3459 11.7145C44.3281 11.7145 44.3135 11.6998 44.3135 11.6819C44.3135 11.664 44.3014 11.6491 44.2866 11.6487C44.2718 11.6484 44.2354 11.6145 44.2057 11.5734C44.1761 11.5322 44.1397 11.4983 44.1249 11.498C44.1101 11.4976 44.0979 11.4827 44.0979 11.4648C44.0979 11.4469 44.0885 11.4322 44.0769 11.4322C44.0654 11.4322 44.0417 11.4054 44.0243 11.3725C43.9941 11.3156 43.9222 11.2226 43.8507 11.1482C43.8325 11.1292 43.8176 11.0972 43.8176 11.0769C43.8176 11.0566 43.8031 11.0344 43.7853 11.0276C43.7675 11.0207 43.753 11.0011 43.753 10.9841C43.753 10.9671 43.7384 10.9476 43.7206 10.9407C43.7028 10.9338 43.6883 10.906 43.6883 10.8789C43.6883 10.8518 43.6737 10.8175 43.6559 10.8026C43.6381 10.7877 43.6236 10.7481 43.6236 10.7146C43.6236 10.6811 43.6107 10.6407 43.5948 10.6248C43.579 10.6088 43.5591 10.5522 43.5507 10.499C43.5422 10.4458 43.5242 10.3953 43.5105 10.3868C43.4965 10.3781 43.4802 10.2877 43.4732 10.1799C43.4664 10.0746 43.4489 9.96706 43.4344 9.94098C43.4141 9.90464 43.408 9.48204 43.408 8.13278C43.408 6.5877 43.404 6.37049 43.3756 6.35953C43.3579 6.35265 43.3433 6.32223 43.3433 6.29194C43.3433 6.22444 43.0414 5.91743 42.975 5.91743C42.9515 5.91743 42.9267 5.90278 42.9199 5.88487C42.9131 5.86695 42.8836 5.8523 42.8544 5.8523C42.8251 5.8523 42.7867 5.83764 42.7689 5.81973C42.7405 5.79114 42.4217 5.78716 40.1616 5.78716C37.5866 5.78716 37.5866 5.78716 37.5866 5.72135C37.5866 5.68288 37.5732 5.65033 37.5543 5.64304C37.5345 5.6354 37.522 5.60248 37.522 5.55841C37.522 5.51876 37.5074 5.47165 37.4896 5.45373C37.4718 5.43582 37.4573 5.39791 37.4573 5.36949C37.4573 5.34105 37.443 5.29884 37.4256 5.27565C37.4082 5.25249 37.3936 5.21382 37.3933 5.18976C37.3929 5.1657 37.3732 5.10956 37.3495 5.06501C37.3258 5.02043 37.3063 4.96409 37.3063 4.93979C37.3063 4.9155 37.2918 4.88999 37.274 4.88313C37.2532 4.87507 37.2417 4.8415 37.2417 4.78874C37.2417 4.74248 37.2276 4.69514 37.2093 4.67986C37.1915 4.66499 37.177 4.62102 37.177 4.58216C37.177 4.54329 37.1624 4.49933 37.1446 4.48445C37.1269 4.46958 37.1123 4.43117 37.1123 4.3991C37.1123 4.36701 37.0981 4.32181 37.0807 4.29862C37.0632 4.27546 37.0487 4.24167 37.0483 4.22359C37.0479 4.2055 37.0282 4.15424 37.0045 4.10969C36.9808 4.06511 36.9614 4.00037 36.9614 3.96578C36.9614 3.92989 36.9475 3.89752 36.929 3.89037C36.9079 3.88221 36.8967 3.84838 36.8967 3.79267C36.8967 3.73698 36.8855 3.70315 36.8644 3.69497C36.8442 3.68719 36.832 3.65411 36.832 3.60736C36.832 3.56604 36.8175 3.51758 36.7997 3.49967C36.7819 3.48176 36.7673 3.44917 36.7673 3.42724C36.7673 3.40531 36.7479 3.3509 36.7242 3.30635C36.7005 3.26177 36.6811 3.21032 36.6811 3.19199C36.6811 3.17367 36.6665 3.15304 36.6488 3.14618C36.631 3.1393 36.6164 3.10999 36.6164 3.08104C36.6164 3.05208 36.6019 3.02277 36.5841 3.01591C36.5663 3.00903 36.5517 2.9849 36.5517 2.9623C36.5517 2.9397 36.5372 2.9212 36.5194 2.9212C36.4994 2.9212 36.487 2.90081 36.487 2.86801C36.487 2.83874 36.4749 2.807 36.4601 2.79744C36.4279 2.77669 36.3496 2.66509 36.33 2.61181C36.3222 2.5909 36.3059 2.57381 36.2937 2.57381C36.2814 2.57381 36.2714 2.55916 36.2714 2.54124C36.2714 2.52333 36.2569 2.50868 36.2391 2.50868C36.2213 2.50868 36.2068 2.49891 36.2068 2.48697C36.2068 2.4648 36.0437 2.29156 36.0228 2.29156C36.0164 2.29156 35.9828 2.26225 35.948 2.22642C35.9133 2.1906 35.8763 2.16129 35.8658 2.16129C35.8554 2.16129 35.8264 2.1442 35.8014 2.12329C35.6924 2.03199 35.6568 2.00931 35.6226 2.00931C35.6025 2.00931 35.5805 1.99465 35.5737 1.97674C35.5669 1.95883 35.5378 1.94417 35.509 1.94417C35.4803 1.94417 35.4512 1.92951 35.4443 1.9116C35.4372 1.89293 35.405 1.87903 35.3689 1.87903C35.3327 1.87903 35.3005 1.86514 35.2934 1.84647C35.2865 1.82838 35.2544 1.81383 35.221 1.81377C35.1881 1.81368 35.132 1.79809 35.0964 1.77909C35.0608 1.7601 34.9735 1.73958 34.9023 1.7335C34.8312 1.72742 34.7314 1.70881 34.6806 1.69218C34.5449 1.64772 30.632 1.64706 30.5681 1.69149ZM41.5658 25.2742C41.5428 25.2917 41.5009 25.3061 41.4726 25.3061C41.4444 25.3061 41.4068 25.3208 41.389 25.3387C41.3712 25.3566 41.339 25.3712 41.3174 25.3712C41.2958 25.3712 41.2725 25.3859 41.2657 25.4038C41.2589 25.4217 41.2384 25.4364 41.2203 25.4364C41.2021 25.4364 41.1872 25.451 41.1872 25.4689C41.1872 25.4868 41.1727 25.5015 41.1549 25.5015C41.1371 25.5015 41.1226 25.5157 41.1226 25.533C41.1226 25.5503 41.1104 25.5723 41.0956 25.5818C40.9593 25.6697 40.8315 26.4463 40.9418 26.5173C40.955 26.5258 40.9733 26.5568 40.9824 26.5861C40.9915 26.6154 41.0122 26.6527 41.0284 26.6691C41.0446 26.6854 41.0579 26.7176 41.0579 26.7406C41.0579 26.7637 41.0724 26.7825 41.0902 26.7825C41.108 26.7825 41.1226 26.7923 41.1226 26.8042C41.1226 26.8345 41.2011 26.9104 41.2582 26.9353C41.33 26.9666 41.39 27.0073 41.4093 27.0376C41.4188 27.0526 41.463 27.0648 41.5076 27.0648C41.5522 27.0648 41.6075 27.0791 41.6305 27.0966C41.6906 27.1424 42.0552 27.1429 42.0928 27.0973C42.1076 27.0794 42.1514 27.0648 42.1901 27.0648C42.2329 27.0648 42.2655 27.0519 42.2731 27.0322C42.2799 27.0143 42.3028 26.9995 42.3239 26.9993C42.3709 26.9988 42.6749 26.6943 42.6749 26.6476C42.6749 26.6292 42.6895 26.602 42.7073 26.5871C42.7251 26.5722 42.7396 26.5326 42.7396 26.4991C42.7396 26.4656 42.7542 26.4236 42.7719 26.4056C42.8169 26.3603 42.8164 26.008 42.7713 25.9479C42.7539 25.9247 42.7396 25.8795 42.7396 25.8474C42.7396 25.8153 42.7251 25.7769 42.7073 25.762C42.6895 25.7472 42.6749 25.7207 42.6749 25.7032C42.6749 25.6155 42.3222 25.3294 42.1736 25.2966C42.141 25.2894 42.1144 25.274 42.1144 25.2623C42.1144 25.2258 41.6151 25.2367 41.5658 25.2742ZM53.4888 25.2742C53.4658 25.2917 53.4207 25.3061 53.3887 25.3061C53.3567 25.3061 53.3249 25.3208 53.318 25.3387C53.3112 25.3566 53.2918 25.3712 53.2749 25.3712C53.258 25.3712 53.2386 25.3859 53.2318 25.4038C53.225 25.4217 53.1994 25.4364 53.1749 25.4364C53.1504 25.4364 53.1248 25.451 53.118 25.4689C53.1112 25.4868 53.0921 25.5015 53.0756 25.5015C53.0591 25.5015 53.0455 25.5157 53.0455 25.533C53.0455 25.5503 53.0332 25.5723 53.0181 25.5818C53.0031 25.5914 52.979 25.6261 52.9647 25.6589C52.9504 25.6918 52.9288 25.7186 52.9166 25.7186C52.9045 25.7186 52.8946 25.7426 52.8946 25.7718C52.8946 25.8011 52.8795 25.8335 52.861 25.844C52.8116 25.8718 52.812 26.4767 52.8615 26.5132C52.8797 26.5266 52.8946 26.558 52.8946 26.583C52.8946 26.6079 52.907 26.6362 52.922 26.6457C52.9371 26.6553 52.9611 26.6899 52.9755 26.7228C52.9898 26.7556 53.0114 26.7825 53.0235 26.7825C53.0356 26.7825 53.0455 26.7923 53.0455 26.8042C53.0455 26.8335 53.1096 26.8957 53.1752 26.9299C53.2717 26.9803 53.3291 27.0159 53.3535 27.0405C53.3668 27.0539 53.4036 27.0648 53.4353 27.0648C53.4671 27.0648 53.5051 27.0794 53.5199 27.0973C53.5576 27.1431 53.9435 27.1425 54.0037 27.0966C54.0267 27.0791 54.077 27.0648 54.1154 27.0648C54.1538 27.0648 54.1982 27.0517 54.214 27.0357C54.2299 27.0197 54.2525 27.0024 54.2641 26.9973C54.3259 26.9703 54.447 26.8842 54.447 26.8672C54.447 26.8565 54.4615 26.8476 54.4793 26.8476C54.4971 26.8476 54.5117 26.8335 54.5117 26.8162C54.5117 26.7988 54.5401 26.7423 54.5748 26.6905C54.6095 26.6387 54.6449 26.5674 54.6535 26.532C54.662 26.4966 54.6821 26.4484 54.6981 26.4248C54.7383 26.3657 54.738 26.0044 54.6977 25.946C54.6814 25.9225 54.6612 25.8714 54.6528 25.8326C54.6445 25.7938 54.6297 25.762 54.6201 25.762C54.6105 25.762 54.5969 25.7391 54.5899 25.7111C54.5765 25.6573 54.3149 25.3712 54.2791 25.3712C54.2676 25.3712 54.2461 25.3566 54.2314 25.3387C54.2166 25.3208 54.1773 25.3061 54.144 25.3061C54.1108 25.3061 54.069 25.2914 54.0512 25.2735C54.0054 25.2274 53.5495 25.228 53.4888 25.2742Z" fill="#05833E"/>
<path d="M4.55818 39.7908C3.75702 39.7908 3.0591 39.6339 2.46443 39.3201C1.86976 38.9979 1.41137 38.5478 1.08925 37.9696C0.767136 37.3832 0.606079 36.6936 0.606079 35.9007C0.606079 35.1078 0.763007 34.4264 1.07686 33.8565C1.39072 33.2783 1.83672 32.8365 2.41488 32.5309C3.00129 32.217 3.69094 32.0601 4.48384 32.0601C5.26022 32.0601 5.9251 32.2088 6.47847 32.5061C7.04011 32.8034 7.46959 33.2288 7.76693 33.7822C8.06427 34.3355 8.21293 34.9963 8.21293 35.7644V36.4582H2.57593C2.65853 37.0116 2.86914 37.4328 3.20777 37.7219C3.54641 38.0109 3.99241 38.1555 4.54579 38.1555C4.98353 38.1555 5.33042 38.0811 5.58646 37.9325C5.8425 37.7838 6.02421 37.5567 6.13158 37.2511H8.18816C8.02297 38.044 7.62239 38.6676 6.98642 39.1218C6.35045 39.5678 5.54104 39.7908 4.55818 39.7908ZM2.62549 35.0954H6.24308C6.17701 34.6246 5.9953 34.2736 5.69796 34.0423C5.40063 33.8028 5.00005 33.683 4.49623 33.683C3.99241 33.683 3.57944 33.8028 3.25733 34.0423C2.94347 34.2819 2.73286 34.6329 2.62549 35.0954Z" fill="#05833E"/>
<path d="M13.3629 39.7908C12.5865 39.7908 11.9051 39.6339 11.3187 39.3201C10.7406 38.9979 10.2863 38.5478 9.95591 37.9696C9.6338 37.3915 9.47274 36.7101 9.47274 35.9255C9.47274 35.1408 9.6338 34.4594 9.95591 33.8813C10.278 33.3031 10.7323 32.8571 11.3187 32.5433C11.9051 32.2211 12.5865 32.0601 13.3629 32.0601C14.3458 32.0601 15.1552 32.3079 15.7911 32.8034C16.4271 33.299 16.8277 33.9804 16.9929 34.8476H14.9239C14.8165 34.5255 14.6307 34.2777 14.3664 34.1043C14.1021 33.9308 13.7676 33.8441 13.3629 33.8441C12.8095 33.8441 12.3635 34.0258 12.0249 34.3892C11.6945 34.7526 11.5293 35.2647 11.5293 35.9255C11.5293 36.5862 11.6986 37.0983 12.0373 37.4617C12.3759 37.8251 12.8178 38.0068 13.3629 38.0068C14.2384 38.0068 14.7711 37.6351 14.9611 36.8918H17.03C16.8814 37.8003 16.4891 38.5106 15.8531 39.0227C15.2171 39.5348 14.3871 39.7908 13.3629 39.7908Z" fill="#05833E"/>
<path d="M21.9781 39.7908C21.1687 39.7908 20.4625 39.6339 19.8596 39.3201C19.2649 38.9979 18.8024 38.5478 18.472 37.9696C18.1416 37.3915 17.9764 36.706 17.9764 35.9131C17.9764 35.1284 18.1375 34.447 18.4596 33.8689C18.79 33.2907 19.2566 32.8447 19.8596 32.5309C20.4625 32.217 21.1728 32.0601 21.9905 32.0601C22.7999 32.0601 23.5019 32.217 24.0966 32.5309C24.6913 32.8447 25.1497 33.2907 25.4718 33.8689C25.7939 34.447 25.955 35.1326 25.955 35.9255C25.955 36.7101 25.7939 37.3956 25.4718 37.982C25.1497 38.5602 24.6872 39.0062 24.0842 39.3201C23.4896 39.6339 22.7875 39.7908 21.9781 39.7908ZM21.9781 38.0068C22.5975 38.0068 23.0725 37.821 23.4028 37.4493C23.7332 37.0694 23.8984 36.5573 23.8984 35.9131C23.8984 35.2688 23.7332 34.765 23.4028 34.4016C23.0725 34.0299 22.5975 33.8441 21.9781 33.8441C21.3504 33.8441 20.8672 34.0299 20.5286 34.4016C20.1982 34.765 20.033 35.2688 20.033 35.9131C20.033 36.5573 20.1982 37.0694 20.5286 37.4493C20.8672 37.821 21.3504 38.0068 21.9781 38.0068Z" fill="#05833E"/>
<path d="M28.1622 39.6422V34.2406H27.1463V32.2088H29.2276V33.4229H29.7479C30.037 32.9934 30.4004 32.663 30.8382 32.4318C31.2759 32.1922 31.821 32.0725 32.4735 32.0725C33.5059 32.0725 34.303 32.3574 34.8646 32.9273C35.4345 33.489 35.7195 34.2447 35.7195 35.1945V39.6422H33.6629V35.5786C33.6629 35.0335 33.5142 34.6205 33.2169 34.3397C32.9278 34.0506 32.5024 33.9061 31.9408 33.9061C31.3792 33.9061 30.9497 34.0506 30.6523 34.3397C30.3633 34.6205 30.2187 35.0335 30.2187 35.5786V39.6422H28.1622Z" fill="#05833E"/>
<path d="M41.3375 39.7908C40.5281 39.7908 39.8219 39.6339 39.219 39.3201C38.6243 38.9979 38.1618 38.5478 37.8314 37.9696C37.501 37.3915 37.3358 36.706 37.3358 35.9131C37.3358 35.1284 37.4969 34.447 37.819 33.8689C38.1494 33.2907 38.616 32.8447 39.219 32.5309C39.8219 32.217 40.5322 32.0601 41.3499 32.0601C42.1593 32.0601 42.8613 32.217 43.456 32.5309C44.0507 32.8447 44.5091 33.2907 44.8312 33.8689C45.1533 34.447 45.3144 35.1326 45.3144 35.9255C45.3144 36.7101 45.1533 37.3956 44.8312 37.982C44.5091 38.5602 44.0465 39.0062 43.4436 39.3201C42.8489 39.6339 42.1469 39.7908 41.3375 39.7908ZM41.3375 38.0068C41.9569 38.0068 42.4318 37.821 42.7622 37.4493C43.0926 37.0694 43.2578 36.5573 43.2578 35.9131C43.2578 35.2688 43.0926 34.765 42.7622 34.4016C42.4318 34.0299 41.9569 33.8441 41.3375 33.8441C40.7098 33.8441 40.2266 34.0299 39.888 34.4016C39.5576 34.765 39.3924 35.2688 39.3924 35.9131C39.3924 36.5573 39.5576 37.0694 39.888 37.4493C40.2266 37.821 40.7098 38.0068 41.3375 38.0068Z" fill="#05833E"/>
<path d="M47.5215 39.6422V34.2406H46.5056V32.2088H48.587V33.4229H49.1321C49.3964 32.9934 49.7392 32.663 50.1604 32.4318C50.5816 32.1922 51.102 32.0725 51.7214 32.0725C52.3161 32.0725 52.824 32.1798 53.2453 32.3946C53.6747 32.6011 54.0175 32.9108 54.2735 33.3238H54.3231C54.893 32.4896 55.7396 32.0725 56.8629 32.0725C57.8209 32.0725 58.5808 32.3533 59.1424 32.9149C59.7041 33.4683 59.9849 34.2199 59.9849 35.1697V39.6422H57.9283V35.5662C57.9283 34.4594 57.4038 33.9061 56.3549 33.9061C55.306 33.9061 54.7815 34.4594 54.7815 35.5662V39.6422H52.7249V35.5662C52.7249 34.4594 52.1922 33.9061 51.1267 33.9061C50.6147 33.9061 50.2265 34.0423 49.9622 34.3149C49.7061 34.5874 49.5781 35.0045 49.5781 35.5662V39.6422H47.5215Z" fill="#05833E"/>
<path d="M62.0484 39.6422V32.2088H64.105V39.6422H62.0484ZM63.0767 31.4778C62.7629 31.4778 62.4944 31.3704 62.2714 31.1557C62.0567 30.9327 61.9493 30.6643 61.9493 30.3504C61.9493 30.0365 62.0567 29.7722 62.2714 29.5575C62.4944 29.3345 62.7629 29.223 63.0767 29.223C63.3906 29.223 63.6549 29.3345 63.8696 29.5575C64.0926 29.7722 64.2041 30.0365 64.2041 30.3504C64.2041 30.6643 64.0926 30.9327 63.8696 31.1557C63.6549 31.3704 63.3906 31.4778 63.0767 31.4778Z" fill="#05833E"/>
<path d="M65.7715 39.6422V38.4033L69.6369 33.8441H65.9945V32.2088H72.2386V33.4477L68.3732 38.0068H72.3129V39.6422H65.7715Z" fill="#05833E"/>
<path d="M76.3552 39.7784C75.4797 39.7784 74.7942 39.5678 74.2987 39.1466C73.8031 38.7171 73.5553 38.1555 73.5553 37.4617C73.5553 36.7266 73.8113 36.1609 74.3234 35.7644C74.8355 35.368 75.5706 35.1697 76.5287 35.1697H78.6596V34.8848C78.6596 34.0836 78.1805 33.683 77.2225 33.683C76.3883 33.683 75.8844 33.9721 75.711 34.5503H73.6668C73.832 33.7326 74.2161 33.1132 74.819 32.6919C75.4219 32.2707 76.2231 32.0601 77.2225 32.0601C78.3292 32.0601 79.1717 32.3079 79.7498 32.8034C80.3362 33.299 80.6294 34.0217 80.6294 34.9715V37.6104H81.5958V39.6422H79.5144V38.428H78.9941C78.7381 38.8575 78.3953 39.192 77.9658 39.4316C77.5363 39.6628 76.9995 39.7784 76.3552 39.7784ZM76.665 38.2174C77.0531 38.2174 77.3959 38.1472 77.6932 38.0068C77.9906 37.8664 78.226 37.6806 78.3994 37.4493C78.5729 37.2098 78.6596 36.9414 78.6596 36.644V36.5325H76.6278C75.8844 36.5325 75.5128 36.8092 75.5128 37.3626C75.5128 37.6351 75.616 37.8458 75.8225 37.9944C76.029 38.1431 76.3098 38.2174 76.665 38.2174Z" fill="#05833E"/>
<path d="M86.7392 39.7908C85.938 39.7908 85.2401 39.6339 84.6454 39.3201C84.0507 38.9979 83.5923 38.5478 83.2702 37.9696C82.9481 37.3832 82.7871 36.6936 82.7871 35.9007C82.7871 35.1078 82.944 34.4264 83.2579 33.8565C83.5717 33.2783 84.0177 32.8365 84.5959 32.5309C85.1823 32.217 85.8719 32.0601 86.6648 32.0601C87.4412 32.0601 88.1061 32.2088 88.6595 32.5061C89.2211 32.8034 89.6506 33.2288 89.9479 33.7822C90.2452 34.3355 90.3939 34.9963 90.3939 35.7644V36.4582H84.7569C84.8395 37.0116 85.0501 37.4328 85.3888 37.7219C85.7274 38.0109 86.1734 38.1555 86.7268 38.1555C87.1645 38.1555 87.5114 38.0811 87.7674 37.9325C88.0235 37.7838 88.2052 37.5567 88.3126 37.2511H90.3691C90.204 38.044 89.8034 38.6676 89.1674 39.1218C88.5314 39.5678 87.722 39.7908 86.7392 39.7908ZM84.8065 35.0954H88.4241C88.358 34.6246 88.1763 34.2736 87.879 34.0423C87.5816 33.8028 87.181 33.683 86.6772 33.683C86.1734 33.683 85.7604 33.8028 85.4383 34.0423C85.1245 34.2819 84.9138 34.6329 84.8065 35.0954ZM83.9145 31.2796V31.23L85.6118 29H87.5444L89.2665 31.23V31.2796H87.6807L86.5657 30.2637L85.4755 31.2796H83.9145Z" fill="#05833E"/>
</svg>
