<svg xmlns="http://www.w3.org/2000/svg" width="512" height="512" viewBox="0 0 1500 1500" version="1.1"><path d="M 1007 26.681 C 1004.525 26.926, 1002.072 27.548, 1001.550 28.063 C 1001.028 28.578, 998.172 29, 995.204 29 C 992.237 29, 988.614 29.672, 987.154 30.493 C 985.694 31.314, 983.375 32.446, 982 33.008 C 980.625 33.570, 978.150 34.918, 976.500 36.004 C 974.850 37.090, 972.825 38.298, 972 38.689 C 971.175 39.081, 940.184 69.686, 903.130 106.700 C 866.077 143.715, 835.365 174, 834.880 174 C 834.396 174, 834 174.675, 834 175.500 C 834 176.325, 833.325 177, 832.500 177 C 831.675 177, 831 177.675, 831 178.500 C 831 179.325, 830.325 180, 829.500 180 C 828.675 180, 828 180.339, 828 180.754 C 828 181.928, 817.171 193, 816.022 193 C 815.460 193, 815 193.397, 815 193.882 C 815 195.032, 807.032 203, 805.882 203 C 805.397 203, 805 203.675, 805 204.500 C 805 205.325, 804.325 206, 803.500 206 C 802.675 206, 802 206.675, 802 207.500 C 802 208.325, 801.325 209, 800.500 209 C 799.675 209, 799 209.397, 799 209.882 C 799 211.032, 791.032 219, 789.882 219 C 789.397 219, 789 219.675, 789 220.500 C 789 221.325, 788.325 222, 787.500 222 C 786.675 222, 786 222.433, 786 222.961 C 786 224.184, 778.149 232, 776.921 232 C 776.414 232, 776 232.675, 776 233.500 C 776 234.325, 775.325 235, 774.500 235 C 773.675 235, 773 235.675, 773 236.500 C 773 237.325, 772.325 238, 771.500 238 C 770.675 238, 770 238.397, 770 238.882 C 770 240.032, 762.032 248, 760.882 248 C 760.397 248, 760 248.675, 760 249.500 C 760 250.325, 759.325 251, 758.500 251 C 757.675 251, 757 251.675, 757 252.500 C 757 253.325, 756.325 254, 755.500 254 C 754.675 254, 753.988 254.563, 753.972 255.250 C 753.957 255.938, 752.395 257.625, 750.500 259 C 748.605 260.375, 747.043 262.063, 747.028 262.750 C 747.012 263.438, 746.325 264, 745.500 264 C 744.675 264, 744 264.675, 744 265.500 C 744 266.325, 743.325 267, 742.500 267 C 741.675 267, 741 267.675, 741 268.500 C 741 269.325, 740.603 270, 740.118 270 C 738.968 270, 731 277.968, 731 279.118 C 731 279.603, 730.325 280, 729.500 280 C 728.675 280, 728 280.404, 728 280.898 C 728 281.392, 725.283 284.642, 721.963 288.120 C 718.643 291.599, 715.677 295.437, 715.373 296.650 C 715.069 297.863, 714.185 299.099, 713.410 299.396 C 712.634 299.694, 712 301.090, 712 302.500 C 712 303.910, 711.325 305.322, 710.500 305.638 C 709.618 305.977, 709 307.477, 709 309.278 C 709 310.964, 708.212 313.213, 707.250 314.276 C 705.611 316.087, 705.500 321.770, 705.500 403.500 C 705.500 485.230, 705.611 490.913, 707.250 492.724 C 708.212 493.787, 709 496.036, 709 497.722 C 709 499.523, 709.618 501.023, 710.500 501.362 C 711.325 501.678, 712 503.076, 712 504.469 C 712 505.861, 712.461 507, 713.025 507 C 713.588 507, 714.482 508.137, 715.010 509.526 C 716.046 512.252, 716.877 513.371, 721.524 518.295 C 723.187 520.058, 726.167 523.525, 728.146 526 C 730.125 528.475, 734.618 533.498, 738.130 537.163 C 741.642 540.828, 746.167 545.665, 748.185 547.913 C 750.203 550.161, 752.337 552, 752.927 552 C 753.517 552, 754 552.455, 754 553.010 C 754 553.566, 759.737 559.815, 766.750 566.897 C 773.762 573.979, 781.750 582.367, 784.500 585.536 C 787.250 588.705, 792.313 594.193, 795.750 597.732 C 799.188 601.271, 802 604.308, 802 604.482 C 802 604.655, 809.200 612.116, 818 621.062 C 826.800 630.008, 834 637.704, 834 638.164 C 834 638.624, 834.675 639, 835.500 639 C 836.325 639, 837 639.442, 837 639.982 C 837 640.522, 838.575 642.585, 840.500 644.568 C 842.425 646.550, 844 648.778, 844 649.518 C 844 651.219, 847.374 652.333, 850 651.500 C 852.233 650.791, 852.715 647.115, 850.823 645.223 C 848.784 643.184, 848.269 479.391, 850.288 474.931 C 851.142 473.044, 852.133 470.375, 852.489 469 C 854.020 463.095, 858.665 456, 861 456 C 861.550 456, 862 455.583, 862 455.073 C 862 450.574, 890.157 446.498, 892.787 450.615 C 893.179 451.229, 894.625 452.074, 896 452.493 C 899.432 453.541, 908 462.472, 908 465.001 C 908 466.135, 908.675 467.322, 909.500 467.638 C 910.821 468.145, 911 481.958, 911 583.607 C 911 715.092, 910.020 703.565, 920.282 692.750 C 923.544 689.313, 933.252 679.285, 941.856 670.467 C 950.460 661.649, 960.606 651.074, 964.401 646.967 C 968.197 642.860, 982.202 628.250, 995.524 614.500 C 1034.211 574.569, 1033.925 575, 1021.711 575 C 1003.382 575, 993.833 560.145, 1004.999 549 C 1006.012 547.989, 1010 542.065, 1010 541.571 C 1010 541.291, 1020.800 530.252, 1034 517.041 C 1047.200 503.830, 1058 492.566, 1058 492.011 C 1058 491.455, 1058.440 491, 1058.977 491 C 1060.375 491, 1071 480.528, 1071 479.151 C 1071 478.518, 1071.457 478, 1072.016 478 C 1073.344 478, 1103 448.344, 1103 447.016 C 1103 446.457, 1103.462 446, 1104.027 446 C 1105.290 446, 1242.611 308.639, 1245.750 304.237 C 1246.987 302.501, 1248 300.436, 1248 299.647 C 1248 298.859, 1248.675 297.955, 1249.500 297.638 C 1250.325 297.322, 1251 295.979, 1251 294.654 C 1251 293.329, 1251.675 291.685, 1252.500 291 C 1253.333 290.309, 1254 288.129, 1254 286.100 C 1254 284.090, 1254.777 281.335, 1255.727 279.979 C 1258.217 276.424, 1258.186 253.458, 1255.686 249.643 C 1254.759 248.228, 1254 245.465, 1254 243.504 C 1254 241.256, 1253.445 239.724, 1252.500 239.362 C 1251.640 239.032, 1251 237.539, 1251 235.862 C 1251 234.185, 1250.360 232.692, 1249.500 232.362 C 1248.675 232.045, 1248 231.141, 1248 230.353 C 1248 227.286, 1209.925 187, 1207.026 187 C 1206.462 187, 1206 186.540, 1206 185.978 C 1206 184.646, 1195.354 174, 1194.022 174 C 1193.460 174, 1193 173.325, 1193 172.500 C 1193 171.675, 1192.325 171, 1191.500 171 C 1190.675 171, 1190 170.550, 1190 170 C 1190 168.698, 1182.302 161, 1181 161 C 1180.450 161, 1180 160.325, 1180 159.500 C 1180 158.675, 1179.325 158, 1178.500 158 C 1177.675 158, 1177 157.325, 1177 156.500 C 1177 155.675, 1176.325 155, 1175.500 155 C 1174.675 155, 1174 154.325, 1174 153.500 C 1174 152.675, 1173.626 152, 1173.170 152 C 1172.713 152, 1161.994 141.762, 1149.349 129.250 C 1136.704 116.737, 1121.700 102.225, 1116.007 97 C 1110.314 91.775, 1101.911 83.787, 1097.333 79.250 C 1092.755 74.713, 1088.557 71, 1088.005 71 C 1087.452 71, 1087 70.325, 1087 69.500 C 1087 68.675, 1086.325 68, 1085.500 68 C 1084.675 68, 1084 67.540, 1084 66.978 C 1084 65.646, 1073.354 55, 1072.022 55 C 1071.460 55, 1071 54.570, 1071 54.044 C 1071 52.831, 1060.305 42, 1059.107 42 C 1058.616 42, 1057.955 41.325, 1057.638 40.500 C 1057.322 39.675, 1055.972 39, 1054.638 39 C 1053.305 39, 1051.955 38.325, 1051.638 37.500 C 1051.322 36.675, 1050.429 36, 1049.654 36 C 1048.879 36, 1047.709 35.354, 1047.053 34.564 C 1046.398 33.775, 1044.430 32.817, 1042.681 32.437 C 1040.931 32.056, 1038.612 31.127, 1037.527 30.372 C 1036.443 29.618, 1033.601 29, 1031.212 29 C 1028.823 29, 1026.019 28.545, 1024.980 27.989 C 1022.691 26.764, 1013.163 26.071, 1007 26.681 M 1015.211 200.538 C 1014.501 201.342, 1012.869 202, 1011.583 202 C 1010.297 202, 1008.685 202.675, 1008 203.500 C 1007.315 204.325, 1005.958 205, 1004.985 205 C 1004.011 205, 1002.955 205.675, 1002.638 206.500 C 1002.322 207.325, 1001.428 208, 1000.652 208 C 999.188 208, 991 215.424, 991 216.752 C 991 217.167, 989.425 219.722, 987.500 222.429 C 985.467 225.289, 984 228.548, 984 230.207 C 984 231.823, 983.349 233.313, 982.500 233.638 C 980.398 234.445, 980.285 259.161, 982.375 260.896 C 983.132 261.524, 984.037 263.829, 984.387 266.019 C 984.737 268.208, 985.365 270, 985.783 270 C 986.200 270, 987.657 272.097, 989.021 274.660 C 991.799 279.883, 996.340 284.869, 1000.039 286.756 C 1001.392 287.447, 1004.300 289.115, 1006.500 290.463 C 1008.700 291.811, 1011.457 292.933, 1012.628 292.957 C 1013.798 292.980, 1015.315 293.675, 1016 294.500 C 1016.988 295.690, 1019.884 296, 1030.015 296 C 1040.445 296, 1042.892 295.725, 1043.362 294.500 C 1043.686 293.655, 1045.174 293, 1046.769 293 C 1048.326 293, 1050.102 292.498, 1050.716 291.884 C 1051.825 290.775, 1054.302 289.240, 1058.913 286.805 C 1062.084 285.130, 1068.434 278.967, 1069.274 276.750 C 1069.639 275.788, 1070.401 275, 1070.969 275 C 1071.536 275, 1072 274.086, 1072 272.969 C 1072 271.851, 1072.675 270.678, 1073.500 270.362 C 1074.334 270.042, 1075 268.556, 1075 267.015 C 1075 265.492, 1075.675 263.685, 1076.500 263 C 1078.656 261.211, 1078.629 234.416, 1076.468 231.559 C 1075.661 230.491, 1075 228.354, 1075 226.809 C 1075 225.264, 1074.539 224, 1073.975 224 C 1073.412 224, 1072.513 222.988, 1071.978 221.750 C 1070.491 218.311, 1068.703 215.750, 1066.500 213.905 C 1065.400 212.983, 1062.780 210.603, 1060.679 208.615 C 1058.577 206.627, 1056.038 205, 1055.036 205 C 1054.034 205, 1052.955 204.325, 1052.638 203.500 C 1052.322 202.675, 1051.010 202, 1049.723 202 C 1048.435 202, 1046.509 201.339, 1045.441 200.532 C 1042.639 198.412, 1017.081 198.417, 1015.211 200.538" stroke="none" fill="#e98512" fill-rule="evenodd"/><path d="M 54.473 104.362 C 53.388 105.111, 50.175 105.941, 47.333 106.207 C 44.426 106.479, 41.443 107.414, 40.512 108.345 C 39.602 109.255, 37.975 110, 36.897 110 C 35.819 110, 34.678 110.675, 34.362 111.500 C 34.045 112.325, 32.695 113, 31.362 113 C 30.028 113, 28.678 113.675, 28.362 114.500 C 28.045 115.325, 27.384 116, 26.893 116 C 25.668 116, 18 123.760, 18 125 C 18 125.550, 17.593 126, 17.095 126 C 16.052 126, 11 134.288, 11 135.999 C 11 136.628, 10.325 137.818, 9.500 138.643 C 8.675 139.468, 7.986 141.573, 7.968 143.321 C 7.951 145.070, 7.276 147.374, 6.468 148.441 C 4.422 151.147, 4.422 166.853, 6.468 169.559 C 7.276 170.626, 7.951 172.936, 7.968 174.691 C 7.986 176.446, 8.457 178.164, 9.015 178.509 C 9.573 178.854, 10.676 180.681, 11.464 182.568 C 12.253 184.456, 13.371 186, 13.949 186 C 14.527 186, 15 186.675, 15 187.500 C 15 188.325, 15.675 189, 16.500 189 C 17.325 189, 18 189.431, 18 189.958 C 18 191.288, 25.453 199, 26.738 199 C 27.314 199, 28.045 199.675, 28.362 200.500 C 28.678 201.325, 30.028 202, 31.362 202 C 32.695 202, 34.045 202.675, 34.362 203.500 C 34.692 204.360, 36.185 205, 37.862 205 C 39.539 205, 41.032 205.640, 41.362 206.500 C 41.767 207.556, 43.415 208, 46.934 208 C 49.682 208, 54.005 208.704, 56.541 209.565 C 61.192 211.144, 173.406 211.049, 198.686 209.444 C 204.358 209.084, 208.626 209.264, 209.841 209.915 C 210.924 210.494, 215.001 211.265, 218.901 211.627 C 222.908 212, 226.483 212.877, 227.119 213.643 C 227.738 214.389, 229.267 215, 230.515 215 C 231.764 215, 233.045 215.675, 233.362 216.500 C 233.678 217.325, 234.803 218, 235.862 218 C 236.920 218, 238.045 218.675, 238.362 219.500 C 238.678 220.325, 239.851 221, 240.969 221 C 242.086 221, 243 221.620, 243 222.378 C 243 223.135, 243.675 224.315, 244.500 225 C 245.325 225.685, 246 227.779, 246 229.654 C 246 231.762, 246.573 233.282, 247.500 233.638 C 248.471 234.011, 249 235.561, 249 238.036 C 249 240.137, 249.598 242.456, 250.330 243.187 C 251.061 243.919, 251.934 246.205, 252.269 248.269 C 252.604 250.332, 253.580 252.723, 254.439 253.582 C 255.307 254.450, 256 256.833, 256 258.949 C 256 261.112, 256.647 263.292, 257.500 264 C 258.325 264.685, 259 266.779, 259 268.654 C 259 270.762, 259.573 272.282, 260.500 272.638 C 261.466 273.009, 262 274.555, 262 276.985 C 262 279.116, 262.652 281.296, 263.500 282 C 264.325 282.685, 265 284.733, 265 286.551 C 265 288.369, 265.621 290.478, 266.380 291.237 C 267.139 291.996, 268.074 294.477, 268.458 296.751 C 268.842 299.024, 269.796 301.416, 270.578 302.065 C 271.360 302.714, 272 304.942, 272 307.015 C 272 309.445, 272.534 310.991, 273.500 311.362 C 274.493 311.743, 275 313.311, 275 316 C 275 318.689, 275.507 320.257, 276.500 320.638 C 277.466 321.009, 278 322.555, 278 324.985 C 278 327.058, 278.617 329.267, 279.370 329.892 C 280.124 330.518, 280.990 332.888, 281.294 335.159 C 281.599 337.430, 282.311 339.574, 282.877 339.924 C 283.443 340.274, 284.216 342.498, 284.595 344.866 C 284.973 347.234, 285.894 349.406, 286.642 349.693 C 287.454 350.004, 288 351.730, 288 353.985 C 288 356.116, 288.652 358.296, 289.500 359 C 290.365 359.718, 291 361.899, 291 364.154 C 291 366.706, 291.521 368.263, 292.500 368.638 C 293.466 369.009, 294 370.555, 294 372.985 C 294 375.116, 294.652 377.296, 295.500 378 C 296.325 378.685, 297 380.434, 297 381.887 C 297 383.341, 297.900 386.209, 299 388.261 C 300.100 390.314, 301 393.134, 301 394.528 C 301 395.922, 301.675 397.322, 302.500 397.638 C 303.466 398.009, 304 399.555, 304 401.985 C 304 404.116, 304.652 406.296, 305.500 407 C 306.365 407.718, 307 409.899, 307 412.154 C 307 414.706, 307.521 416.263, 308.500 416.638 C 309.471 417.011, 310 418.561, 310 421.036 C 310 423.137, 310.621 425.478, 311.380 426.237 C 312.139 426.996, 313.074 429.477, 313.458 431.751 C 313.842 434.024, 314.796 436.416, 315.578 437.065 C 316.360 437.714, 317 439.779, 317 441.654 C 317 443.762, 317.573 445.282, 318.500 445.638 C 319.521 446.030, 320 447.628, 320 450.638 C 320 453.649, 320.479 455.247, 321.500 455.638 C 322.466 456.009, 323 457.555, 323 459.985 C 323 462.058, 323.617 464.267, 324.370 464.892 C 325.124 465.518, 325.990 467.888, 326.294 470.159 C 326.599 472.430, 327.311 474.574, 327.877 474.924 C 328.443 475.274, 329.208 477.450, 329.578 479.761 C 329.947 482.072, 330.868 484.476, 331.625 485.104 C 332.381 485.731, 333 487.942, 333 490.015 C 333 492.445, 333.534 493.991, 334.500 494.362 C 335.479 494.737, 336 496.294, 336 498.846 C 336 501.101, 336.635 503.282, 337.500 504 C 338.325 504.685, 339 506.733, 339 508.551 C 339 510.369, 339.598 512.456, 340.330 513.187 C 341.061 513.919, 341.946 516.277, 342.295 518.428 C 342.644 520.578, 343.429 522.647, 344.040 523.025 C 344.652 523.403, 345.401 525.570, 345.706 527.841 C 346.010 530.112, 346.876 532.482, 347.630 533.108 C 348.383 533.733, 349 536.004, 349 538.154 C 349 540.706, 349.521 542.263, 350.500 542.638 C 351.466 543.009, 352 544.555, 352 546.985 C 352 549.116, 352.652 551.296, 353.500 552 C 354.325 552.685, 355 554.733, 355 556.551 C 355 558.369, 355.606 560.463, 356.347 561.204 C 357.087 561.944, 358.024 564.316, 358.429 566.474 C 358.834 568.632, 359.803 571.308, 360.583 572.421 C 361.362 573.534, 362 575.872, 362 577.616 C 362 579.511, 362.603 581.017, 363.500 581.362 C 364.493 581.743, 365 583.311, 365 586 C 365 588.689, 365.507 590.257, 366.500 590.638 C 367.466 591.009, 368 592.555, 368 594.985 C 368 597.058, 368.617 599.267, 369.370 599.892 C 370.124 600.518, 370.990 602.888, 371.294 605.159 C 371.599 607.430, 372.311 609.574, 372.877 609.924 C 373.443 610.274, 374.216 612.498, 374.595 614.866 C 374.973 617.234, 375.894 619.406, 376.642 619.693 C 377.467 620.009, 378 621.754, 378 624.138 C 378 626.704, 378.519 628.262, 379.500 628.638 C 380.521 629.030, 381 630.628, 381 633.638 C 381 636.649, 381.479 638.247, 382.500 638.638 C 383.471 639.011, 384 640.561, 384 643.036 C 384 645.137, 384.675 647.532, 385.500 648.357 C 386.325 649.182, 387 650.908, 387 652.193 C 387 653.478, 387.900 656.209, 389 658.261 C 390.100 660.314, 391 663.134, 391 664.528 C 391 665.922, 391.675 667.322, 392.500 667.638 C 393.521 668.030, 394 669.628, 394 672.638 C 394 675.649, 394.479 677.247, 395.500 677.638 C 396.466 678.009, 397 679.555, 397 681.985 C 397 684.116, 397.652 686.296, 398.500 687 C 399.325 687.685, 400 689.733, 400 691.551 C 400 693.369, 400.606 695.463, 401.347 696.204 C 402.087 696.944, 403.024 699.316, 403.429 701.474 C 403.834 703.632, 404.803 706.308, 405.583 707.421 C 406.362 708.534, 407 710.872, 407 712.616 C 407 714.511, 407.603 716.017, 408.500 716.362 C 409.493 716.743, 410 718.311, 410 721 C 410 723.689, 410.507 725.257, 411.500 725.638 C 412.471 726.011, 413 727.561, 413 730.036 C 413 732.137, 413.675 734.532, 414.500 735.357 C 415.325 736.182, 416 738.032, 416 739.468 C 416 740.905, 416.900 743.844, 418 746 C 419.100 748.156, 420 751.008, 420 752.338 C 420 753.667, 420.675 755.315, 421.500 756 C 422.325 756.685, 423 758.710, 423 760.500 C 423 762.290, 423.675 764.315, 424.500 765 C 425.346 765.702, 426 767.882, 426 770 C 426 772.118, 426.654 774.298, 427.500 775 C 428.325 775.685, 429 777.710, 429 779.500 C 429 781.290, 429.675 783.315, 430.500 784 C 431.325 784.685, 432 786.434, 432 787.887 C 432 789.341, 432.900 792.209, 434 794.261 C 435.100 796.314, 436 799.064, 436 800.374 C 436 801.684, 436.675 803.315, 437.500 804 C 438.346 804.702, 439 806.882, 439 809 C 439 811.118, 439.654 813.298, 440.500 814 C 441.325 814.685, 442 816.733, 442 818.551 C 442 820.369, 442.675 822.532, 443.500 823.357 C 444.325 824.182, 445 826.139, 445 827.706 C 445 829.273, 445.619 831.443, 446.375 832.527 C 447.131 833.612, 448.066 836.387, 448.453 838.692 C 448.840 840.998, 449.796 843.416, 450.578 844.065 C 451.360 844.714, 452 846.710, 452 848.500 C 452 850.290, 452.675 852.315, 453.500 853 C 454.365 853.718, 455 855.899, 455 858.154 C 455 860.706, 455.521 862.263, 456.500 862.638 C 457.401 862.984, 458 864.492, 458 866.416 C 458 868.177, 458.612 870.455, 459.361 871.479 C 460.563 873.123, 460.389 873.665, 457.861 876.136 C 456.287 877.674, 455 879.398, 455 879.966 C 455 880.535, 454.325 881, 453.500 881 C 452.675 881, 452 881.675, 452 882.500 C 452 883.325, 451.550 884, 451 884 C 450.450 884, 448.200 885.800, 446 888 C 443.800 890.200, 442 892.450, 442 893 C 442 893.550, 441.325 894, 440.500 894 C 439.675 894, 439 894.675, 439 895.500 C 439 896.325, 438.325 897, 437.500 897 C 436.675 897, 436 897.675, 436 898.500 C 436 899.325, 435.586 900, 435.079 900 C 434.225 900, 426 907.640, 426 908.434 C 426 908.630, 423.986 910.922, 421.525 913.527 C 419.064 916.133, 416.770 919.149, 416.427 920.231 C 416.083 921.312, 414.908 923.092, 413.814 924.186 C 412.720 925.280, 411.183 927.711, 410.399 929.588 C 409.615 931.464, 408.529 933, 407.987 933 C 407.444 933, 407 934.139, 407 935.531 C 407 936.924, 406.325 938.322, 405.500 938.638 C 404.675 938.955, 403.997 939.953, 403.993 940.857 C 403.990 941.761, 403.093 943.850, 402 945.500 C 400.907 947.150, 400.010 949.682, 400.007 951.128 C 400.003 952.573, 399.325 954.315, 398.500 955 C 397.654 955.702, 397 957.882, 397 960 C 397 962.065, 396.352 964.293, 395.561 964.949 C 392.174 967.761, 392.175 1021.241, 395.563 1024.052 C 396.394 1024.742, 397 1027.012, 397 1029.431 C 397 1031.734, 397.661 1034.491, 398.468 1035.559 C 399.276 1036.626, 399.951 1038.480, 399.968 1039.679 C 399.986 1040.877, 400.620 1042.477, 401.378 1043.235 C 402.136 1043.993, 403.065 1046.019, 403.442 1047.738 C 403.820 1049.456, 404.775 1051.398, 405.564 1052.053 C 406.354 1052.709, 407 1054.042, 407 1055.015 C 407 1055.989, 407.675 1057.045, 408.500 1057.362 C 409.325 1057.678, 410 1058.865, 410 1060 C 410 1061.135, 410.675 1062.322, 411.500 1062.638 C 412.325 1062.955, 413 1063.883, 413 1064.700 C 413 1066.684, 420.166 1075.903, 421.750 1075.957 C 422.438 1075.981, 423 1076.677, 423 1077.504 C 423 1079.631, 445.412 1101.928, 447.664 1102.042 C 448.124 1102.066, 449.604 1103.416, 450.953 1105.042 C 452.368 1106.749, 454.378 1108, 455.703 1108 C 456.966 1108, 458 1108.444, 458 1108.987 C 458 1109.529, 459.462 1110.651, 461.250 1111.480 C 463.037 1112.309, 466.300 1114.096, 468.500 1115.450 C 470.700 1116.805, 473.527 1117.933, 474.781 1117.957 C 476.036 1117.980, 477.322 1118.675, 477.638 1119.500 C 477.971 1120.367, 479.466 1121, 481.178 1121 C 482.809 1121, 484.818 1121.675, 485.643 1122.500 C 486.579 1123.436, 489.036 1124, 492.178 1124 C 496.359 1124, 497.111 1124.268, 496.607 1125.582 C 496.273 1126.452, 496 1127.352, 496 1127.582 C 496 1127.812, 495.346 1128, 494.546 1128 C 492.820 1128, 481.180 1139.212, 478.455 1143.500 C 477.406 1145.150, 475.975 1146.860, 475.274 1147.300 C 474.573 1147.740, 473.981 1148.640, 473.958 1149.300 C 473.934 1149.960, 472.584 1151.604, 470.958 1152.953 C 469.331 1154.302, 468 1156.192, 468 1157.152 C 468 1158.112, 466.815 1160.158, 465.367 1161.698 C 463.919 1163.239, 462.126 1165.932, 461.383 1167.682 C 460.639 1169.432, 459.573 1171.146, 459.015 1171.491 C 458.457 1171.836, 458 1173.168, 458 1174.452 C 458 1175.736, 457.325 1177.045, 456.500 1177.362 C 455.519 1177.738, 455 1179.296, 455 1181.862 C 455 1184.427, 454.481 1185.985, 453.500 1186.362 C 452.567 1186.720, 452 1188.244, 452 1190.397 C 452 1192.300, 451.281 1194.576, 450.403 1195.454 C 449.440 1196.417, 448.593 1199.523, 448.270 1203.276 C 447.975 1206.699, 447.231 1210.131, 446.617 1210.901 C 444.747 1213.247, 444.503 1247.108, 446.327 1251.180 C 447.145 1253.006, 448.053 1257.134, 448.345 1260.353 C 448.638 1263.572, 449.580 1266.983, 450.438 1267.932 C 451.297 1268.881, 452 1271.324, 452 1273.360 C 452 1275.729, 452.540 1277.270, 453.500 1277.638 C 454.360 1277.968, 455 1279.461, 455 1281.138 C 455 1282.815, 455.640 1284.308, 456.500 1284.638 C 457.325 1284.955, 458 1286.236, 458 1287.485 C 458 1288.733, 458.675 1290.315, 459.500 1291 C 460.325 1291.685, 461 1293.035, 461 1294 C 461 1294.965, 461.722 1296.354, 462.604 1297.086 C 463.486 1297.819, 464.610 1299.336, 465.102 1300.459 C 466.316 1303.234, 468.052 1305.778, 470.851 1308.888 C 472.144 1310.325, 473.843 1312.737, 474.626 1314.250 C 475.410 1315.763, 476.490 1317, 477.026 1317 C 477.562 1317, 478 1317.450, 478 1318.001 C 478 1318.973, 482.238 1323.352, 489.128 1329.500 C 492.817 1332.792, 495.566 1334.631, 498.250 1335.601 C 499.212 1335.949, 500 1336.856, 500 1337.617 C 500 1338.377, 500.381 1339, 500.847 1339 C 501.313 1339, 502.732 1339.900, 504 1341 C 505.268 1342.100, 507.089 1343, 508.046 1343 C 509.003 1343, 510.045 1343.675, 510.362 1344.500 C 510.678 1345.325, 511.865 1346, 513 1346 C 514.135 1346, 515.322 1346.675, 515.638 1347.500 C 515.955 1348.325, 517.011 1349, 517.985 1349 C 518.958 1349, 520.276 1349.628, 520.913 1350.395 C 521.550 1351.163, 523.597 1352.077, 525.463 1352.427 C 527.328 1352.777, 529.009 1353.528, 529.199 1354.096 C 529.388 1354.664, 531.439 1355.383, 533.757 1355.694 C 536.074 1356.005, 538.482 1356.876, 539.108 1357.630 C 539.779 1358.439, 542.193 1359, 545 1359 C 548.007 1359, 550.213 1359.552, 551 1360.500 C 552.045 1361.760, 556.221 1362, 577.051 1362 C 597.768 1362, 602.104 1361.753, 603.357 1360.500 C 604.290 1359.567, 606.746 1359, 609.857 1359 C 612.968 1359, 615.424 1358.433, 616.357 1357.500 C 617.182 1356.675, 618.902 1355.997, 620.179 1355.993 C 621.455 1355.990, 623.850 1355.093, 625.500 1354 C 627.150 1352.907, 629.527 1352.010, 630.781 1352.007 C 632.036 1352.003, 633.322 1351.325, 633.638 1350.500 C 633.955 1349.675, 635.305 1349, 636.638 1349 C 637.972 1349, 639.322 1348.325, 639.638 1347.500 C 639.955 1346.675, 641.011 1346, 641.985 1346 C 642.958 1346, 644.315 1345.325, 645 1344.500 C 645.685 1343.675, 646.765 1343, 647.400 1343 C 648.036 1343, 649.326 1342.100, 650.268 1341 C 651.210 1339.900, 652.626 1339, 653.414 1339 C 654.203 1339, 659.250 1334.725, 664.630 1329.500 C 670.010 1324.275, 674.769 1320, 675.206 1320 C 675.643 1320, 676 1319.562, 676 1319.026 C 676 1318.491, 678.025 1316.028, 680.500 1313.553 C 682.975 1311.078, 685 1308.656, 685 1308.170 C 685 1307.685, 686.575 1305.225, 688.500 1302.704 C 690.425 1300.183, 692 1297.404, 692 1296.529 C 692 1295.653, 692.675 1294.678, 693.500 1294.362 C 694.355 1294.034, 695 1292.542, 695 1290.893 C 695 1288.988, 695.512 1288, 696.500 1288 C 697.503 1288, 698 1286.997, 698 1284.969 C 698 1283.221, 698.624 1281.698, 699.473 1281.372 C 700.283 1281.061, 701.210 1279.163, 701.533 1277.153 C 701.856 1275.144, 702.768 1272.306, 703.560 1270.846 C 704.352 1269.386, 705.014 1266.686, 705.032 1264.846 C 705.049 1263.006, 705.724 1260.626, 706.532 1259.559 C 708.736 1256.644, 708.707 1204.832, 706.500 1203 C 705.607 1202.259, 705 1200.073, 705 1197.600 C 705 1195.315, 704.389 1192.557, 703.642 1191.473 C 702.895 1190.388, 701.983 1187.858, 701.615 1185.850 C 701.248 1183.843, 700.284 1181.651, 699.474 1180.978 C 698.663 1180.305, 698 1178.671, 698 1177.346 C 698 1176.021, 697.325 1174.678, 696.500 1174.362 C 695.675 1174.045, 695 1173.173, 695 1172.424 C 695 1170.459, 690.963 1163, 689.899 1163 C 689.405 1163, 689 1162.465, 689 1161.812 C 689 1159.940, 684.635 1154.014, 683.250 1154.007 C 682.563 1154.003, 682 1153.213, 681.999 1152.250 C 681.998 1150.519, 678.993 1146.736, 670.676 1138 C 668.320 1135.525, 666.053 1132.938, 665.637 1132.250 C 665.034 1131.252, 702.891 1131.016, 853.691 1131.079 C 957.536 1131.122, 1041.938 1131.385, 1041.250 1131.662 C 1040.562 1131.940, 1040 1132.804, 1040 1133.583 C 1040 1134.363, 1039.325 1135, 1038.500 1135 C 1037.675 1135, 1037 1135.675, 1037 1136.500 C 1037 1137.325, 1036.325 1138, 1035.500 1138 C 1034.675 1138, 1033.998 1138.338, 1033.995 1138.750 C 1033.993 1139.162, 1032.530 1141.055, 1030.745 1142.955 C 1027.330 1146.591, 1025.450 1149.345, 1024.399 1152.250 C 1024.051 1153.213, 1023.251 1154, 1022.620 1154 C 1021.494 1154, 1020.972 1154.746, 1018.021 1160.577 C 1017.208 1162.185, 1015.970 1163.860, 1015.271 1164.300 C 1014.572 1164.740, 1014 1166.154, 1014 1167.443 C 1014 1168.732, 1013.325 1170.045, 1012.500 1170.362 C 1011.675 1170.678, 1011 1172.028, 1011 1173.362 C 1011 1174.695, 1010.325 1176.045, 1009.500 1176.362 C 1008.675 1176.678, 1008 1177.893, 1008 1179.061 C 1008 1180.229, 1007.100 1182.329, 1006 1183.727 C 1004.900 1185.126, 1003.986 1187.447, 1003.968 1188.885 C 1003.951 1190.323, 1003.276 1192.374, 1002.468 1193.441 C 1001.661 1194.509, 1001 1197.112, 1001 1199.226 C 1001 1201.341, 1000.302 1204.135, 999.450 1205.436 C 997.397 1208.569, 997.675 1257.061, 999.750 1257.751 C 1000.515 1258.005, 1001 1260, 1001 1262.892 C 1001 1265.499, 1001.658 1268.488, 1002.468 1269.559 C 1003.276 1270.626, 1003.951 1272.407, 1003.968 1273.515 C 1003.986 1274.623, 1004.900 1277.209, 1006 1279.261 C 1007.100 1281.314, 1008 1283.614, 1008 1284.374 C 1008 1285.134, 1008.675 1286.315, 1009.500 1287 C 1010.325 1287.685, 1011 1289.329, 1011 1290.654 C 1011 1291.979, 1011.675 1293.322, 1012.500 1293.638 C 1013.325 1293.955, 1014 1295.011, 1014 1295.985 C 1014 1296.958, 1014.675 1298.315, 1015.500 1299 C 1016.325 1299.685, 1017 1300.842, 1017 1301.573 C 1017 1302.303, 1017.563 1303.260, 1018.250 1303.700 C 1019.588 1304.556, 1024 1310.537, 1024 1311.494 C 1024 1312.561, 1044.642 1333, 1045.720 1333 C 1046.306 1333, 1047.045 1333.675, 1047.362 1334.500 C 1047.678 1335.325, 1048.514 1336.010, 1049.219 1336.023 C 1049.923 1336.036, 1052.237 1337.611, 1054.360 1339.523 C 1056.484 1341.435, 1059.023 1343, 1060.003 1343 C 1060.984 1343, 1062.045 1343.675, 1062.362 1344.500 C 1062.678 1345.325, 1063.571 1346, 1064.346 1346 C 1065.121 1346, 1066.315 1346.675, 1067 1347.500 C 1067.685 1348.325, 1069.035 1349, 1070 1349 C 1070.965 1349, 1072.315 1349.675, 1073 1350.500 C 1073.685 1351.325, 1074.984 1352, 1075.887 1352 C 1076.791 1352, 1079.209 1352.900, 1081.261 1354 C 1083.314 1355.100, 1086.064 1356, 1087.374 1356 C 1088.684 1356, 1090.315 1356.675, 1091 1357.500 C 1091.783 1358.443, 1093.986 1359, 1096.931 1359 C 1099.509 1359, 1102.491 1359.661, 1103.559 1360.468 C 1106.468 1362.669, 1154.160 1362.697, 1156.357 1360.500 C 1157.234 1359.623, 1159.677 1359, 1162.237 1359 C 1164.647 1359, 1167.491 1358.339, 1168.559 1357.532 C 1169.626 1356.724, 1171.625 1356.046, 1173 1356.025 C 1174.375 1356.004, 1176.850 1355.093, 1178.500 1354 C 1180.150 1352.907, 1182.464 1352.010, 1183.643 1352.007 C 1184.822 1352.003, 1186.045 1351.325, 1186.362 1350.500 C 1186.678 1349.675, 1188.090 1349, 1189.500 1349 C 1190.910 1349, 1192.322 1348.325, 1192.638 1347.500 C 1192.955 1346.675, 1194.011 1346, 1194.985 1346 C 1195.958 1346, 1197.315 1345.325, 1198 1344.500 C 1198.685 1343.675, 1199.879 1343, 1200.654 1343 C 1201.429 1343, 1202.310 1342.356, 1202.612 1341.570 C 1202.913 1340.783, 1204.474 1339.682, 1206.080 1339.122 C 1207.686 1338.562, 1209 1337.631, 1209 1337.052 C 1209 1336.473, 1209.675 1336, 1210.500 1336 C 1211.325 1336, 1212 1335.325, 1212 1334.500 C 1212 1333.675, 1212.497 1333, 1213.105 1333 C 1214.480 1333, 1235 1312.580, 1235 1311.212 C 1235 1310.663, 1235.675 1309.955, 1236.500 1309.638 C 1237.325 1309.322, 1238 1308.135, 1238 1307 C 1238 1305.865, 1238.675 1304.678, 1239.500 1304.362 C 1240.325 1304.045, 1241 1303.159, 1241 1302.393 C 1241 1301.627, 1241.473 1301, 1242.051 1301 C 1242.629 1301, 1243.747 1299.456, 1244.536 1297.568 C 1245.324 1295.681, 1246.427 1293.854, 1246.985 1293.509 C 1247.543 1293.164, 1248 1291.832, 1248 1290.548 C 1248 1289.264, 1248.675 1287.955, 1249.500 1287.638 C 1250.360 1287.308, 1251 1285.815, 1251 1284.138 C 1251 1282.461, 1251.640 1280.968, 1252.500 1280.638 C 1253.456 1280.271, 1254 1278.732, 1254 1276.392 C 1254 1274.264, 1254.638 1272.254, 1255.518 1271.610 C 1256.373 1270.985, 1257.317 1268.122, 1257.681 1265.050 C 1258.036 1262.053, 1258.925 1258.453, 1259.657 1257.050 C 1261.568 1253.388, 1261.564 1208.604, 1259.652 1204.941 C 1258.918 1203.533, 1258.006 1200.439, 1257.626 1198.064 C 1257.247 1195.689, 1256.275 1192.803, 1255.468 1191.651 C 1254.661 1190.498, 1254 1188.291, 1254 1186.746 C 1254 1185.172, 1253.341 1183.684, 1252.500 1183.362 C 1251.666 1183.042, 1251 1181.556, 1251 1180.015 C 1251 1178.492, 1250.325 1176.685, 1249.500 1176 C 1248.675 1175.315, 1248 1173.896, 1248 1172.846 C 1248 1171.796, 1247.325 1170.678, 1246.500 1170.362 C 1245.675 1170.045, 1245 1168.930, 1245 1167.883 C 1245 1166.837, 1244.100 1165.210, 1243 1164.268 C 1241.900 1163.326, 1241 1161.856, 1241 1161.001 C 1241 1160.145, 1239.650 1157.968, 1238 1156.161 C 1236.350 1154.355, 1235 1152.454, 1235 1151.938 C 1235 1151.422, 1234.325 1151, 1233.500 1151 C 1232.675 1151, 1232 1150.347, 1232 1149.550 C 1232 1148.752, 1231.433 1147.740, 1230.741 1147.300 C 1230.048 1146.860, 1228.404 1144.925, 1227.087 1143 C 1225.769 1141.075, 1222.538 1137.626, 1219.907 1135.337 C 1215.121 1131.173, 1215.121 1131.173, 1235.909 1130.837 C 1249.166 1130.622, 1257.204 1130.097, 1258.098 1129.387 C 1258.869 1128.776, 1261.924 1128.002, 1264.887 1127.668 C 1267.850 1127.335, 1271.036 1126.373, 1271.966 1125.531 C 1272.896 1124.689, 1274.579 1124, 1275.706 1124 C 1276.833 1124, 1278.315 1123.325, 1279 1122.500 C 1279.685 1121.675, 1280.865 1121, 1281.622 1121 C 1282.380 1121, 1283 1120.325, 1283 1119.500 C 1283 1118.675, 1283.520 1118, 1284.155 1118 C 1285.456 1118, 1293 1110.380, 1293 1109.065 C 1293 1108.597, 1293.675 1107.955, 1294.500 1107.638 C 1295.325 1107.322, 1296 1105.972, 1296 1104.638 C 1296 1103.305, 1296.675 1101.955, 1297.500 1101.638 C 1298.419 1101.286, 1299 1099.769, 1299 1097.723 C 1299 1095.885, 1299.661 1093.509, 1300.468 1092.441 C 1302.596 1089.627, 1302.622 1069.761, 1300.500 1068 C 1299.635 1067.282, 1299 1065.101, 1299 1062.846 C 1299 1060.294, 1298.479 1058.737, 1297.500 1058.362 C 1296.675 1058.045, 1296 1056.695, 1296 1055.362 C 1296 1054.028, 1295.325 1052.678, 1294.500 1052.362 C 1293.675 1052.045, 1293 1051.319, 1293 1050.748 C 1293 1049.048, 1280.840 1038, 1278.970 1038 C 1278.021 1038, 1276.685 1037.325, 1276 1036.500 C 1275.315 1035.675, 1273.515 1035, 1272 1035 C 1270.485 1035, 1268.685 1034.325, 1268 1033.500 C 1266.898 1032.172, 1224.116 1032, 893.985 1032 C 563.555 1032, 521.149 1031.830, 520.638 1030.500 C 520.322 1029.675, 519.144 1029, 518.021 1029 C 514.724 1029, 502 1019.469, 502 1017 C 502 1016.450, 501.438 1015.988, 500.750 1015.974 C 499.428 1015.947, 496 1009.373, 496 1006.864 C 496 1006.049, 495.339 1004.509, 494.532 1003.441 C 492.589 1000.872, 492.589 991.128, 494.532 988.559 C 495.339 987.491, 496 985.579, 496 984.309 C 496 983.039, 496.420 982, 496.933 982 C 497.446 982, 498.183 980.988, 498.571 979.750 C 498.959 978.513, 502.814 974.044, 507.138 969.821 C 511.462 965.597, 515 961.660, 515 961.071 C 515 960.482, 515.675 960, 516.500 960 C 517.325 960, 518 959.325, 518 958.500 C 518 957.675, 518.460 957, 519.022 957 C 520.354 957, 531 946.354, 531 945.022 C 531 944.460, 531.438 944, 531.974 944 C 532.509 944, 534.972 941.975, 537.447 939.500 C 541.947 935, 541.947 935, 915.506 935 C 1231.779 935, 1289.573 934.787, 1292.384 933.613 C 1294.210 932.850, 1297.544 931.915, 1299.794 931.535 C 1302.044 931.155, 1304.416 930.204, 1305.065 929.422 C 1305.714 928.640, 1307.329 928, 1308.654 928 C 1309.979 928, 1311.322 927.325, 1311.638 926.500 C 1311.955 925.675, 1313.305 925, 1314.638 925 C 1315.972 925, 1317.322 924.325, 1317.638 923.500 C 1317.955 922.675, 1318.855 922, 1319.638 922 C 1320.422 922, 1321.322 921.325, 1321.638 920.500 C 1321.955 919.675, 1322.856 919, 1323.640 919 C 1324.425 919, 1326.642 917.425, 1328.567 915.500 C 1330.492 913.575, 1332.502 912, 1333.033 912 C 1333.565 912, 1334 911.641, 1334 911.202 C 1334 910.763, 1335.561 908.850, 1337.468 906.952 C 1339.376 905.053, 1340.951 902.761, 1340.968 901.857 C 1340.986 900.953, 1341.675 899.955, 1342.500 899.638 C 1343.325 899.322, 1344 898.374, 1344 897.531 C 1344 896.689, 1344.639 896, 1345.421 896 C 1346.202 896, 1347.138 894.650, 1347.500 893 C 1347.862 891.350, 1348.565 890, 1349.060 890 C 1349.556 890, 1350.271 888.767, 1350.650 887.260 C 1351.028 885.753, 1351.936 883.921, 1352.669 883.188 C 1353.401 882.456, 1354 880.819, 1354 879.551 C 1354 878.283, 1354.675 876.685, 1355.500 876 C 1356.346 875.298, 1357 873.118, 1357 871 C 1357 868.882, 1357.654 866.702, 1358.500 866 C 1359.416 865.240, 1360 863.048, 1360 860.374 C 1360 857.903, 1360.872 854.366, 1362 852.261 C 1363.100 850.209, 1364 847.112, 1364 845.379 C 1364 843.646, 1364.672 840.940, 1365.494 839.364 C 1366.315 837.789, 1366.990 834.780, 1366.994 832.679 C 1366.997 830.577, 1367.675 828.182, 1368.500 827.357 C 1369.458 826.400, 1370 823.933, 1370 820.536 C 1370 816.728, 1370.427 815.050, 1371.500 814.638 C 1372.578 814.225, 1373 812.539, 1373 808.654 C 1373 805.066, 1373.505 802.826, 1374.500 802 C 1375.326 801.314, 1376.003 799.125, 1376.006 797.128 C 1376.010 795.132, 1376.718 792.150, 1377.580 790.500 C 1378.442 788.850, 1379.406 785.250, 1379.722 782.500 C 1380.038 779.750, 1380.905 776.612, 1381.648 775.527 C 1382.392 774.443, 1383 771.460, 1383 768.900 C 1383 765.982, 1383.560 763.780, 1384.500 763 C 1385.448 762.213, 1386 760.007, 1386 757 C 1386 753.993, 1386.552 751.787, 1387.500 751 C 1388.495 750.174, 1389 747.934, 1389 744.346 C 1389 740.645, 1389.440 738.768, 1390.393 738.403 C 1391.216 738.087, 1392.066 735.630, 1392.469 732.402 C 1392.845 729.396, 1393.790 725.713, 1394.570 724.218 C 1395.350 722.723, 1396.005 719.700, 1396.026 717.500 C 1396.047 715.300, 1396.724 712.626, 1397.532 711.559 C 1398.339 710.491, 1399 707.502, 1399 704.916 C 1399 701.659, 1399.461 700.037, 1400.500 699.638 C 1401.600 699.216, 1402 697.482, 1402 693.138 C 1402 689.046, 1402.423 687.051, 1403.369 686.688 C 1404.220 686.362, 1404.917 684.012, 1405.209 680.489 C 1405.468 677.369, 1406.198 674.495, 1406.832 674.104 C 1407.466 673.712, 1408.287 671.188, 1408.656 668.495 C 1409.025 665.802, 1409.926 662.451, 1410.657 661.049 C 1411.389 659.647, 1411.990 656.643, 1411.994 654.372 C 1411.997 651.930, 1412.612 649.737, 1413.500 649 C 1414.485 648.182, 1415 645.951, 1415 642.500 C 1415 639.049, 1415.515 636.818, 1416.500 636 C 1417.485 635.182, 1418 632.951, 1418 629.500 C 1418 626.049, 1418.515 623.818, 1419.500 623 C 1420.325 622.315, 1421.015 620.123, 1421.034 618.128 C 1421.053 616.132, 1421.937 612.700, 1423 610.500 C 1424.063 608.300, 1424.947 605.314, 1424.966 603.864 C 1424.985 602.415, 1425.672 599.940, 1426.494 598.364 C 1427.315 596.789, 1428.005 593.700, 1428.026 591.500 C 1428.047 589.300, 1428.724 586.626, 1429.532 585.559 C 1430.339 584.491, 1431 581.509, 1431 578.931 C 1431 575.986, 1431.557 573.783, 1432.500 573 C 1433.485 572.182, 1434 569.951, 1434 566.500 C 1434 563.192, 1434.524 560.810, 1435.413 560.072 C 1436.190 559.427, 1437.138 556.631, 1437.519 553.859 C 1437.901 551.087, 1438.837 547.622, 1439.600 546.159 C 1440.363 544.697, 1440.990 541.625, 1440.994 539.333 C 1440.997 537.042, 1441.507 534.998, 1442.127 534.791 C 1442.747 534.584, 1443.484 531.959, 1443.765 528.958 C 1444.046 525.956, 1444.889 522.612, 1445.638 521.527 C 1446.387 520.443, 1447 517.460, 1447 514.900 C 1447 511.982, 1447.560 509.780, 1448.500 509 C 1449.448 508.213, 1450 506.007, 1450 503 C 1450 500.086, 1450.556 497.783, 1451.437 497.052 C 1452.227 496.397, 1453.188 493.304, 1453.572 490.180 C 1453.956 487.056, 1454.732 484.204, 1455.295 483.842 C 1455.859 483.480, 1456.537 480.572, 1456.802 477.379 C 1457.066 474.186, 1457.894 470.963, 1458.641 470.216 C 1459.409 469.448, 1460 466.767, 1460 464.051 C 1460 460.999, 1460.547 458.791, 1461.500 458 C 1462.486 457.182, 1463 454.950, 1463 451.485 C 1463 447.722, 1463.429 446.049, 1464.500 445.638 C 1465.546 445.237, 1466 443.606, 1466 440.254 C 1466 437.535, 1466.672 434.486, 1467.545 433.239 C 1468.395 432.026, 1469.362 428.663, 1469.694 425.766 C 1470.025 422.870, 1470.905 419.612, 1471.648 418.527 C 1472.392 417.443, 1473 414.598, 1473 412.206 C 1473 409.674, 1473.627 407.231, 1474.500 406.357 C 1475.417 405.440, 1476 402.990, 1476 400.051 C 1476 396.999, 1476.547 394.791, 1477.500 394 C 1478.486 393.182, 1479 390.950, 1479 387.485 C 1479 383.961, 1479.451 382.041, 1480.361 381.692 C 1481.171 381.381, 1481.999 378.806, 1482.406 375.335 C 1482.782 372.126, 1483.745 368.626, 1484.545 367.559 C 1485.345 366.491, 1486.014 363.791, 1486.032 361.559 C 1486.049 359.326, 1486.724 356.626, 1487.532 355.559 C 1489.676 352.724, 1489.650 327.792, 1487.500 325.643 C 1486.675 324.818, 1486.008 323.548, 1486.017 322.821 C 1486.047 320.495, 1481.546 312.079, 1480.250 312.039 C 1479.563 312.017, 1479 311.540, 1479 310.978 C 1479 309.612, 1467.816 299, 1466.376 299 C 1465.754 299, 1464.685 298.325, 1464 297.500 C 1463.315 296.675, 1461.515 296, 1460 296 C 1458.485 296, 1456.685 295.325, 1456 294.500 C 1454.117 292.231, 1319.883 292.231, 1318 294.500 C 1317.315 295.325, 1315.515 296, 1314 296 C 1312.485 296, 1310.685 296.675, 1310 297.500 C 1309.315 298.325, 1307.671 299, 1306.346 299 C 1305.021 299, 1303.685 299.658, 1303.376 300.462 C 1303.068 301.266, 1301.892 302.217, 1300.763 302.575 C 1299.635 302.933, 1297.441 304.525, 1295.889 306.113 C 1294.337 307.701, 1292.715 309.032, 1292.284 309.072 C 1291.853 309.112, 1289.700 311.329, 1287.500 314 C 1285.300 316.671, 1282.938 318.888, 1282.250 318.928 C 1281.563 318.968, 1281 319.675, 1281 320.500 C 1281 321.325, 1280.325 322, 1279.500 322 C 1278.675 322, 1278 322.408, 1278 322.907 C 1278 323.406, 1229.963 371.912, 1171.250 430.698 C 1112.537 489.485, 1063.375 539.081, 1062 540.912 C 1060.625 542.743, 1058.713 544.962, 1057.750 545.843 C 1056.787 546.724, 1056 548.019, 1056 548.722 C 1056 549.425, 1055.570 550, 1055.044 550 C 1053.766 550, 1043 560.727, 1043 562 C 1043 562.550, 1042.325 563, 1041.500 563 C 1040.675 563, 1040 563.675, 1040 564.500 C 1040 565.325, 1039.325 566, 1038.500 566 C 1037.675 566, 1036.988 566.563, 1036.972 567.250 C 1036.957 567.938, 1035.388 569.625, 1033.486 571 C 1031.464 572.461, 1029.631 574.880, 1029.074 576.822 C 1027.923 580.837, 1026.205 582.765, 995.495 614.500 C 982.189 628.250, 968.197 642.860, 964.401 646.967 C 960.606 651.074, 950.460 661.649, 941.856 670.467 C 933.252 679.285, 923.544 689.313, 920.282 692.750 C 917.020 696.187, 913.586 699, 912.651 699 C 909.494 699, 910.670 779.382, 913.832 779.830 C 916.058 780.146, 920 777.610, 920 775.863 C 920 775.408, 921.496 773.496, 923.324 771.614 C 925.152 769.731, 929.540 764.936, 933.074 760.958 C 936.608 756.980, 940.962 752.204, 942.750 750.345 C 944.537 748.485, 946 746.522, 946 745.982 C 946 745.442, 946.675 745, 947.500 745 C 948.325 745, 949 744.611, 949 744.136 C 949 743.661, 960.587 731.565, 974.750 717.257 C 988.913 702.948, 1002.525 689.027, 1005 686.321 C 1011.202 679.539, 1018.297 674, 1020.782 674 C 1021.923 674, 1023.532 673.325, 1024.357 672.500 C 1025.422 671.435, 1028.018 671, 1033.306 671 C 1038.707 671, 1041.097 671.412, 1042 672.500 C 1042.685 673.325, 1044.517 674, 1046.073 674 C 1047.628 674, 1049.260 674.564, 1049.700 675.253 C 1050.140 675.942, 1052.412 677.803, 1054.750 679.389 C 1057.241 681.079, 1059 683.056, 1059 684.167 C 1059 685.210, 1059.675 686.322, 1060.500 686.638 C 1061.325 686.955, 1062 688.205, 1062 689.416 C 1062 690.627, 1062.661 692.491, 1063.468 693.559 C 1065.472 696.208, 1065.472 708.792, 1063.468 711.441 C 1062.661 712.509, 1062 714.160, 1062 715.110 C 1062 719.032, 1057.440 724.495, 1036.500 745.659 C 1024.400 757.888, 1010 772.698, 1004.500 778.570 C 999 784.441, 984.488 799.317, 972.250 811.627 C 960.013 823.937, 950 834.456, 950 835.004 C 950 835.552, 949.560 836, 949.023 836 C 947.625 836, 937 846.472, 937 847.849 C 937 848.482, 936.325 849, 935.500 849 C 934.675 849, 934 849.675, 934 850.500 C 934 851.325, 933.550 852, 933 852 C 931.727 852, 921 862.766, 921 864.044 C 921 864.570, 920.325 865, 919.500 865 C 918.675 865, 918 865.675, 918 866.500 C 918 867.325, 917.347 868, 916.550 868 C 915.752 868, 914.740 868.567, 914.300 869.260 C 913.860 869.954, 910.903 871.812, 907.729 873.390 C 904.554 874.969, 901.715 876.652, 901.420 877.130 C 901.124 877.609, 899.645 878, 898.132 878 C 896.620 878, 894.509 878.661, 893.441 879.468 C 890.620 881.602, 869.766 881.628, 868 879.500 C 867.315 878.675, 865.235 878, 863.378 878 C 861.333 878, 859.210 877.210, 858 876 C 856.900 874.900, 855.148 874, 854.107 874 C 853.066 874, 851.955 873.325, 851.638 872.500 C 851.322 871.675, 850.374 871, 849.531 871 C 848.689 871, 848 870.559, 848 870.019 C 848 869.480, 846.875 868.756, 845.500 868.411 C 844.125 868.066, 843 867.157, 843 866.392 C 843 865.626, 842.603 865, 842.118 865 C 841.632 865, 839.382 863.147, 837.118 860.882 C 834.853 858.618, 833 856.368, 833 855.882 C 833 855.397, 832.325 855, 831.500 855 C 830.675 855, 830 854.325, 830 853.500 C 830 852.675, 829.599 852, 829.109 852 C 828.619 852, 818.494 842.276, 806.609 830.391 C 794.724 818.506, 785 808.381, 785 807.891 C 785 807.401, 784.325 807, 783.500 807 C 782.675 807, 782 806.325, 782 805.500 C 782 804.675, 781.603 804, 781.118 804 C 779.968 804, 772 796.032, 772 794.882 C 772 794.397, 771.325 794, 770.500 794 C 769.675 794, 769 793.325, 769 792.500 C 769 791.675, 768.325 791, 767.500 791 C 766.675 791, 766 790.567, 766 790.039 C 766 788.816, 758.149 781, 756.921 781 C 756.414 781, 756 780.325, 756 779.500 C 756 778.675, 755.325 778, 754.500 778 C 753.675 778, 753 777.325, 753 776.500 C 753 775.675, 752.325 775, 751.500 775 C 750.675 775, 750 774.586, 750 774.079 C 750 772.851, 742.184 765, 740.961 765 C 740.433 765, 740 764.325, 740 763.500 C 740 762.675, 739.325 762, 738.500 762 C 737.675 762, 737 761.526, 737 760.947 C 737 760.368, 729.913 752.796, 721.250 744.121 C 712.587 735.446, 704.201 726.470, 702.614 724.174 C 701.027 721.878, 699.339 720, 698.864 720 C 698.389 720, 698 718.636, 698 716.969 C 698 715.197, 697.377 713.698, 696.500 713.362 C 694.342 712.533, 694.342 696.791, 696.500 695 C 697.325 694.315, 698 692.610, 698 691.211 C 698 688.536, 698.332 688.075, 705.204 681.204 C 712.084 674.323, 712.535 674, 715.262 674 C 716.690 674, 718.532 673.325, 719.357 672.500 C 721.456 670.401, 734.258 670.401, 736 672.500 C 736.685 673.325, 738.390 674, 739.789 674 C 741.188 674, 743.045 674.661, 743.916 675.469 C 752.084 683.045, 783 714.386, 783 715.090 C 783 715.590, 783.675 716, 784.500 716 C 785.325 716, 786 716.675, 786 717.500 C 786 718.325, 786.675 719, 787.500 719 C 788.325 719, 789 719.450, 789 720 C 789 720.550, 790.800 722.800, 793 725 C 795.200 727.200, 797.450 729, 798 729 C 798.550 729, 799 729.675, 799 730.500 C 799 731.325, 799.675 732, 800.500 732 C 801.325 732, 802 732.448, 802 732.995 C 802 733.542, 804.195 736.232, 806.879 738.972 C 809.562 741.713, 813.949 746.521, 816.629 749.658 C 821.661 755.549, 831.471 765.578, 836.583 770.056 C 838.187 771.462, 840.984 774.314, 842.797 776.395 C 848.764 783.239, 848.978 782.416, 849.183 751.781 C 849.400 719.390, 849.371 718.814, 847.477 717.390 C 846.665 716.779, 846 715.767, 846 715.140 C 846 714.513, 845.599 714, 845.108 714 C 844.618 714, 838.648 708.487, 831.841 701.750 C 825.034 695.013, 812.722 683.201, 804.482 675.502 C 796.242 667.803, 789.140 660.940, 788.700 660.252 C 788.260 659.563, 787.248 659, 786.450 659 C 785.653 659, 785 658.578, 785 658.062 C 785 656.848, 771.139 643, 769.924 643 C 769.416 643, 769 642.325, 769 641.500 C 769 640.675, 768.325 640, 767.500 640 C 766.675 640, 766 639.603, 766 639.118 C 766 637.968, 758.032 630, 756.882 630 C 756.397 630, 756 629.325, 756 628.500 C 756 627.675, 755.325 627, 754.500 627 C 753.675 627, 753 626.325, 753 625.500 C 753 624.675, 752.603 624, 752.118 624 C 751.632 624, 749.382 622.147, 747.118 619.882 C 744.853 617.618, 743 615.368, 743 614.882 C 743 614.397, 742.325 614, 741.500 614 C 740.675 614, 740 613.325, 740 612.500 C 740 611.675, 739.325 611, 738.500 611 C 737.675 611, 737 610.325, 737 609.500 C 737 608.675, 736.438 607.988, 735.750 607.972 C 735.063 607.957, 733.375 606.395, 732 604.500 C 730.625 602.605, 728.938 601.043, 728.250 601.028 C 727.563 601.012, 727 600.325, 727 599.500 C 727 598.675, 726.325 598, 725.500 598 C 724.675 598, 724 597.325, 724 596.500 C 724 595.675, 723.325 595, 722.500 595 C 721.675 595, 721 594.603, 721 594.118 C 721 593.632, 719.147 591.382, 716.882 589.118 C 714.618 586.853, 712.368 585, 711.882 585 C 711.397 585, 711 584.325, 711 583.500 C 711 582.675, 710.325 582, 709.500 582 C 708.675 582, 708 581.325, 708 580.500 C 708 579.675, 707.325 579, 706.500 579 C 705.675 579, 704.988 578.438, 704.972 577.750 C 704.957 577.063, 703.395 575.375, 701.500 574 C 699.605 572.625, 698.043 570.938, 698.028 570.250 C 698.012 569.563, 697.325 569, 696.500 569 C 695.675 569, 695 568.325, 695 567.500 C 695 566.675, 694.325 566, 693.500 566 C 692.675 566, 692 565.325, 692 564.500 C 692 563.675, 691.438 562.988, 690.750 562.972 C 690.063 562.957, 688.375 561.395, 687 559.500 C 685.625 557.605, 683.938 556.043, 683.250 556.028 C 682.563 556.012, 682 555.325, 682 554.500 C 682 553.675, 681.562 553, 681.026 553 C 680.490 553, 679.391 551.763, 678.584 550.250 C 677.186 547.630, 673.848 543.346, 670.532 539.916 C 669.689 539.045, 669 537.568, 669 536.635 C 669 535.701, 668.325 534.678, 667.500 534.362 C 666.675 534.045, 666 533.145, 666 532.362 C 666 531.578, 665.325 530.678, 664.500 530.362 C 663.675 530.045, 663 528.764, 663 527.515 C 663 526.267, 662.325 524.685, 661.500 524 C 660.675 523.315, 660 521.492, 660 519.949 C 660 518.406, 659.400 516.542, 658.666 515.809 C 657.932 515.075, 657.011 512.469, 656.619 510.017 C 656.227 507.566, 655.388 505.239, 654.754 504.848 C 654.104 504.447, 653.350 500.287, 653.026 495.318 C 652.709 490.468, 651.899 485.517, 651.225 484.316 C 650.286 482.642, 650 463.178, 650 401.034 C 650 329.871, 649.816 319.867, 648.500 319.362 C 647.675 319.045, 647 317.644, 647 316.249 C 647 313.140, 632.998 299, 629.919 299 C 628.829 299, 627.678 298.325, 627.362 297.500 C 627.045 296.675, 625.677 296, 624.322 296 C 622.966 296, 621.182 295.325, 620.357 294.500 C 619.041 293.183, 604.254 293, 499.429 293 C 380 293, 380 293, 380 289.969 C 380 288.197, 379.377 286.698, 378.500 286.362 C 377.583 286.010, 377 284.494, 377 282.464 C 377 280.638, 376.325 278.468, 375.500 277.643 C 374.675 276.818, 374 275.072, 374 273.763 C 374 272.453, 373.339 270.509, 372.532 269.441 C 371.724 268.374, 371.049 266.593, 371.032 265.485 C 371.014 264.377, 370.100 261.791, 369 259.739 C 367.900 257.686, 367 255.091, 367 253.972 C 367 252.853, 366.325 251.678, 365.500 251.362 C 364.534 250.991, 364 249.445, 364 247.015 C 364 244.884, 363.348 242.704, 362.500 242 C 361.675 241.315, 361 239.290, 361 237.500 C 361 235.710, 360.325 233.685, 359.500 233 C 358.675 232.315, 358 230.546, 358 229.069 C 358 227.591, 357.339 225.509, 356.532 224.441 C 355.724 223.374, 355.049 221.818, 355.032 220.985 C 355.014 220.152, 354.100 217.791, 353 215.739 C 351.900 213.686, 351 210.704, 351 209.111 C 351 207.458, 350.356 205.967, 349.500 205.638 C 348.519 205.262, 348 203.704, 348 201.138 C 348 198.573, 347.481 197.015, 346.500 196.638 C 345.567 196.280, 345 194.756, 345 192.603 C 345 190.700, 344.325 188.468, 343.500 187.643 C 342.675 186.818, 342 185.317, 342 184.307 C 342 183.297, 341.100 180.791, 340 178.739 C 338.900 176.686, 338 174.316, 338 173.472 C 338 172.628, 337.325 171.678, 336.500 171.362 C 335.675 171.045, 335 169.695, 335 168.362 C 335 167.028, 334.325 165.678, 333.500 165.362 C 332.675 165.045, 332 163.934, 332 162.893 C 332 161.852, 331.325 161, 330.500 161 C 329.575 161, 329 160.061, 329 158.550 C 329 157.202, 328.438 155.740, 327.750 155.300 C 326.255 154.344, 322.627 149.204, 321.714 146.750 C 321.356 145.787, 320.599 145, 320.031 145 C 319.464 145, 319 144.325, 319 143.500 C 319 142.675, 318.325 142, 317.500 142 C 316.675 142, 316 141.550, 316 141 C 316 139.979, 308.435 132, 307.466 132 C 307.173 132, 305.613 130.650, 304 129 C 302.387 127.350, 300.671 126, 300.187 126 C 299.702 126, 298.359 125.213, 297.201 124.250 C 292.142 120.045, 290.491 119, 288.904 119 C 287.974 119, 286.955 118.325, 286.638 117.500 C 286.322 116.675, 284.972 116, 283.638 116 C 282.305 116, 280.955 115.325, 280.638 114.500 C 280.308 113.640, 278.815 113, 277.138 113 C 275.461 113, 273.968 112.360, 273.638 111.500 C 273.319 110.667, 271.827 109.997, 270.281 109.994 C 268.752 109.990, 266.150 109.272, 264.500 108.397 C 262.850 107.522, 258.800 106.577, 255.500 106.297 C 252.200 106.017, 247.572 105.160, 245.215 104.394 C 238.921 102.346, 57.435 102.316, 54.473 104.362 M 564.559 1190.532 C 563.491 1191.339, 561.547 1192, 560.237 1192 C 558.928 1192, 557.182 1192.675, 556.357 1193.500 C 555.532 1194.325, 554.037 1195, 553.036 1195 C 552.034 1195, 550.955 1195.675, 550.638 1196.500 C 550.322 1197.325, 549.374 1198, 548.531 1198 C 547.689 1198, 547 1198.675, 547 1199.500 C 547 1200.325, 546.325 1201, 545.500 1201 C 544.675 1201, 544 1201.653, 544 1202.450 C 544 1203.248, 543.438 1204.260, 542.750 1204.700 C 536.426 1208.746, 530.502 1244.517, 535.615 1247.787 C 536.229 1248.179, 537.075 1249.604, 537.497 1250.953 C 537.919 1252.303, 538.879 1254.022, 539.632 1254.775 C 540.384 1255.527, 541 1257.011, 541 1258.071 C 541 1259.132, 541.675 1260, 542.500 1260 C 543.325 1260, 544 1260.450, 544 1261 C 544 1262.395, 547.641 1265.890, 550.290 1267.038 C 553.621 1268.481, 556.406 1270.354, 557.300 1271.750 C 557.740 1272.438, 559.791 1273, 561.859 1273 C 563.926 1273, 566.491 1273.661, 567.559 1274.468 C 570.344 1276.575, 587.257 1276.600, 589 1274.500 C 589.685 1273.675, 591.717 1273, 593.515 1273 C 595.500 1273, 597.012 1272.410, 597.362 1271.500 C 597.678 1270.675, 598.739 1269.993, 599.719 1269.984 C 601.899 1269.964, 616 1255.938, 616 1253.788 C 616 1252.939, 616.675 1251.685, 617.500 1251 C 618.325 1250.315, 619 1248.492, 619 1246.949 C 619 1245.406, 619.675 1243.468, 620.500 1242.643 C 622.587 1240.556, 622.562 1224.328, 620.468 1221.559 C 619.661 1220.491, 619 1218.409, 619 1216.931 C 619 1215.454, 618.325 1213.685, 617.500 1213 C 616.675 1212.315, 616 1211.095, 616 1210.288 C 616 1206.249, 599.641 1193.074, 592.750 1191.564 C 591.237 1191.233, 590 1190.520, 590 1189.981 C 590 1188.300, 566.846 1188.802, 564.559 1190.532 M 1117.559 1190.532 C 1116.491 1191.339, 1114.402 1192, 1112.916 1192 C 1111.430 1192, 1109.955 1192.675, 1109.638 1193.500 C 1109.322 1194.325, 1108.422 1195, 1107.638 1195 C 1106.855 1195, 1105.955 1195.675, 1105.638 1196.500 C 1105.322 1197.325, 1104.135 1198, 1103 1198 C 1101.865 1198, 1100.678 1198.675, 1100.362 1199.500 C 1100.045 1200.325, 1099.159 1201, 1098.393 1201 C 1097.627 1201, 1097 1201.653, 1097 1202.450 C 1097 1203.248, 1096.428 1204.260, 1095.729 1204.700 C 1095.030 1205.140, 1093.915 1206.737, 1093.250 1208.250 C 1092.586 1209.763, 1091.583 1211, 1091.021 1211 C 1090.460 1211, 1090 1212.103, 1090 1213.450 C 1090 1214.798, 1089.299 1216.293, 1088.442 1216.773 C 1086.148 1218.056, 1086.166 1245.917, 1088.462 1247.596 C 1089.308 1248.214, 1090 1249.661, 1090 1250.811 C 1090 1251.960, 1090.572 1253.260, 1091.271 1253.700 C 1091.970 1254.140, 1093.085 1255.737, 1093.750 1257.250 C 1094.414 1258.763, 1095.417 1260, 1095.979 1260 C 1096.540 1260, 1097 1260.450, 1097 1261 C 1097 1262.350, 1099.973 1265.212, 1103.014 1266.790 C 1107.491 1269.112, 1110.150 1270.750, 1111.284 1271.884 C 1111.898 1272.498, 1113.605 1273, 1115.078 1273 C 1116.550 1273, 1118.315 1273.675, 1119 1274.500 C 1120.749 1276.608, 1138.646 1276.583, 1141.441 1274.468 C 1142.509 1273.661, 1144.839 1273, 1146.620 1273 C 1148.400 1273, 1150.460 1272.397, 1151.196 1271.661 C 1151.933 1270.924, 1152.978 1270.129, 1153.518 1269.895 C 1156.385 1268.650, 1162 1264.682, 1162 1263.901 C 1162 1263.406, 1162.675 1263, 1163.500 1263 C 1164.325 1263, 1165 1262.348, 1165 1261.550 C 1165 1260.753, 1166.317 1258.148, 1167.928 1255.762 C 1169.538 1253.376, 1171.180 1250.091, 1171.577 1248.462 C 1171.974 1246.833, 1172.906 1244.612, 1173.649 1243.527 C 1175.514 1240.804, 1175.498 1224.161, 1173.628 1221.473 C 1172.873 1220.388, 1171.937 1218.037, 1171.548 1216.250 C 1171.159 1214.463, 1170.476 1213, 1170.029 1213 C 1169.582 1213, 1168.952 1211.944, 1168.628 1210.653 C 1168.006 1208.177, 1155.873 1195, 1154.214 1195 C 1153.681 1195, 1152.685 1194.325, 1152 1193.500 C 1151.315 1192.675, 1149.492 1192, 1147.949 1192 C 1146.406 1192, 1144.468 1191.325, 1143.643 1190.500 C 1141.518 1188.375, 1120.376 1188.401, 1117.559 1190.532" stroke="none" fill="#04823c" fill-rule="evenodd"/></svg>